<!-- 自動生成ファイル。編集禁止。再生成は pnpm run build-bg-icons を実行する。 -->
<svg xmlns="http://www.w3.org/2000/svg" viewBox="0 0 480 480"><g transform="translate(9.5 9.5) scale(0.875)"><g fill="none" stroke="currentColor" stroke-linecap="round" stroke-linejoin="round" stroke-width="2"><path d="M21.801 10A10 10 0 1 1 17 3.335"/><path d="m9 11l3 3L22 4"/></g></g><g transform="translate(49.5 9.5) scale(0.875)"><path fill="none" stroke="currentColor" stroke-linecap="round" stroke-linejoin="round" stroke-width="2" d="M10 2v2m4-2v4m3-4a1 1 0 0 1 1 1v9H6V3a1 1 0 0 1 1-1zM6 12a1 1 0 0 0-1 1v1a2 2 0 0 0 2 2h2a1 1 0 0 1 1 1v2.9a2 2 0 1 0 4 0V17a1 1 0 0 1 1-1h2a2 2 0 0 0 2-2v-1a1 1 0 0 0-1-1"/></g><g transform="translate(89.5 9.5) scale(0.875)"><g fill="none" stroke="currentColor" stroke-linecap="round" stroke-linejoin="round" stroke-width="2"><path d="M18 16.98h-5.99c-1.1 0-1.95.94-2.48 1.9A4 4 0 0 1 2 17c.01-.7.2-1.4.57-2"/><path d="m6 17l3.13-5.78c.53-.97.1-2.18-.5-3.1a4 4 0 1 1 6.89-4.06"/><path d="m12 6l3.13 5.73C15.66 12.7 16.9 13 18 13a4 4 0 0 1 0 8"/></g></g><g transform="translate(129.5 9.5) scale(0.875)"><path fill="none" stroke="currentColor" stroke-linecap="round" stroke-linejoin="round" stroke-width="2" d="M3 14h3a2 2 0 0 1 2 2v3a2 2 0 0 1-2 2H5a2 2 0 0 1-2-2v-7a9 9 0 0 1 18 0v7a2 2 0 0 1-2 2h-1a2 2 0 0 1-2-2v-3a2 2 0 0 1 2-2h3"/></g><g transform="translate(169.5 9.5) scale(0.875)"><g fill="none" stroke="currentColor" stroke-linecap="round" stroke-linejoin="round" stroke-width="2"><path d="M2 12h3m14 0h3M12 2v3m0 14v3"/><circle cx="12" cy="12" r="7"/></g></g><g transform="translate(209.5 9.5) scale(0.875)"><g fill="none" stroke="currentColor" stroke-linecap="round" stroke-linejoin="round" stroke-width="2"><path d="M10.3 20H4a2 2 0 0 1-2-2V5a2 2 0 0 1 2-2h3.98a2 2 0 0 1 1.69.9l.66 1.2A2 2 0 0 0 12 6h8a2 2 0 0 1 2 2v3.3m-7.695 8.23l.923-.382m0-2.296l-.923-.383m2.547-1.241l-.383-.923m.383 6.467l-.383.924m2.679-6.468l.383-.923m-.001 7.391l-.382-.924m1.624-3.92l.924-.383m-.924 2.679l.924.383"/><circle cx="18" cy="18" r="3"/></g></g><g transform="translate(249.5 9.5) scale(0.875)"><g fill="none" stroke="currentColor" stroke-linecap="round" stroke-linejoin="round" stroke-width="2"><path d="M10 13a5 5 0 0 0 7.54.54l3-3a5 5 0 0 0-7.07-7.07l-1.72 1.71"/><path d="M14 11a5 5 0 0 0-7.54-.54l-3 3a5 5 0 0 0 7.07 7.07l1.71-1.71"/></g></g><g transform="translate(289.5 9.5) scale(0.875)"><g fill="none" stroke="currentColor" stroke-linecap="round" stroke-linejoin="round" stroke-width="2"><path d="M10.268 21a2 2 0 0 0 3.464 0M11.68 2.009A6 6 0 0 0 6 8c0 4.499-1.411 5.956-2.738 7.326A1 1 0 0 0 4 17h16a1 1 0 0 0 .74-1.673c-.824-.85-1.678-1.731-2.21-3.348"/><circle cx="18" cy="5" r="3"/></g></g><g transform="translate(329.5 9.5) scale(0.875)"><g fill="none" stroke="currentColor" stroke-linecap="round" stroke-linejoin="round" stroke-width="2"><path d="M11.25 16.25h1.5L12 17zM16 14v.5"/><path d="M4.42 11.247A13.2 13.2 0 0 0 4 14.556C4 18.728 7.582 21 12 21s8-2.272 8-6.444a11.7 11.7 0 0 0-.493-3.309M8 14v.5"/><path d="M8.5 8.5c-.384 1.05-1.083 2.028-2.344 2.5c-1.931.722-3.576-.297-3.656-1c-.113-.994 1.177-6.53 4-7c1.923-.321 3.651.845 3.651 2.235A7.5 7.5 0 0 1 14 5.277c0-1.39 1.844-2.598 3.767-2.277c2.823.47 4.113 6.006 4 7c-.08.703-1.725 1.722-3.656 1c-1.261-.472-1.855-1.45-2.239-2.5"/></g></g><g transform="translate(369.5 9.5) scale(0.875)"><path fill="none" stroke="currentColor" stroke-linecap="round" stroke-linejoin="round" stroke-width="2" d="M12 16h.01M12 8v4m3.312-10a2 2 0 0 1 1.414.586l4.688 4.688A2 2 0 0 1 22 8.688v6.624a2 2 0 0 1-.586 1.414l-4.688 4.688a2 2 0 0 1-1.414.586H8.688a2 2 0 0 1-1.414-.586l-4.688-4.688A2 2 0 0 1 2 15.312V8.688a2 2 0 0 1 .586-1.414l4.688-4.688A2 2 0 0 1 8.688 2z"/></g><g transform="translate(409.5 9.5) scale(0.875)"><g fill="none" stroke="currentColor" stroke-linecap="round" stroke-linejoin="round" stroke-width="2"><path d="M11 14h1v4m4-16v4M3 10h18M8 2v4"/><rect width="18" height="18" x="3" y="4" rx="2"/></g></g><g transform="translate(449.5 9.5) scale(0.875)"><g fill="none" stroke="currentColor" stroke-linecap="round" stroke-linejoin="round" stroke-width="2"><rect width="14" height="20" x="5" y="2" rx="2"/><path d="M15 14h.01M9 6h6m-6 4h6"/></g></g><g transform="translate(9.5 49.5) scale(0.875)"><g fill="none" stroke="currentColor" stroke-linecap="round" stroke-linejoin="round" stroke-width="2"><rect width="18" height="18" x="3" y="3" rx="2"/><path d="M3 15h18"/></g></g><g transform="translate(49.5 49.5) scale(0.875)"><g fill="none" stroke="currentColor" stroke-linecap="round" stroke-linejoin="round" stroke-width="2"><path d="M9 20H4a2 2 0 0 1-2-2V5a2 2 0 0 1 2-2h3.9a2 2 0 0 1 1.69.9l.81 1.2a2 2 0 0 0 1.67.9H20a2 2 0 0 1 2 2v.5"/><path d="M12 10v4h4"/><path d="m12 14l1.535-1.605a5 5 0 0 1 8 1.5M22 22v-4h-4"/><path d="m22 18l-1.535 1.605a5 5 0 0 1-8-1.5"/></g></g><g transform="translate(89.5 49.5) scale(0.875)"><path fill="none" stroke="currentColor" stroke-linecap="round" stroke-linejoin="round" stroke-width="2" d="M3 7V5a2 2 0 0 1 2-2h2m10 0h2a2 2 0 0 1 2 2v2m0 10v2a2 2 0 0 1-2 2h-2M7 21H5a2 2 0 0 1-2-2v-2m4-9h8m-8 4h10M7 16h6"/></g><g transform="translate(129.5 49.5) scale(0.875)"><g fill="none" stroke="currentColor" stroke-linecap="round" stroke-linejoin="round" stroke-width="2"><rect width="18" height="18" x="3" y="3" rx="2"/><circle cx="7.5" cy="7.5" r=".5" fill="currentColor"/><path d="m7.9 7.9l2.7 2.7"/><circle cx="16.5" cy="7.5" r=".5" fill="currentColor"/><path d="m13.4 10.6l2.7-2.7"/><circle cx="7.5" cy="16.5" r=".5" fill="currentColor"/><path d="m7.9 16.1l2.7-2.7"/><circle cx="16.5" cy="16.5" r=".5" fill="currentColor"/><path d="m13.4 13.4l2.7 2.7"/><circle cx="12" cy="12" r="2"/></g></g><g transform="translate(169.5 49.5) scale(0.875)"><g fill="none" stroke="currentColor" stroke-linecap="round" stroke-linejoin="round" stroke-width="2"><path d="M14 13h2a2 2 0 0 1 2 2v2a2 2 0 0 0 4 0v-6.998a2 2 0 0 0-.59-1.42L18 5m-4 16V5a2 2 0 0 0-2-2H5a2 2 0 0 0-2 2v16m-1 0h13M3 7h11"/><path d="m9 11l-2 3h3l-2 3"/></g></g><g transform="translate(209.5 49.5) scale(0.875)"><g fill="none" stroke="currentColor" stroke-linecap="round" stroke-linejoin="round" stroke-width="2"><path d="M2.048 18.566A2 2 0 0 0 4 21h16a2 2 0 0 0 1.952-2.434l-2-9A2 2 0 0 0 18 8H6a2 2 0 0 0-1.952 1.566z"/><path d="M8 11V6a4 4 0 0 1 8 0v5"/></g></g><g transform="translate(249.5 49.5) scale(0.875)"><g fill="none" stroke="currentColor" stroke-linecap="round" stroke-linejoin="round" stroke-width="2"><path d="m13.5 8.5l-5 5m0-5l5 5"/><circle cx="11" cy="11" r="8"/><path d="m21 21l-4.3-4.3"/></g></g><g transform="translate(289.5 49.5) scale(0.875)"><g fill="none" stroke="currentColor" stroke-linecap="round" stroke-linejoin="round" stroke-width="2"><path d="M12 17v4m-4 0h8m-7-4l6.1-6.1a2 2 0 0 1 2.81.01L22 15"/><circle cx="8" cy="9" r="2"/><rect width="20" height="14" x="2" y="3" rx="2"/></g></g><g transform="translate(329.5 49.5) scale(0.875)"><path fill="none" stroke="currentColor" stroke-linecap="round" stroke-linejoin="round" stroke-width="2" d="m21.73 18l-8-14a2 2 0 0 0-3.48 0l-8 14A2 2 0 0 0 4 21h16a2 2 0 0 0 1.73-3M12 9v4m0 4h.01"/></g><g transform="translate(369.5 49.5) scale(0.875)"><path fill="none" stroke="currentColor" stroke-linecap="round" stroke-linejoin="round" stroke-width="2" d="M14 8a1 1 0 0 1 1 1v2a1 1 0 0 0 1 1h3.293a.707.707 0 0 1 .5 1.207l-6.939 6.939a1.207 1.207 0 0 1-1.708 0l-6.94-6.94a.707.707 0 0 1 .5-1.206H8a1 1 0 0 0 1-1V9a1 1 0 0 1 1-1zM9 4h6"/></g><g transform="translate(409.5 49.5) scale(0.875)"><path fill="none" stroke="currentColor" stroke-linecap="round" stroke-linejoin="round" stroke-width="2" d="M18.715 13.186C18.29 11.858 17.384 10.607 16 9.5c-2-1.6-3.5-4-4-6.5a10.7 10.7 0 0 1-.884 2.586M2 2l20 20M8.795 8.797A11 11 0 0 1 8 9.5C6 11.1 5 13 5 15a7 7 0 0 0 13.222 3.208"/></g><g transform="translate(449.5 49.5) scale(0.875)"><g fill="none" stroke="currentColor" stroke-linecap="round" stroke-linejoin="round" stroke-width="2"><path d="M2 20h20M9 10l2 2l4-4"/><rect width="18" height="12" x="3" y="4" rx="2"/></g></g><g transform="translate(9.5 89.5) scale(0.875)"><g fill="none" stroke="currentColor" stroke-linecap="round" stroke-linejoin="round" stroke-width="2"><path d="M6 22a2 2 0 0 1-2-2V4a2 2 0 0 1 2-2h8a2.4 2.4 0 0 1 1.704.706l3.588 3.588A2.4 2.4 0 0 1 20 8v12a2 2 0 0 1-2 2z"/><path d="M14 2v5a1 1 0 0 0 1 1h5m-4 14a4 4 0 0 0-8 0"/><circle cx="12" cy="15" r="3"/></g></g><g transform="translate(49.5 89.5) scale(0.875)"><g fill="none" stroke="currentColor" stroke-linecap="round" stroke-linejoin="round" stroke-width="2"><path d="m15.228 16.852l-.923-.383m.923 2.679l-.923.383M16 2v4m.47 8.305l.382.923m0 5.544l-.383.924m2.679-6.468l.383-.923m-.001 7.391l-.382-.924m1.624-3.92l.924-.383m-.924 2.679l.924.383M21 10.592V6a2 2 0 0 0-2-2H5a2 2 0 0 0-2 2v14a2 2 0 0 0 2 2h6M3 10h18M8 2v4"/><circle cx="18" cy="18" r="3"/></g></g><g transform="translate(89.5 89.5) scale(0.875)"><g fill="none" stroke="currentColor" stroke-linecap="round" stroke-linejoin="round" stroke-width="2"><path d="M20.341 6.484A10 10 0 0 1 10.266 21.85m-6.607-4.334A10 10 0 0 1 13.74 2.152"/><circle cx="12" cy="12" r="3"/><circle cx="19" cy="5" r="2"/><circle cx="5" cy="19" r="2"/></g></g><g transform="translate(129.5 89.5) scale(0.875)"><g fill="none" stroke="currentColor" stroke-linecap="round" stroke-linejoin="round" stroke-width="2"><path d="M15.686 15A14.5 14.5 0 0 1 12 22a14.5 14.5 0 0 1 0-20a10 10 0 1 0 9.542 13M2 12h8.5M20 6V4a2 2 0 1 0-4 0v2"/><rect width="8" height="5" x="14" y="6" rx="1"/></g></g><g transform="translate(169.5 89.5) scale(0.875)"><g fill="none" stroke="currentColor" stroke-linecap="round" stroke-linejoin="round" stroke-width="2"><circle cx="12" cy="12" r="10"/><path d="M12 2a7 7 0 1 0 10 10"/></g></g><g transform="translate(209.5 89.5) scale(0.875)"><g fill="none" stroke="currentColor" stroke-linecap="round" stroke-linejoin="round" stroke-width="2"><path d="m10 15l5 5l5-5"/><path d="M4 4h7a4 4 0 0 1 4 4v12"/></g></g><g transform="translate(249.5 89.5) scale(0.875)"><g fill="none" stroke="currentColor" stroke-linecap="round" stroke-linejoin="round" stroke-width="2"><path d="M3.85 8.62a4 4 0 0 1 4.78-4.77a4 4 0 0 1 6.74 0a4 4 0 0 1 4.78 4.78a4 4 0 0 1 0 6.74a4 4 0 0 1-4.77 4.78a4 4 0 0 1-6.75 0a4 4 0 0 1-4.78-4.77a4 4 0 0 1 0-6.76"/><path d="M16 8h-6a2 2 0 1 0 0 4h4a2 2 0 1 1 0 4H8m4 2V6"/></g></g><g transform="translate(289.5 89.5) scale(0.875)"><path fill="none" stroke="currentColor" stroke-linecap="round" stroke-linejoin="round" stroke-width="2" d="M17.28 9.05a5.5 5.5 0 1 0-10.56 0A5.5 5.5 0 1 0 12 17.66a5.5 5.5 0 1 0 5.28-8.6ZM12 17.66V22"/></g><g transform="translate(329.5 89.5) scale(0.875)"><g fill="none" stroke="currentColor" stroke-linecap="round" stroke-linejoin="round" stroke-width="2"><rect width="20" height="16" x="2" y="4" rx="2"/><path d="M6 8h.01M10 8h.01M14 8h.01"/></g></g><g transform="translate(369.5 89.5) scale(0.875)"><path fill="none" stroke="currentColor" stroke-linecap="round" stroke-linejoin="round" stroke-width="2" d="M4.5 3h15M6 3v16a2 2 0 0 0 2 2h8a2 2 0 0 0 2-2V3M6 14h12"/></g><g transform="translate(409.5 89.5) scale(0.875)"><path fill="none" stroke="currentColor" stroke-linecap="round" stroke-linejoin="round" stroke-width="2" d="M9 17H7A5 5 0 0 1 7 7h2m6 0h2a5 5 0 1 1 0 10h-2m-7-5h8"/></g><g transform="translate(449.5 89.5) scale(0.875)"><path fill="none" stroke="currentColor" stroke-linecap="round" stroke-linejoin="round" stroke-width="2" d="M10.793 19.793a.707.707 0 0 0 1.207-.5V16a1 1 0 0 1 1-1h6a1 1 0 0 0 1-1v-4a1 1 0 0 0-1-1h-6a1 1 0 0 1-1-1V4.707a.707.707 0 0 0-1.207-.5l-6.94 6.94a1.207 1.207 0 0 0 0 1.707z"/></g><g transform="translate(9.5 129.5) scale(0.875)"><g fill="none" stroke="currentColor" stroke-linecap="round" stroke-linejoin="round" stroke-width="2"><path d="M12 20v-8m.656-5H14a4 4 0 0 1 4 4v1.344M14.12 3.88L16 2m1.123 15.123A6 6 0 0 1 6 14v-3a4 4 0 0 1 1.72-3.287M2 2l20 20"/><path d="M21 5a4 4 0 0 1-3.55 3.97M22 13h-3.344M3 21a4 4 0 0 1 3.81-4M3 5a4 4 0 0 0 3.55 3.97M6 13H2M8 2l1.88 1.88m-.168.18A3 3 0 0 1 15 6v1.13"/></g></g><g transform="translate(49.5 129.5) scale(0.875)"><g fill="none" stroke="currentColor" stroke-linecap="round" stroke-linejoin="round" stroke-width="2"><rect width="14" height="6" x="5" y="14" rx="2"/><rect width="10" height="6" x="7" y="4" rx="2"/><path d="M2 14h20M2 4h20"/></g></g><g transform="translate(89.5 129.5) scale(0.875)"><g fill="none" stroke="currentColor" stroke-linecap="round" stroke-linejoin="round" stroke-width="2"><rect width="18" height="18" x="3" y="3" rx="2"/><path d="m9 15l6-6"/></g></g><g transform="translate(129.5 129.5) scale(0.875)"><path fill="none" stroke="currentColor" stroke-linecap="round" stroke-linejoin="round" stroke-width="2" d="M12 5H2m4 7h12m-9 7h6m1-14h6m-3 3V2"/></g><g transform="translate(169.5 129.5) scale(0.875)"><path fill="none" stroke="currentColor" stroke-linecap="round" stroke-linejoin="round" stroke-width="2" d="M9 10h.01M15 10h.01M12 2a8 8 0 0 0-8 8v12l3-3l2.5 2.5L12 19l2.5 2.5L17 19l3 3V10a8 8 0 0 0-8-8"/></g><g transform="translate(209.5 129.5) scale(0.875)"><g fill="none" stroke="currentColor" stroke-linecap="round" stroke-linejoin="round" stroke-width="2"><path d="M4 20h16a2 2 0 0 0 2-2V8a2 2 0 0 0-2-2h-7.93a2 2 0 0 1-1.66-.9l-.82-1.2A2 2 0 0 0 7.93 3H4a2 2 0 0 0-2 2v13c0 1.1.9 2 2 2"/><circle cx="12" cy="13" r="2"/><path d="M12 15v5"/></g></g><g transform="translate(249.5 129.5) scale(0.875)"><g fill="none" stroke="currentColor" stroke-linecap="round" stroke-linejoin="round" stroke-width="2"><path d="M11 15h2a2 2 0 1 0 0-4h-3c-.6 0-1.1.2-1.4.6L3 17"/><path d="m7 21l1.6-1.4c.3-.4.8-.6 1.4-.6h4c1.1 0 2.1-.4 2.8-1.2l4.6-4.4a2 2 0 0 0-2.75-2.91l-4.2 3.9M2 16l6 6"/><circle cx="16" cy="9" r="2.9"/><circle cx="6" cy="5" r="3"/></g></g><g transform="translate(289.5 129.5) scale(0.875)"><g fill="none" stroke="currentColor" stroke-linecap="round" stroke-linejoin="round" stroke-width="2"><path d="M11 17a4 4 0 0 1-8 0V5a2 2 0 0 1 2-2h4a2 2 0 0 1 2 2Z"/><path d="M16.7 13H19a2 2 0 0 1 2 2v4a2 2 0 0 1-2 2H7m0-4h.01"/><path d="m11 8l2.3-2.3a2.4 2.4 0 0 1 3.404.004L18.6 7.6a2.4 2.4 0 0 1 .026 3.434L9.9 19.8"/></g></g><g transform="translate(329.5 129.5) scale(0.875)"><g fill="none" stroke="currentColor" stroke-linecap="round" stroke-linejoin="round" stroke-width="2"><path d="M14 2v5a1 1 0 0 0 1 1h5M4 12v6m0-4h2"/><path d="M9.65 22H18a2 2 0 0 0 2-2V8a2.4 2.4 0 0 0-.706-1.706l-3.588-3.588A2.4 2.4 0 0 0 14 2H6a2 2 0 0 0-2 2v4"/><circle cx="4" cy="20" r="2"/></g></g><g transform="translate(369.5 129.5) scale(0.875)"><path fill="none" stroke="currentColor" stroke-linecap="round" stroke-linejoin="round" stroke-width="2" d="M11 4.702a.705.705 0 0 0-1.203-.498L6.413 7.587A1.4 1.4 0 0 1 5.416 8H3a1 1 0 0 0-1 1v6a1 1 0 0 0 1 1h2.416a1.4 1.4 0 0 1 .997.413l3.383 3.384A.705.705 0 0 0 11 19.298zM16 9a5 5 0 0 1 0 6m3.364 3.364a9 9 0 0 0 0-12.728"/></g><g transform="translate(409.5 129.5) scale(0.875)"><g fill="none" stroke="currentColor" stroke-linecap="round" stroke-linejoin="round" stroke-width="2"><path d="M21 5H3m7 7H3m7 7H3"/><circle cx="17" cy="15" r="3"/><path d="m21 19l-1.9-1.9"/></g></g><g transform="translate(449.5 129.5) scale(0.875)"><path fill="none" stroke="currentColor" stroke-linecap="round" stroke-linejoin="round" stroke-width="2" d="M12 2v2m-7.07.93l1.41 1.41M20 12h2m-2.93-7.07l-1.41 1.41m-1.713 6.31a4 4 0 0 0-5.925-4.128M13 22H7a5 5 0 1 1 4.9-6H13a3 3 0 0 1 0 6"/></g><g transform="translate(9.5 169.5) scale(0.875)"><g fill="none" stroke="currentColor" stroke-linecap="round" stroke-linejoin="round" stroke-width="2"><path d="M3 12h12"/><circle cx="18" cy="12" r="3"/></g></g><g transform="translate(49.5 169.5) scale(0.875)"><g fill="none" stroke="currentColor" stroke-linecap="round" stroke-linejoin="round" stroke-width="2"><path d="M14 21v-3a2 2 0 0 0-4 0v3m8-9h.01M18 16h.01"/><path d="M22 7a1 1 0 0 0-1-1h-2a2 2 0 0 1-1.143-.359L13.143 2.36a2 2 0 0 0-2.286-.001L6.143 5.64A2 2 0 0 1 5 6H3a1 1 0 0 0-1 1v12a2 2 0 0 0 2 2h16a2 2 0 0 0 2-2zM6 12h.01M6 16h.01"/><circle cx="12" cy="10" r="2"/></g></g><g transform="translate(89.5 169.5) scale(0.875)"><path fill="none" stroke="currentColor" stroke-linecap="round" stroke-linejoin="round" stroke-width="2" d="m4 19l8-8m0 8l-8-8m16 1h-4c0-1.5.442-2 1.5-2.5S20 8.334 20 7.002c0-.472-.17-.93-.484-1.29a2.105 2.105 0 0 0-2.617-.436c-.42.239-.738.614-.899 1.06"/></g><g transform="translate(129.5 169.5) scale(0.875)"><path fill="none" stroke="currentColor" stroke-linecap="round" stroke-linejoin="round" stroke-width="2" d="M10 2v2m4-2v2m2 4a1 1 0 0 1 1 1v8a4 4 0 0 1-4 4H7a4 4 0 0 1-4-4V9a1 1 0 0 1 1-1h14a4 4 0 1 1 0 8h-1M6 2v2"/></g><g transform="translate(169.5 169.5) scale(0.875)"><path fill="none" stroke="currentColor" stroke-linecap="round" stroke-linejoin="round" stroke-width="2" d="M2 20h.01M7 20v-4m5 4v-8"/></g><g transform="translate(209.5 169.5) scale(0.875)"><path fill="none" stroke="currentColor" stroke-linecap="round" stroke-linejoin="round" stroke-width="2" d="M4 20h16a2 2 0 0 0 2-2V8a2 2 0 0 0-2-2h-7.93a2 2 0 0 1-1.66-.9l-.82-1.2A2 2 0 0 0 7.93 3H4a2 2 0 0 0-2 2v13c0 1.1.9 2 2 2m4-10v4m4-4v2m4-2v6"/></g><g transform="translate(249.5 169.5) scale(0.875)"><g fill="none" stroke="currentColor" stroke-linecap="round" stroke-linejoin="round" stroke-width="2"><rect width="12" height="12" x="2" y="10" rx="2" ry="2"/><path d="m17.92 14l3.5-3.5a2.24 2.24 0 0 0 0-3l-5-4.92a2.24 2.24 0 0 0-3 0L10 6M6 18h.01M10 14h.01M15 6h.01M18 9h.01"/></g></g><g transform="translate(289.5 169.5) scale(0.875)"><g fill="none" stroke="currentColor" stroke-linecap="round" stroke-linejoin="round" stroke-width="2"><path d="M15.2 3a2 2 0 0 1 1.4.6l3.8 3.8a2 2 0 0 1 .6 1.4V19a2 2 0 0 1-2 2H5a2 2 0 0 1-2-2V5a2 2 0 0 1 2-2z"/><path d="M17 21v-7a1 1 0 0 0-1-1H8a1 1 0 0 0-1 1v7M7 3v4a1 1 0 0 0 1 1h7"/></g></g><g transform="translate(329.5 169.5) scale(0.875)"><path fill="none" stroke="currentColor" stroke-linecap="round" stroke-linejoin="round" stroke-width="2" d="M7 10H6a4 4 0 0 1-4-4a1 1 0 0 1 1-1h4m0 0a1 1 0 0 1 1-1h13a1 1 0 0 1 1 1a7 7 0 0 1-7 7H8a1 1 0 0 1-1-1zm2 7v5m6-5v5M5 20a3 3 0 0 1 3-3h8a3 3 0 0 1 3 3a1 1 0 0 1-1 1H6a1 1 0 0 1-1-1"/></g><g transform="translate(369.5 169.5) scale(0.875)"><path fill="none" stroke="currentColor" stroke-linecap="round" stroke-linejoin="round" stroke-width="2" d="M4 12h8m-8 6V6m8 12V6m5 7v-3h4m-4 7.7c.4.2.8.3 1.3.3c1.5 0 2.7-1.1 2.7-2.5S19.8 13 18.3 13H17"/></g><g transform="translate(409.5 169.5) scale(0.875)"><path fill="none" stroke="currentColor" stroke-linecap="round" stroke-linejoin="round" stroke-width="2" d="M12 13v8m0-18v3m6.172 0a2 2 0 0 1 1.414.586l2.06 2.06a1.207 1.207 0 0 1 0 1.708l-2.06 2.06a2 2 0 0 1-1.414.586H4a1 1 0 0 1-1-1V7a1 1 0 0 1 1-1z"/></g><g transform="translate(449.5 169.5) scale(0.875)"><g fill="none" stroke="currentColor" stroke-linecap="round" stroke-linejoin="round" stroke-width="2"><rect width="8" height="8" x="3" y="3" rx="2"/><path d="M7 11v4a2 2 0 0 0 2 2h4"/><rect width="8" height="8" x="13" y="13" rx="2"/></g></g><g transform="translate(9.5 209.5) scale(0.875)"><g fill="none" stroke="currentColor" stroke-linecap="round" stroke-linejoin="round" stroke-width="2"><circle cx="12" cy="15" r="6"/><path d="M18 3A6 6 0 0 1 6 3"/></g></g><g transform="translate(49.5 209.5) scale(0.875)"><g fill="none" stroke="currentColor" stroke-linecap="round" stroke-linejoin="round" stroke-width="2"><path d="m13.5 6.5l-3.148-3.148a1.205 1.205 0 0 0-1.704 0L6.352 5.648a1.205 1.205 0 0 0 0 1.704L9.5 10.5m7-3L19 5m-1.5 5.5l3.148 3.148a1.205 1.205 0 0 1 0 1.704l-2.296 2.296a1.205 1.205 0 0 1-1.704 0L13.5 14.5M9 21a6 6 0 0 0-6-6"/><path d="M9.352 10.648a1.205 1.205 0 0 0 0 1.704l2.296 2.296a1.205 1.205 0 0 0 1.704 0l4.296-4.296a1.205 1.205 0 0 0 0-1.704l-2.296-2.296a1.205 1.205 0 0 0-1.704 0z"/></g></g><g transform="translate(89.5 209.5) scale(0.875)"><g fill="none" stroke="currentColor" stroke-linecap="round" stroke-linejoin="round" stroke-width="2"><path d="m15 14l5-5l-5-5"/><path d="M20 9H9.5A5.5 5.5 0 0 0 4 14.5A5.5 5.5 0 0 0 9.5 20H13"/></g></g><g transform="translate(129.5 209.5) scale(0.875)"><g fill="none" stroke="currentColor" stroke-linecap="round" stroke-linejoin="round" stroke-width="2"><circle cx="12" cy="13" r="8"/><path d="M5 3L2 6m20 0l-3-3M6.38 18.7L4 21m13.64-2.33L20 21m-8-11v6m-3-3h6"/></g></g><g transform="translate(169.5 209.5) scale(0.875)"><g fill="none" stroke="currentColor" stroke-linecap="round" stroke-linejoin="round" stroke-width="2"><path d="M12.83 2.18a2 2 0 0 0-1.66 0L2.6 6.08a1 1 0 0 0 0 1.83l8.58 3.91a2 2 0 0 0 1.66 0l8.58-3.9a1 1 0 0 0 0-1.83z"/><path d="M2 12a1 1 0 0 0 .58.91l8.6 3.91a2 2 0 0 0 1.65 0l8.58-3.9A1 1 0 0 0 22 12"/><path d="M2 17a1 1 0 0 0 .58.91l8.6 3.91a2 2 0 0 0 1.65 0l8.58-3.9A1 1 0 0 0 22 17"/></g></g><g transform="translate(209.5 209.5) scale(0.875)"><g fill="none" stroke="currentColor" stroke-linecap="round" stroke-linejoin="round" stroke-width="2"><rect width="8" height="8" x="14" y="14" rx="2"/><rect width="8" height="8" x="2" y="2" rx="2"/><path d="M7 14v1a2 2 0 0 0 2 2h1m4-10h1a2 2 0 0 1 2 2v1"/></g></g><g transform="translate(249.5 209.5) scale(0.875)"><path fill="none" stroke="currentColor" stroke-linecap="round" stroke-linejoin="round" stroke-width="2" d="M15 4V2m0 14v-2M8 9h2m10 0h2m-4.2 2.8L19 13m-4-4h.01m2.79-2.8L19 5M3 21l9-9m.2-5.8L11 5"/></g><g transform="translate(289.5 209.5) scale(0.875)"><g fill="none" stroke="currentColor" stroke-linecap="round" stroke-linejoin="round" stroke-width="2"><circle cx="12" cy="12" r="10"/><circle cx="12" cy="12" r="2"/></g></g><g transform="translate(329.5 209.5) scale(0.875)"><path fill="none" stroke="currentColor" stroke-linecap="round" stroke-linejoin="round" stroke-width="2" d="M14 2v6a2 2 0 0 0 .245.96l5.51 10.08A2 2 0 0 1 18 22H6a2 2 0 0 1-1.755-2.96l5.51-10.08A2 2 0 0 0 10 8V2M6.453 15h11.094M8.5 2h7"/></g><g transform="translate(369.5 209.5) scale(0.875)"><g fill="none" stroke="currentColor" stroke-linecap="round" stroke-linejoin="round" stroke-width="2"><path d="M14 17H5M19 7h-9"/><circle cx="17" cy="17" r="3"/><circle cx="7" cy="7" r="3"/></g></g><g transform="translate(409.5 209.5) scale(0.875)"><g fill="none" stroke="currentColor" stroke-linecap="round" stroke-linejoin="round" stroke-width="2"><path d="M18 6V4a2 2 0 1 0-4 0v2m6 9v6a1 1 0 0 1-1 1H6.5a1 1 0 0 1 0-5H20"/><path d="M4 19.5v-15A2.5 2.5 0 0 1 6.5 2H10"/><rect width="8" height="5" x="12" y="6" rx="1"/></g></g><g transform="translate(449.5 209.5) scale(0.875)"><g fill="none" stroke="currentColor" stroke-linecap="round" stroke-linejoin="round" stroke-width="2"><rect width="18" height="18" x="3" y="3" rx="2" ry="2"/><path d="M3 9h18M3 15h18M9 9v12m6-12v12"/></g></g><g transform="translate(9.5 249.5) scale(0.875)"><g fill="none" stroke="currentColor" stroke-linecap="round" stroke-linejoin="round" stroke-width="2"><path d="m10 20l-1.25-2.5L6 18m4-14L8.75 6.5L6 6m4.585 9H10m-8-3h6.5L10 9m10 5.54a4 4 0 1 1-4 0V4a2 2 0 0 1 4 0z"/><path d="m4 10l1.5 2L4 14m3 7l3-6l-1.5-3M7 3l3 6h2"/></g></g><g transform="translate(49.5 249.5) scale(0.875)"><g fill="none" stroke="currentColor" stroke-linecap="round" stroke-linejoin="round" stroke-width="2"><path d="m10.852 19.772l-.383.924m2.679-6.468l.383-.923m-.383 6.467a3 3 0 1 0-2.296-5.544l-.383-.923"/><path d="m13.53 20.696l-.382-.924a3 3 0 1 1-2.296-5.544m3.92 1.624l.923-.383m-.923 2.679l.923.383"/><path d="M4.2 15.1a7 7 0 1 1 9.93-9.858A7 7 0 0 1 15.71 8h1.79a4.5 4.5 0 0 1 2.5 8.2m-10.772-.348l-.923-.383m.923 2.679l-.923.383"/></g></g><g transform="translate(89.5 249.5) scale(0.875)"><path fill="none" stroke="currentColor" stroke-linecap="round" stroke-linejoin="round" stroke-width="2" d="m14 13l-8.381 8.38a1 1 0 0 1-3.001-3l8.384-8.381M16 16l6-6m-.5.5l-8-8M8 8l6-6M8.5 7.5l8 8"/></g><g transform="translate(129.5 249.5) scale(0.875)"><path fill="none" stroke="currentColor" stroke-linecap="round" stroke-linejoin="round" stroke-width="2" d="M5 20a2 2 0 0 1 2-2h10a2 2 0 0 1 2 2v1a1 1 0 0 1-1 1H6a1 1 0 0 1-1-1zm5-18v2m4-2v2m3 14l-1-9M6 2v5a2 2 0 0 0 2 2h8a2 2 0 0 0 2-2V2M6 4h12M7 18l1-9"/></g><g transform="translate(169.5 249.5) scale(0.875)"><path fill="none" stroke="currentColor" stroke-linecap="round" stroke-linejoin="round" stroke-width="2" d="M17 10c.7-.7 1.69 0 2.5 0a2.5 2.5 0 1 0 0-5a.5.5 0 0 1-.5-.5a2.5 2.5 0 1 0-5 0c0 .81.7 1.8 0 2.5l-7 7c-.7.7-1.69 0-2.5 0a2.5 2.5 0 0 0 0 5c.28 0 .5.22.5.5a2.5 2.5 0 1 0 5 0c0-.81-.7-1.8 0-2.5Z"/></g><g transform="translate(209.5 249.5) scale(0.875)"><g fill="none" stroke="currentColor" stroke-linecap="round" stroke-linejoin="round" stroke-width="2"><path d="M16.247 7.761a6 6 0 0 1 0 8.478m2.828-11.306a10 10 0 0 1 0 14.134m-14.15 0a10 10 0 0 1 0-14.134m2.828 11.306a6 6 0 0 1 0-8.478"/><circle cx="12" cy="12" r="2"/></g></g><g transform="translate(249.5 249.5) scale(0.875)"><path fill="none" stroke="currentColor" stroke-linecap="round" stroke-linejoin="round" stroke-width="2" d="M2 8V6a2 2 0 0 1 2-2h16a2 2 0 0 1 2 2v12a2 2 0 0 1-2 2h-6M2 12a9 9 0 0 1 8 8m-8-4a5 5 0 0 1 4 4m-4 0h.01"/></g><g transform="translate(289.5 249.5) scale(0.875)"><path fill="none" stroke="currentColor" stroke-linecap="round" stroke-linejoin="round" stroke-width="2" d="M9.31 9.31L5 21l7-4l7 4l-1.17-3.17m-3.3-8.95L12 2l-1.17 3.17M2 2l20 20"/></g><g transform="translate(329.5 249.5) scale(0.875)"><path fill="none" stroke="currentColor" stroke-linecap="round" stroke-linejoin="round" stroke-width="2" d="M12 2v20m3-3l-3 3l-3-3M19 9l3 3l-3 3M2 12h20M5 9l-3 3l3 3M9 5l3-3l3 3"/></g><g transform="translate(369.5 249.5) scale(0.875)"><path fill="none" stroke="currentColor" stroke-linecap="round" stroke-linejoin="round" stroke-width="2" d="m5 8l6 6m-7 0l6-6l2-3M2 5h12M7 2h1m14 20l-5-10l-5 10m2-4h6"/></g><g transform="translate(409.5 249.5) scale(0.875)"><g fill="none" stroke="currentColor" stroke-linecap="round" stroke-linejoin="round" stroke-width="2"><rect width="18" height="18" x="3" y="3" rx="2"/><path d="M7.5 3v18M12 3v18m4.5-18v18"/></g></g><g transform="translate(449.5 249.5) scale(0.875)"><path fill="none" stroke="currentColor" stroke-linecap="round" stroke-linejoin="round" stroke-width="2" d="M22 2L2 22"/></g><g transform="translate(9.5 289.5) scale(0.875)"><path fill="none" stroke="currentColor" stroke-linecap="round" stroke-linejoin="round" stroke-width="2" d="M14.536 21.686a.5.5 0 0 0 .937-.024l6.5-19a.496.496 0 0 0-.635-.635l-19 6.5a.5.5 0 0 0-.024.937l7.93 3.18a2 2 0 0 1 1.112 1.11zm7.318-19.539l-10.94 10.939"/></g><g transform="translate(49.5 289.5) scale(0.875)"><g fill="none" stroke="currentColor" stroke-linecap="round" stroke-linejoin="round" stroke-width="2"><circle cx="12" cy="12" r="10"/><path d="M7 10h10M7 14h10"/></g></g><g transform="translate(89.5 289.5) scale(0.875)"><path fill="none" stroke="currentColor" stroke-linecap="round" stroke-linejoin="round" stroke-width="2" d="m4 5l8 8m0-8l-8 8m16 6h-4c0-1.5.44-2 1.5-2.5S20 15.33 20 14c0-.47-.17-.93-.48-1.29a2.11 2.11 0 0 0-2.62-.44c-.42.24-.74.62-.9 1.07"/></g><g transform="translate(129.5 289.5) scale(0.875)"><g fill="none" stroke="currentColor" stroke-linecap="round" stroke-linejoin="round" stroke-width="2"><path d="M4 6L2 7m8-1h4m8 1l-2-1"/><rect width="16" height="16" x="4" y="3" rx="2"/><path d="M4 11h16M8 15h.01M16 15h.01M6 19v2m12 0v-2"/></g></g><g transform="translate(169.5 289.5) scale(0.875)"><path fill="none" stroke="currentColor" stroke-linecap="round" stroke-linejoin="round" stroke-width="2" d="M21 5H3m18 7H9m12 7H7"/></g><g transform="translate(209.5 289.5) scale(0.875)"><g fill="none" stroke="currentColor" stroke-linecap="round" stroke-linejoin="round" stroke-width="2"><circle cx="12" cy="12" r="10"/><path d="m16.24 7.76l-1.804 5.411a2 2 0 0 1-1.265 1.265L7.76 16.24l1.804-5.411a2 2 0 0 1 1.265-1.265z"/></g></g><g transform="translate(249.5 289.5) scale(0.875)"><path fill="none" stroke="currentColor" stroke-linecap="round" stroke-linejoin="round" stroke-width="2" d="M4 16a2 2 0 0 1-2-2V4a2 2 0 0 1 2-2h10a2 2 0 0 1 2 2v3a1 1 0 0 0 1 1h3a2 2 0 0 1 2 2v10a2 2 0 0 1-2 2H10a2 2 0 0 1-2-2v-3a1 1 0 0 0-1-1z"/></g><g transform="translate(289.5 289.5) scale(0.875)"><path fill="none" stroke="currentColor" stroke-linecap="round" stroke-linejoin="round" stroke-width="2" d="M10.66 6H14a2 2 0 0 1 2 2v2.5l5.248-3.062A.5.5 0 0 1 22 7.87v8.196M16 16a2 2 0 0 1-2 2H4a2 2 0 0 1-2-2V8a2 2 0 0 1 2-2h2M2 2l20 20"/></g><g transform="translate(329.5 289.5) scale(0.875)"><g fill="none" stroke="currentColor" stroke-linecap="round" stroke-linejoin="round" stroke-width="2"><path d="M2 21a8 8 0 0 1 13.292-6"/><circle cx="10" cy="8" r="5"/><path d="m16 19l2 2l4-4"/></g></g><g transform="translate(369.5 289.5) scale(0.875)"><path fill="none" stroke="currentColor" stroke-linecap="round" stroke-linejoin="round" stroke-width="2" d="M17 3v10m-4.33-7.5l8.66 5m-8.66 0l8.66-5M9 17a2 2 0 0 0-2-2H5a2 2 0 0 0-2 2v2a2 2 0 0 0 2 2h2a2 2 0 0 0 2-2z"/></g><g transform="translate(409.5 289.5) scale(0.875)"><g fill="none" stroke="currentColor" stroke-linecap="round" stroke-linejoin="round" stroke-width="2"><path d="M12 9v1.258M16 3v5.46m5 .658V5a2 2 0 0 0-2-2H5a2 2 0 0 0-2 2v14a2 2 0 0 0 2 2h5.75"/><path d="M22 17.5c0 2.499-1.75 3.749-3.83 4.474a.5.5 0 0 1-.335-.005c-2.085-.72-3.835-1.97-3.835-4.47V14a.5.5 0 0 1 .5-.499c1 0 2.25-.6 3.12-1.36a.6.6 0 0 1 .76-.001c.875.765 2.12 1.36 3.12 1.36a.5.5 0 0 1 .5.5zM3 15h7M3 9h12.142M8 15v6M8 3v6"/></g></g><g transform="translate(449.5 289.5) scale(0.875)"><g fill="none" stroke="currentColor" stroke-linecap="round" stroke-linejoin="round" stroke-width="2"><path d="M10 3h.01M14 2h.01M2 9l20-5m-10 8V6.5"/><rect width="16" height="10" x="4" y="12" rx="3"/><path d="M9 12v5m6-5v5M4 17h16"/></g></g><g transform="translate(9.5 329.5) scale(0.875)"><path fill="none" stroke="currentColor" stroke-linecap="round" stroke-linejoin="round" stroke-width="2" d="M14 4.5a1 1 0 0 1 5 0a.5.5 0 0 0 .5.5a1 1 0 0 1 0 5c-.81 0-1.8-.7-2.5 0l-1.958 1.957a.15.15 0 0 1-.252-.072l-.493-2.07a.15.15 0 0 0-.111-.112l-2.072-.494a.15.15 0 0 1-.072-.252L14 7c.7-.7 0-1.69 0-2.5M16 20l-1-2m5-2l-2-1M4 8l2 1m2-5l1 2m.698 8.19a.15.15 0 0 0 .112.112l2.074.489a.15.15 0 0 1 .072.252L10 17c-.7.7 0 1.69 0 2.5a1 1 0 0 1-5 0a.495.495 0 0 0-.5-.5a1 1 0 0 1 0-5c.81 0 1.8.7 2.5 0l1.956-1.957a.15.15 0 0 1 .252.072z"/></g><g transform="translate(49.5 329.5) scale(0.875)"><path fill="none" stroke="currentColor" stroke-linecap="round" stroke-linejoin="round" stroke-width="2" d="m14.876 18.99l-1.368 1.323a2 2 0 0 1-3 .019L5 15c-1.5-1.5-3-3.2-3-5.5a5.5 5.5 0 0 1 9.591-3.676a.56.56 0 0 0 .818 0A5.49 5.49 0 0 1 22 9.5a5.2 5.2 0 0 1-.244 1.572M15 15h6"/></g><g transform="translate(89.5 329.5) scale(0.875)"><g fill="none" stroke="currentColor" stroke-linecap="round" stroke-linejoin="round" stroke-width="2"><path d="M2 9a3 3 0 0 1 0 6v2a2 2 0 0 0 2 2h16a2 2 0 0 0 2-2v-2a3 3 0 0 1 0-6V7a2 2 0 0 0-2-2H4a2 2 0 0 0-2 2Z"/><path d="m9 12l2 2l4-4"/></g></g><g transform="translate(129.5 329.5) scale(0.875)"><g fill="none" stroke="currentColor" stroke-linecap="round" stroke-linejoin="round" stroke-width="2"><path d="M6 22a2 2 0 0 1-2-2V4a2 2 0 0 1 2-2h8a2.4 2.4 0 0 1 1.704.706l3.588 3.588A2.4 2.4 0 0 1 20 8v12a2 2 0 0 1-2 2z"/><path d="M14 2v5a1 1 0 0 0 1 1h5m-10 4a1 1 0 0 0-1 1v1a1 1 0 0 1-1 1a1 1 0 0 1 1 1v1a1 1 0 0 0 1 1m4 0a1 1 0 0 0 1-1v-1a1 1 0 0 1 1-1a1 1 0 0 1-1-1v-1a1 1 0 0 0-1-1"/></g></g><g transform="translate(169.5 329.5) scale(0.875)"><g fill="none" stroke="currentColor" stroke-linecap="round" stroke-linejoin="round" stroke-width="2"><path d="M17 3a2 2 0 0 1 2 2v15a1 1 0 0 1-1.496.868l-4.512-2.578a2 2 0 0 0-1.984 0l-4.512 2.578A1 1 0 0 1 5 20V5a2 2 0 0 1 2-2z"/><path d="m9 10l2 2l4-4"/></g></g><g transform="translate(209.5 329.5) scale(0.875)"><g fill="none" stroke="currentColor" stroke-linecap="round" stroke-linejoin="round" stroke-width="2"><path d="M20 10c0 4.993-5.539 10.193-7.399 11.799a1 1 0 0 1-1.202 0C9.539 20.193 4 14.993 4 10a8 8 0 0 1 16 0"/><path d="m9 10l2 2l4-4"/></g></g><g transform="translate(249.5 329.5) scale(0.875)"><path fill="none" stroke="currentColor" stroke-linecap="round" stroke-linejoin="round" stroke-width="2" d="m18 16l4-4l-4-4M6 8l-4 4l4 4m8.5-12l-5 16"/></g><g transform="translate(289.5 329.5) scale(0.875)"><path fill="none" stroke="currentColor" stroke-linecap="round" stroke-linejoin="round" stroke-width="2" d="M10.5 4.893a5.5 5.5 0 0 1 1.091.931a.56.56 0 0 0 .818 0A5.49 5.49 0 0 1 22 9.5c0 1.872-1.002 3.356-2.187 4.655m-2.846 2.812l-3.459 3.346a2 2 0 0 1-3 .019L5 15c-1.5-1.5-3-3.2-3-5.5a5.5 5.5 0 0 1 2.747-4.761M2 2l20 20"/></g><g transform="translate(329.5 329.5) scale(0.875)"><g fill="none" stroke="currentColor" stroke-linecap="round" stroke-linejoin="round" stroke-width="2"><rect width="14" height="20" x="5" y="2" rx="2" ry="2"/><path d="M12.667 8L10 12h4l-2.667 4"/></g></g><g transform="translate(369.5 329.5) scale(0.875)"><g fill="none" stroke="currentColor" stroke-linecap="round" stroke-linejoin="round" stroke-width="2"><path d="M4 9.8V4a2 2 0 0 1 2-2h8a2.4 2.4 0 0 1 1.706.706l3.588 3.588A2.4 2.4 0 0 1 20 8v12a2 2 0 0 1-2 2h-3"/><path d="M14 2v5a1 1 0 0 0 1 1h5M9 17v-2a2 2 0 0 0-4 0v2"/><rect width="8" height="5" x="3" y="17" rx="1"/></g></g><g transform="translate(409.5 329.5) scale(0.875)"><g fill="none" stroke="currentColor" stroke-linecap="round" stroke-linejoin="round" stroke-width="2"><path d="M16 14v2.2l1.6 1M16 2v4m5 1.5V6a2 2 0 0 0-2-2H5a2 2 0 0 0-2 2v14a2 2 0 0 0 2 2h3.5M3 10h5m0-8v4"/><circle cx="16" cy="16" r="6"/></g></g><g transform="translate(449.5 329.5) scale(0.875)"><path fill="none" stroke="currentColor" stroke-linecap="round" stroke-linejoin="round" stroke-width="2" d="M15 5h6m-6 7h6M3 19h18M3 12l3.553-7.724a.5.5 0 0 1 .894 0L11 12m-7.08-2h6.16"/></g><g transform="translate(9.5 369.5) scale(0.875)"><path fill="none" stroke="currentColor" stroke-linecap="round" stroke-linejoin="round" stroke-width="2" d="M12.67 19a2 2 0 0 0 1.416-.588l6.154-6.172a6 6 0 0 0-8.49-8.49L5.586 9.914A2 2 0 0 0 5 11.328V18a1 1 0 0 0 1 1zM16 8L2 22m15.5-7H9"/></g><g transform="translate(49.5 369.5) scale(0.875)"><path fill="none" stroke="currentColor" stroke-linecap="round" stroke-linejoin="round" stroke-width="2" d="m10 17l5-5l-5-5m5 5H3m12-9h4a2 2 0 0 1 2 2v14a2 2 0 0 1-2 2h-4"/></g><g transform="translate(89.5 369.5) scale(0.875)"><path fill="none" stroke="currentColor" stroke-linecap="round" stroke-linejoin="round" stroke-width="2" d="m7 18l6-6l-6-6m10 0v12"/></g><g transform="translate(129.5 369.5) scale(0.875)"><g fill="none" stroke="currentColor" stroke-linecap="round" stroke-linejoin="round" stroke-width="2"><path d="M8.62 13.8A2.25 2.25 0 1 1 12 10.836a2.25 2.25 0 1 1 3.38 2.966l-2.626 2.856a.998.998 0 0 1-1.507 0z"/><path d="M3 10a2 2 0 0 1 .709-1.528l7-6a2 2 0 0 1 2.582 0l7 6A2 2 0 0 1 21 10v9a2 2 0 0 1-2 2H5a2 2 0 0 1-2-2z"/></g></g><g transform="translate(169.5 369.5) scale(0.875)"><g fill="none" stroke="currentColor" stroke-linecap="round" stroke-linejoin="round" stroke-width="2"><path d="M13.659 22H18a2 2 0 0 0 2-2V8a2.4 2.4 0 0 0-.706-1.706l-3.588-3.588A2.4 2.4 0 0 0 14 2H6a2 2 0 0 0-2 2v11.5"/><path d="M14 2v5a1 1 0 0 0 1 1h5M8 12v-1m0 7v-2m0-9V6"/><circle cx="8" cy="20" r="2"/></g></g><g transform="translate(209.5 369.5) scale(0.875)"><g fill="none" stroke="currentColor" stroke-linecap="round" stroke-linejoin="round" stroke-width="2"><circle cx="12" cy="12" r="10"/><path d="M16 16s-1.5-2-4-2s-4 2-4 2m-.5-8L10 9m4 0l2.5-1M9 10h.01M15 10h.01"/></g></g><g transform="translate(249.5 369.5) scale(0.875)"><g fill="none" stroke="currentColor" stroke-linecap="round" stroke-linejoin="round" stroke-width="2"><rect width="18" height="18" x="3" y="3" rx="2"/><path d="M11 9h4a2 2 0 0 0 2-2V3"/><circle cx="9" cy="9" r="2"/><path d="M7 21v-4a2 2 0 0 1 2-2h4"/><circle cx="15" cy="15" r="2"/></g></g><g transform="translate(289.5 369.5) scale(0.875)"><g fill="none" stroke="currentColor" stroke-linecap="round" stroke-linejoin="round" stroke-width="2"><path d="M2 10h6V4M2 4l6 6m13 0V7a2 2 0 0 0-2-2h-7m-9 9v2a2 2 0 0 0 2 2h3"/><rect width="10" height="7" x="12" y="14" rx="1"/></g></g><g transform="translate(329.5 369.5) scale(0.875)"><g fill="none" stroke="currentColor" stroke-linecap="round" stroke-linejoin="round" stroke-width="2"><path d="M6 22a2 2 0 0 1-2-2V4a2 2 0 0 1 2-2h8a2.4 2.4 0 0 1 1.704.706l3.588 3.588A2.4 2.4 0 0 1 20 8v12a2 2 0 0 1-2 2z"/><path d="M14 2v5a1 1 0 0 0 1 1h5M8 16l2-2l-2-2m4 6h4"/></g></g><g transform="translate(369.5 369.5) scale(0.875)"><g fill="none" stroke="currentColor" stroke-linecap="round" stroke-linejoin="round" stroke-width="2"><path d="M10 15v-3m4 3v-3m4 3v-3M2 8V4m20 2H2m20 2V4M6 15v-3"/><rect width="20" height="8" x="2" y="12" rx="2"/></g></g><g transform="translate(409.5 369.5) scale(0.875)"><g fill="none" stroke="currentColor" stroke-linecap="round" stroke-linejoin="round" stroke-width="2"><path d="M12 6a2 2 0 0 1 3.414-1.414l6 6a2 2 0 0 1 0 2.828l-6 6A2 2 0 0 1 12 18z"/><path d="M2 6a2 2 0 0 1 3.414-1.414l6 6a2 2 0 0 1 0 2.828l-6 6A2 2 0 0 1 2 18z"/></g></g><g transform="translate(449.5 369.5) scale(0.875)"><g fill="none" stroke="currentColor" stroke-linecap="round" stroke-linejoin="round" stroke-width="2"><path d="M3.85 8.62a4 4 0 0 1 4.78-4.77a4 4 0 0 1 6.74 0a4 4 0 0 1 4.78 4.78a4 4 0 0 1 0 6.74a4 4 0 0 1-4.77 4.78a4 4 0 0 1-6.75 0a4 4 0 0 1-4.78-4.77a4 4 0 0 1 0-6.76"/><path d="M11 17V8h4m-4 4h3m-5 4h4"/></g></g><g transform="translate(9.5 409.5) scale(0.875)"><g fill="none" stroke="currentColor" stroke-linecap="round" stroke-linejoin="round" stroke-width="2"><path d="m14 18l4 4l4-4M16 2v4m2 8v8"/><path d="M21 11.354V6a2 2 0 0 0-2-2H5a2 2 0 0 0-2 2v14a2 2 0 0 0 2 2h7.343M3 10h18M8 2v4"/></g></g><g transform="translate(49.5 409.5) scale(0.875)"><path fill="none" stroke="currentColor" stroke-linecap="round" stroke-linejoin="round" stroke-width="2" d="M11 17h3v2a1 1 0 0 0 1 1h2a1 1 0 0 0 1-1v-3a3.16 3.16 0 0 0 2-2h1a1 1 0 0 0 1-1v-2a1 1 0 0 0-1-1h-1a5 5 0 0 0-2-4V3a4 4 0 0 0-3.2 1.6l-.3.4H11a6 6 0 0 0-6 6v1a5 5 0 0 0 2 4v3a1 1 0 0 0 1 1h2a1 1 0 0 0 1-1zm5-7h.01M2 8v1a2 2 0 0 0 2 2h1"/></g><g transform="translate(89.5 409.5) scale(0.875)"><g fill="none" stroke="currentColor" stroke-linecap="round" stroke-linejoin="round" stroke-width="2"><path d="m15 14l5-5l-5-5"/><path d="M4 20v-7a4 4 0 0 1 4-4h12"/></g></g><g transform="translate(129.5 409.5) scale(0.875)"><path fill="none" stroke="currentColor" stroke-linecap="round" stroke-linejoin="round" stroke-width="2" d="M5 6a4 4 0 0 1 4-4h6a4 4 0 0 1 4 4v14a2 2 0 0 1-2 2H7a2 2 0 0 1-2-2zm0 4h14m-4-3v6"/></g><g transform="translate(169.5 409.5) scale(0.875)"><path fill="none" stroke="currentColor" stroke-linecap="round" stroke-linejoin="round" stroke-width="2" d="m16 6l-8.414 8.586a2 2 0 0 0 2.829 2.829l8.414-8.586a4 4 0 1 0-5.657-5.657l-8.379 8.551a6 6 0 1 0 8.485 8.485l8.379-8.551"/></g><g transform="translate(209.5 409.5) scale(0.875)"><g fill="none" stroke="currentColor" stroke-linecap="round" stroke-linejoin="round" stroke-width="2"><path d="M12 15v7m-3-3h6"/><circle cx="12" cy="9" r="6"/></g></g><g transform="translate(249.5 409.5) scale(0.875)"><path fill="none" stroke="currentColor" stroke-linecap="round" stroke-linejoin="round" stroke-width="2" d="M16.17 7.83L2 22m2.02-10a2.827 2.827 0 1 1 3.81-4.17A2.827 2.827 0 1 1 12 4.02a2.827 2.827 0 1 1 4.17 3.81A2.827 2.827 0 1 1 19.98 12a2.827 2.827 0 1 1-3.81 4.17A2.827 2.827 0 1 1 12 19.98a2.827 2.827 0 1 1-4.17-3.81A1 1 0 1 1 4 12m3.83-4.17l8.34 8.34"/></g><g transform="translate(289.5 409.5) scale(0.875)"><g fill="none" stroke="currentColor" stroke-linecap="round" stroke-linejoin="round" stroke-width="2"><path d="M5 7a2 2 0 0 0-2 2v11"/><path d="M5.803 18H5a2 2 0 0 0 0 4h9.5a.5.5 0 0 0 .5-.5V21m-6-6V4a2 2 0 0 1 2-2h9.5a.5.5 0 0 1 .5.5v14a.5.5 0 0 1-.5.5H11a2 2 0 0 1 0-4h10"/></g></g><g transform="translate(329.5 409.5) scale(0.875)"><g fill="none" stroke="currentColor" stroke-linecap="round" stroke-linejoin="round" stroke-width="2"><circle cx="7" cy="12" r="3"/><path d="M10 9v6"/><circle cx="17" cy="12" r="3"/><path d="M14 7v8m8 2v1c0 .5-.5 1-1 1H3c-.5 0-1-.5-1-1v-1"/></g></g><g transform="translate(369.5 409.5) scale(0.875)"><path fill="none" stroke="currentColor" stroke-linecap="round" stroke-linejoin="round" stroke-width="2" d="M12 2a10 10 0 0 1 7.38 16.75M12 8v8m4-4H8M2.5 8.875a10 10 0 0 0-.5 3M2.83 16a10 10 0 0 0 2.43 3.4M4.636 5.235a10 10 0 0 1 .891-.857M8.644 21.42a10 10 0 0 0 7.631-.38"/></g><g transform="translate(409.5 409.5) scale(0.875)"><path fill="none" stroke="currentColor" stroke-linecap="round" stroke-linejoin="round" stroke-width="2" d="m10.5 20.5l10-10a4.95 4.95 0 1 0-7-7l-10 10a4.95 4.95 0 1 0 7 7m-2-12l7 7"/></g><g transform="translate(449.5 409.5) scale(0.875)"><g fill="none" stroke="currentColor" stroke-linecap="round" stroke-linejoin="round" stroke-width="2"><path d="M3 2h18"/><rect width="18" height="12" x="3" y="6" rx="2"/><path d="M3 22h18"/></g></g><g transform="translate(9.5 449.5) scale(0.875)"><g fill="none" stroke="currentColor" stroke-linecap="round" stroke-linejoin="round" stroke-width="2"><rect width="18" height="18" x="3" y="3" rx="2"/><path d="M8 12h8m-4 4l4-4l-4-4"/></g></g><g transform="translate(49.5 449.5) scale(0.875)"><g fill="none" stroke="currentColor" stroke-linecap="round" stroke-linejoin="round" stroke-width="2"><rect width="18" height="18" x="3" y="3" rx="2"/><path d="m16 10l-4 4l-4-4"/></g></g><g transform="translate(89.5 449.5) scale(0.875)"><path fill="none" stroke="currentColor" stroke-linecap="round" stroke-linejoin="round" stroke-width="2" d="M10 2v6.292a7 7 0 1 0 4 0V2M5 15h14M8.5 2h7"/></g><g transform="translate(129.5 449.5) scale(0.875)"><path fill="none" stroke="currentColor" stroke-linecap="round" stroke-linejoin="round" stroke-width="2" d="M10 18v-7m1.119-8.795a2 2 0 0 1 1.762 0l7.84 3.846A.5.5 0 0 1 20.5 7h-17a.5.5 0 0 1-.22-.949zM14 18v-7m4 7v-7M3 22h18M6 18v-7"/></g><g transform="translate(169.5 449.5) scale(0.875)"><g fill="none" stroke="currentColor" stroke-linecap="round" stroke-linejoin="round" stroke-width="2"><path d="M12 17c5 0 8-2.69 8-6H4c0 3.31 3 6 8 6m-4 4h8m-4-3v3M5.14 11a3.5 3.5 0 1 1 6.71 0"/><path d="M12.14 11a3.5 3.5 0 1 1 6.71 0"/><path d="M15.5 6.5a3.5 3.5 0 1 0-7 0"/></g></g><g transform="translate(209.5 449.5) scale(0.875)"><g fill="none" stroke="currentColor" stroke-linecap="round" stroke-linejoin="round" stroke-width="2"><rect width="18" height="18" x="3" y="3" rx="2"/><path d="m16 12l-4-4l-4 4m4 4V8"/></g></g><g transform="translate(249.5 449.5) scale(0.875)"><g fill="none" stroke="currentColor" stroke-linecap="round" stroke-linejoin="round" stroke-width="2"><path d="M10 11h4m-4 6V7h5"/><path d="M4 3a1 1 0 0 1 1-1a1.3 1.3 0 0 1 .7.2l.933.6a1.3 1.3 0 0 0 1.4 0l.934-.6a1.3 1.3 0 0 1 1.4 0l.933.6a1.3 1.3 0 0 0 1.4 0l.933-.6a1.3 1.3 0 0 1 1.4 0l.934.6a1.3 1.3 0 0 0 1.4 0l.933-.6A1.3 1.3 0 0 1 19 2a1 1 0 0 1 1 1v18a1 1 0 0 1-1 1a1.3 1.3 0 0 1-.7-.2l-.933-.6a1.3 1.3 0 0 0-1.4 0l-.934.6a1.3 1.3 0 0 1-1.4 0l-.933-.6a1.3 1.3 0 0 0-1.4 0l-.933.6a1.3 1.3 0 0 1-1.4 0l-.934-.6a1.3 1.3 0 0 0-1.4 0l-.933.6a1.3 1.3 0 0 1-.7.2a1 1 0 0 1-1-1zm4 12h5"/></g></g><g transform="translate(289.5 449.5) scale(0.875)"><rect width="12" height="20" x="6" y="2" fill="none" stroke="currentColor" stroke-linecap="round" stroke-linejoin="round" stroke-width="2" rx="2"/></g><g transform="translate(329.5 449.5) scale(0.875)"><g fill="none" stroke="currentColor" stroke-linecap="round" stroke-linejoin="round" stroke-width="2"><path d="m8 3l4 8l5-5l5 15H2z"/><path d="M4.14 15.08q3.93-2.355 7.86.42c2.74 1.94 5.49 2 8.23.19"/></g></g><g transform="translate(369.5 449.5) scale(0.875)"><g fill="none" stroke="currentColor" stroke-linecap="round" stroke-linejoin="round" stroke-width="2"><circle cx="12" cy="12" r="10"/><path d="M8 15h8M8 9h2m4 0h2"/></g></g><g transform="translate(409.5 449.5) scale(0.875)"><path fill="none" stroke="currentColor" stroke-linecap="round" stroke-linejoin="round" stroke-width="2" d="M10.5 2v4M14 2H7a2 2 0 0 0-2 2m14.29 10.76A6.67 6.67 0 0 1 17 11a6.6 6.6 0 0 1-2.29 3.76c-1.15.92-1.71 2.04-1.71 3.19c0 2.22 1.8 4.05 4 4.05s4-1.83 4-4.05c0-1.16-.57-2.26-1.71-3.19M9.607 21H6a2 2 0 0 1-2-2v-7a2 2 0 0 1 2-2h7V7a1 1 0 0 0-1-1H9a1 1 0 0 0-1 1v3"/></g><g transform="translate(449.5 449.5) scale(0.875)"><g fill="none" stroke="currentColor" stroke-linecap="round" stroke-linejoin="round" stroke-width="2"><path d="M12 7.318V10m7 0v5a7 7 0 0 1-14 0V9c0-3.527 2.608-6.515 6-7"/><circle cx="17" cy="4" r="2"/></g></g></svg>
