<!-- 自動生成ファイル。編集禁止。再生成は pnpm run build-bg-icons を実行する。 -->
<svg xmlns="http://www.w3.org/2000/svg" viewBox="0 0 480 480"><g transform="translate(9.5 9.5) scale(0.875)"><path fill="none" stroke="currentColor" stroke-linecap="round" stroke-linejoin="round" stroke-width="2" d="M9 6a1 1 0 0 1 1-1h4a1 1 0 0 1 1 1v4a1 1 0 0 1-1 1h-4a1 1 0 0 1-1-1zM4 7h1m-1 4h1m14-4h1m-1 4h1M4 15h16M4 19h16"/></g><g transform="translate(49.5 9.5) scale(0.875)"><g fill="none" stroke="currentColor" stroke-linecap="round" stroke-linejoin="round" stroke-width="2"><path d="M5 11a2 2 0 0 1 2 2v2h10v-2a2 2 0 1 1 4 0v4a2 2 0 0 1-2 2H5a2 2 0 0 1-2-2v-4a2 2 0 0 1 2-2"/><path d="M5 11V6a3 3 0 0 1 3-3h8a3 3 0 0 1 3 3v5M6 19v2m12-2v2"/></g></g><g transform="translate(89.5 9.5) scale(1.3125)"><path fill="currentColor" fill-rule="evenodd" d="M0 5a2 2 0 0 1 2-2h7.5a2 2 0 0 1 1.983 1.738l3.11-1.382A1 1 0 0 1 16 4.269v7.462a1 1 0 0 1-1.406.913l-3.111-1.382A2 2 0 0 1 9.5 13H2a2 2 0 0 1-2-2z"/></g><g transform="translate(129.5 9.5) scale(1.3125)"><path fill="currentColor" fill-rule="evenodd" d="M14 4.5V14a2 2 0 0 1-2 2H8v-1h4a1 1 0 0 0 1-1V4.5h-2A1.5 1.5 0 0 1 9.5 3V1H4a1 1 0 0 0-1 1v9H2V2a2 2 0 0 1 2-2h5.5zM0 11.85h1.597q.446 0 .758.158q.315.155.478.44q.167.284.167.668a1.18 1.18 0 0 1-.727 1.122l.803 1.611h-.885l-.7-1.491H.782v1.491H0zm.782.621v1.292h.689q.327 0 .518-.158q.195-.159.194-.475q0-.32-.194-.489a.74.74 0 0 0-.507-.17zm4.426 3.378H3.544V11.85h1.67q.536 0 .858.26q.322.262.322.724a.94.94 0 0 1-.09.422a.8.8 0 0 1-.244.293a1 1 0 0 1-.351.161v.035q.243.024.445.141a.85.85 0 0 1 .322.325a1 1 0 0 1 .123.51q0 .357-.178.61q-.18.25-.492.386a1.9 1.9 0 0 1-.721.132m-.179-3.404h-.7v1.07h.521q.267 0 .434-.065a.5.5 0 0 0 .249-.185a.5.5 0 0 0 .082-.296a.49.49 0 0 0-.155-.384q-.153-.14-.43-.14Zm.05 1.62h-.75v1.19h.589q.466 0 .67-.147a.5.5 0 0 0 .206-.434a.6.6 0 0 0-.082-.325a.5.5 0 0 0-.24-.21a.95.95 0 0 0-.393-.074"/></g><g transform="translate(169.5 9.5) scale(0.4375)"><path fill="none" stroke="currentColor" stroke-linecap="round" stroke-linejoin="round" stroke-width="4" d="M22.27 6.99c.77-1.33 2.69-1.33 3.46 0l18.532 32.008c.772 1.333-.19 3.002-1.73 3.002H5.468c-1.54 0-2.503-1.669-1.731-3.002z" clip-rule="evenodd"/></g><g transform="translate(209.5 9.5) scale(0.875)"><g fill="none" stroke="currentColor" stroke-linecap="round" stroke-linejoin="round" stroke-width="1.5"><path d="M12 22c5.523 0 10-4.477 10-10S17.523 2 12 2C7.522 2 3.774 4.943 2.5 9H5"/><path d="M12 8v4l2 2M2 12q0 .505.045 1M9 22a10 10 0 0 1-1-.392M3.21 17a11 11 0 0 1-.515-1.154m2.136 3.46q.46.495.977.923"/></g></g><g transform="translate(249.5 9.5) scale(0.875)"><path fill="currentColor" d="M19.25 4q-.2 0-.35.15t-.15.35v3q0 .2.15.35t.35.15t.35-.15t.15-.35v-3q0-.2-.15-.35T19.25 4m-2.5 0q-.2 0-.35.15t-.15.35v3q0 .2.15.35t.35.15t.35-.15t.15-.35v-3q0-.2-.15-.35T16.75 4M20 20h-4.05q-.425 0-.712-.288T14.95 19t.288-.712t.712-.288H20v-4q0-.425.288-.712T21 13t.713.288T22 14v4q0 .825-.587 1.413T20 20M3 7.15q-.425 0-.712-.288T2 6.15V6q0-.825.588-1.412T4 4h6q.425 0 .713.288T11 5t-.288.713T10 6H4v.15q0 .425-.288.713T3 7.15m11.463 2.388Q13 8.075 13 6t1.463-3.537T18 1t3.538 1.463T23 6t-1.463 3.538T18 11t-3.537-1.463M3.5 20q-.625 0-1.062-.437T2 18.5t.438-1.062T3.5 17t1.063.438T5 18.5t-.437 1.063T3.5 20M8 20q-.4 0-.7-.238t-.375-.637Q6.65 17.55 5.513 16.45T2.8 15.075q-.375-.05-.587-.362T2 14q0-.425.263-.712t.637-.238q2.35.3 4.025 1.975t2 4.025q.05.4-.225.675T8 20m4 0q-.425 0-.712-.275t-.338-.7q-.35-3.2-2.612-5.425t-5.463-2.55q-.4-.05-.638-.35T2 10q0-.425.263-.725t.637-.25q4.025.325 6.85 3.138t3.2 6.812q.05.425-.237.725T12 20"/></g><g transform="translate(289.5 9.5) scale(0.875)"><path fill="currentColor" d="M14 5H5v2h7v10.172l-3.95-3.95l-1.414 1.414L13 21l6.364-6.364l-1.414-1.414l-3.95 3.95z"/></g><g transform="translate(329.5 9.5) scale(0.875)"><g fill="none" stroke="currentColor" stroke-linecap="round" stroke-linejoin="round" stroke-width="2"><path d="M3.85 8.62a4 4 0 0 1 4.78-4.77a4 4 0 0 1 6.74 0a4 4 0 0 1 4.78 4.78a4 4 0 0 1 0 6.74a4 4 0 0 1-4.77 4.78a4 4 0 0 1-6.75 0a4 4 0 0 1-4.78-4.77a4 4 0 0 1 0-6.76M8 8h8m-8 4h8"/><path d="m13 17l-5-1h1a4 4 0 0 0 0-8"/></g></g><g transform="translate(369.5 9.5) scale(0.875)"><g fill="none" stroke="currentColor" stroke-width="1.5"><path stroke-linejoin="round" d="M21 17.4c0 1.697 0 2.546-.65 3.073c-.652.527-1.7.527-3.794.527h-1.112c-2.095 0-3.142 0-3.793-.527S11 19.097 11 17.4V6.6c0-1.697 0-2.546.65-3.073C12.303 3 13.35 3 15.445 3h1.112c2.095 0 3.142 0 3.793.527S21 4.903 21 6.6zM3 5.041c0-.962 0-1.443.293-1.742S4.057 3 5 3s1.414 0 1.707.299S7 4.079 7 5.04v10.847c0 .907 0 1.36-.076 1.8a5.2 5.2 0 0 1-.346 1.167c-.176.408-.422.785-.915 1.54c-.22.337-.33.505-.468.565a.5.5 0 0 1-.39 0c-.138-.06-.248-.228-.468-.565c-.493-.755-.74-1.132-.915-1.54a5.2 5.2 0 0 1-.346-1.167C3 17.248 3 16.795 3 15.888z"/><path stroke-linecap="round" stroke-linejoin="round" d="M11.5 16.5h2m-2-4.5h2m-2-4.5h2"/><path d="M7 7c0 .552-.895 1-2 1s-2-.448-2-1"/></g></g><g transform="translate(409.5 9.5) scale(0.875)"><path fill="currentColor" d="M3 3h18a1 1 0 0 1 1 1v16a1 1 0 0 1-1 1H3a1 1 0 0 1-1-1V4a1 1 0 0 1 1-1m6 9a3 3 0 1 0 6 0h5V5H4v7z"/></g><g transform="translate(449.5 9.5) scale(0.65625)"><path fill="currentColor" d="M28 4h-3v2l3-.001V26h-3v2h3c1.103 0 2-.897 2-2V6c0-1.103-.897-2-2-2"/><circle cx="16" cy="17" r="2" fill="currentColor"/><path fill="currentColor" d="M22 4v24c0 1.103-.897 2-2 2H4c-1.103 0-2-.897-2-2V4c0-1.103.897-2 2-2h16c1.103 0 2 .897 2 2M4 28h16V3.999L4 4z"/></g><g transform="translate(9.5 49.5) scale(0.4375)"><g fill="none" stroke="currentColor" stroke-width="4"><circle cx="16" cy="10" r="4"/><path stroke-linecap="round" stroke-linejoin="round" d="M28 38H13c-4 0-7-2.917-7-7s3-7 7-7h7m0 0h15c4 0 7-2.917 7-7s-3-7-7-7H20M6 10h6m24 28h6"/><circle cx="32" cy="38" r="4"/></g></g><g transform="translate(49.5 49.5) scale(0.65625)"><path fill="currentColor" d="m25.29 19.29l-1.41 1.42L26.17 23H5.83l2.29-2.29l-1.41-1.42L2 24l4.71 4.71l1.41-1.42L5.83 25h20.34l-2.29 2.29l1.41 1.42L30 24zM26 17h2L23 3h-2l-5 14h2l1-3h6Zm-6.33-5L22 5l2.33 7ZM14 3l-4 12L6 3H4l5 14h2l5-14z"/></g><g transform="translate(89.5 49.5) scale(0.4375)"><g fill="none" stroke="currentColor" stroke-linecap="round" stroke-linejoin="round" stroke-width="4"><path d="m30 36l5-5l-5-5m8 10l5-5l-5-5"/><path d="M43 22V9a2 2 0 0 0-2-2H7a2 2 0 0 0-2 2v30a2 2 0 0 0 2 2h21.47"/><path d="m13 15l5 6l5-6M12 27h12m-12-6h12m-6 0v12"/></g></g><g transform="translate(129.5 49.5) scale(0.875)"><path fill="currentColor" d="M22 12c0 5.523-4.477 10-10 10S2 17.523 2 12S6.477 2 12 2s10 4.477 10 10m-10.88 5.49c.05.01.13.01.13.01v.01c.36 0 .68-.25.74-.62c.86-5.12 3.8-8.61 3.83-8.64c.19-.22.23-.53.11-.8a.75.75 0 0 0-.68-.44h-6.5c-.41 0-.75.34-.75.75s.34.75.75.75h5.01c-1.03 1.53-2.63 4.41-3.26 8.12c-.06.4.21.79.62.86"/></g><g transform="translate(169.5 49.5) scale(0.875)"><g fill="none" stroke="currentColor" stroke-linecap="round" stroke-width="1.5"><path stroke-linejoin="round" d="M16.998 7.127Q17.48 7 18 7a4 4 0 1 1-1.027 7.867m.025-7.74L17 7a4 4 0 0 0-7.91-.85m7.908.977A4 4 0 0 1 16.465 9m.508 5.867q.027-.18.027-.367a2.5 2.5 0 0 0-2-2.45m1.973 2.817A2.5 2.5 0 0 1 14.5 17H14a4 4 0 0 0-4 4M9.09 6.15a4 4 0 0 0-4.932 4.97M9.09 6.15A4 4 0 0 1 11.465 8m-7.306 3.12A3.001 3.001 0 0 0 5 17a3 3 0 0 0 2.83-2m-3.671-3.88q.136.467.376.88"/><path d="M11.836 11.744c-.51.491-1.383.576-2.129.157c-.746-.42-1.127-1.21-.972-1.901"/></g></g><g transform="translate(209.5 49.5) scale(0.875)"><path fill="currentColor" d="M5 21q-.825 0-1.412-.587T3 19V5q0-.825.588-1.412T5 3h14q.825 0 1.413.588T21 5v14q0 .825-.587 1.413T19 21zm7-3q2.425-2.05 3.613-3.812t1.187-3.263q0-2.275-1.45-3.6T12 6T8.65 7.325t-1.45 3.6q0 1.5 1.188 3.263T12 18m-.888-6.113q-.362-.362-.362-.887t.363-.888T12 9.75t.888.363t.362.887t-.363.888t-.887.362t-.888-.363"/></g><g transform="translate(249.5 49.5) scale(0.875)"><g fill="none" stroke="currentColor" stroke-linecap="round" stroke-linejoin="round" stroke-width="2"><path d="m21 8l-2.26-2.26A9.75 9.75 0 0 0 12 3c-1 0-1.97.16-2.87.47M8 16H3v5m0-9c0-2.49 1-4.74 2.64-6.36"/><path d="m3 16l2.26 2.26A9.75 9.75 0 0 0 12 21c2.49 0 4.74-1 6.36-2.64M21 12c0 1-.16 1.97-.47 2.87M21 3v5h-5m6 14L2 2"/></g></g><g transform="translate(289.5 49.5) scale(0.875)"><g fill="none" stroke="currentColor" stroke-linecap="round" stroke-linejoin="round" stroke-width="2"><path d="M5 13a7 7 0 1 0 14 0a7 7 0 1 0-14 0"/><path d="M12 10v3h2M7 4L4.25 6M17 4l2.75 2"/></g></g><g transform="translate(329.5 49.5) scale(0.875)"><g fill="none" stroke="currentColor" stroke-width="1.5"><path d="M12 22c5.523 0 10-4.477 10-10S17.523 2 12 2S2 6.477 2 12s4.477 10 10 10Z"/><path stroke-linecap="round" stroke-linejoin="round" d="M14.515 12.504c-.53-.531-1.824-2.509-2.57-2.498c-.737.08-1.914 2.003-2.434 2.508m2.524 4.49l-.014-6.993M8 7.01l7.992-.016"/></g></g><g transform="translate(369.5 49.5) scale(0.875)"><g fill="none" stroke="currentColor" stroke-linecap="round" stroke-linejoin="round" stroke-width="2"><path d="M9 5h10a2 2 0 0 1 2 2v10m-2 2H5a2 2 0 0 1-2-2V7a2 2 0 0 1 2-2"/><path d="M7 12V9h2m8 3v1m-2 2h-1M3 3l18 18"/></g></g><g transform="translate(409.5 49.5) scale(0.65625)"><path fill="currentColor" d="M8 14h11v2H8Zm0 5h13v2H8Z"/><path fill="currentColor" d="M28 4H4a2 2 0 0 0-2 2v20a2 2 0 0 0 2 2h24a2 2 0 0 0 2-2V6a2 2 0 0 0-2-2m0 2v2H4V6ZM4 26V10h24v16Z"/></g><g transform="translate(449.5 49.5) scale(0.875)"><path fill="currentColor" d="M3.005 3.003h18a1 1 0 0 1 1 1v16a1 1 0 0 1-1 1h-18a1 1 0 0 1-1-1v-16a1 1 0 0 1 1-1m11.793 6.793l-2.45 2.45l-2.121-2.122l-4.243 4.243l1.414 1.414l2.829-2.828l2.121 2.12l3.864-3.863l1.793 1.793v-5h-5z"/></g><g transform="translate(9.5 89.5) scale(0.08203125)"><path fill="currentColor" d="M208 88v88a8 8 0 0 1-16 0V88a48 48 0 0 0-96 0v116.69l34.34-34.35a8 8 0 0 1 11.32 11.32l-48 48a8 8 0 0 1-11.32 0l-48-48a8 8 0 0 1 11.32-11.32L80 204.69V88a64 64 0 0 1 128 0"/></g><g transform="translate(49.5 89.5) scale(1.3125)"><path fill="currentColor" d="M2.5 3.5A1.5 1.5 0 0 1 4 2h4.879a1.5 1.5 0 0 1 1.06.44l3.122 3.12a1.5 1.5 0 0 1 .439 1.061V12.5A1.5 1.5 0 0 1 12 14H4a1.5 1.5 0 0 1-1.5-1.5z"/></g><g transform="translate(89.5 89.5) scale(0.875)"><path fill="currentColor" fill-rule="evenodd" d="M2.25 5A2.75 2.75 0 0 1 5 2.25h14A2.75 2.75 0 0 1 21.75 5v10A2.75 2.75 0 0 1 19 17.75H7.961c-.38 0-.739.173-.976.47l-2.33 2.913c-.798.996-2.405.433-2.405-.843zM12 6.25a.75.75 0 0 1 .75.75v2a.75.75 0 0 1-1.5 0V7a.75.75 0 0 1 .75-.75m.567 7.251a.75.75 0 1 0-1.114-1.004l-.01.011a.75.75 0 1 0 1.114 1.004z" clip-rule="evenodd"/></g><g transform="translate(129.5 89.5) scale(1.3125)"><path fill="currentColor" d="M3.665 3.588A2 2 0 0 1 5.622 2h4.754a2 2 0 0 1 1.958 1.588l1.098 5.218a3.5 3.5 0 0 0-1.433-.306H4a3.5 3.5 0 0 0-1.433.306z"/><path fill="currentColor" fill-rule="evenodd" d="M4 10a2 2 0 1 0 0 4h8a2 2 0 1 0 0-4zm8 2.75a.75.75 0 1 0 0-1.5a.75.75 0 0 0 0 1.5M9.75 12a.75.75 0 1 1-1.5 0a.75.75 0 0 1 1.5 0" clip-rule="evenodd"/></g><g transform="translate(169.5 89.5) scale(0.65625)"><path fill="currentColor" d="M26.002 4H5.998A2 2 0 0 0 4 5.998v20.004A2 2 0 0 0 5.998 28h20.004A2 2 0 0 0 28 26.002V5.998A2 2 0 0 0 26.002 4M14.875 8h2.25v10h-2.25ZM16 24a1.5 1.5 0 1 1 1.5-1.5A1.5 1.5 0 0 1 16 24"/><path fill="none" d="M14.875 8h2.25v10h-2.25ZM16 24a1.5 1.5 0 1 1 1.5-1.5A1.5 1.5 0 0 1 16 24"/></g><g transform="translate(209.5 89.5) scale(0.875)"><g fill="none" fill-rule="evenodd"><path d="m12.594 23.258l-.012.002l-.071.035l-.02.004l-.014-.004l-.071-.036q-.016-.004-.024.006l-.004.01l-.017.428l.005.02l.01.013l.104.074l.015.004l.012-.004l.104-.074l.012-.016l.004-.017l-.017-.427q-.004-.016-.016-.018m.264-.113l-.014.002l-.184.093l-.01.01l-.003.011l.018.43l.005.012l.008.008l.201.092q.019.005.029-.008l.004-.014l-.034-.614q-.005-.019-.02-.022m-.715.002a.02.02 0 0 0-.027.006l-.006.014l-.034.614q.001.018.017.024l.015-.002l.201-.093l.01-.008l.003-.011l.018-.43l-.003-.012l-.01-.01z"/><path fill="currentColor" d="M12.707 4.222a6 6 0 0 0-8.485 8.485l7.07 7.072a6 6 0 0 0 8.486-8.486L18.364 9.88l-.033-.032l-5.624-5.625Zm1.08 3.909l-2.494-2.495a4 4 0 1 0-5.657 5.657l2.495 2.495a5.98 5.98 0 0 1 1.748-3.91a5.98 5.98 0 0 1 3.908-1.747m-1.08 10.233a4 4 0 0 0 5.657-5.657l-1.44-1.44a4 4 0 0 0-5.631 5.683z"/></g></g><g transform="translate(249.5 89.5) scale(0.875)"><path fill="currentColor" d="M19 3H5c-1.1 0-2 .9-2 2v14c0 1.1.9 2 2 2h14c1.1 0 2-.9 2-2V5c0-1.1-.9-2-2-2m-7 13v-3H8v-2h4V8l4 4z"/></g><g transform="translate(289.5 89.5) scale(0.4375)"><path fill="currentColor" d="M43 36c1.657 0 3 1.341 3 2.998v.502c0 3.5-3.15 6.5-9 6.5s-9-3-9-6.5v-.502A3 3 0 0 1 31 36zM35.75 6A6.25 6.25 0 0 1 42 12.25v11.852a7 7 0 0 0-2.5-1.641V12.25a3.75 3.75 0 0 0-3.75-3.75h-23.5a3.75 3.75 0 0 0-3.75 3.75v23.5a3.75 3.75 0 0 0 3.75 3.75H26c0 .867.146 1.707.423 2.5H12.25A6.25 6.25 0 0 1 6 35.75v-23.5A6.25 6.25 0 0 1 12.25 6zM37 24a5 5 0 1 1 0 10a5 5 0 0 1 0-10m-17.134 2.616a1.25 1.25 0 0 1 1.768 1.768l-4.25 4.25a1.25 1.25 0 0 1-1.768 0l-2.25-2.25a1.25 1.25 0 0 1 1.673-1.854l.095.086l1.366 1.366zM30.02 28.5a7 7 0 0 0 .273 2.5H26.25a1.25 1.25 0 1 1 0-2.5zM19.866 15.616a1.25 1.25 0 0 1 1.768 1.768l-4.25 4.25a1.25 1.25 0 0 1-1.768 0l-2.25-2.25a1.25 1.25 0 0 1 1.673-1.854l.095.086l1.366 1.366zM33.75 17a1.25 1.25 0 1 1 0 2.5h-7.5a1.25 1.25 0 1 1 0-2.5z"/></g><g transform="translate(329.5 89.5) scale(0.875)"><path fill="currentColor" d="m14.712 2.289l-.087-.078a1 1 0 0 0-1.327.078l-.078.087a1 1 0 0 0 .078 1.326l1.299 1.297H8.999l-.24.004A6.997 6.997 0 0 0 2 11.993a6.94 6.94 0 0 0 1.189 3.899a.999.999 0 0 0 1.626-1.163l-.135-.218A4.997 4.997 0 0 1 9 6.998h5.595l-1.297 1.297l-.078.087a.999.999 0 0 0 1.492 1.326l3.006-3.003l.077-.087a1 1 0 0 0-.078-1.326zm6.075 5.771A.999.999 0 0 0 19 8.677c0 .209.064.402.172.561a4.997 4.997 0 0 1-4.17 7.75H9.414l1.294-1.29l.083-.096a1 1 0 0 0-.006-1.23l-.077-.088l-.095-.084a1 1 0 0 0-1.232.006l-.088.078l-3.005 3.003l-.083.095a1 1 0 0 0 .006 1.231l.077.087l3.005 3.003l.095.084a1 1 0 0 0 1.397-1.41l-.077-.087l-1.304-1.303H15l.24-.003a6.997 6.997 0 0 0 5.546-10.927z"/></g><g transform="translate(369.5 89.5) scale(0.08203125)"><g fill="currentColor"><path d="M200 40v160a8 8 0 0 1-8 8H32a8 8 0 0 1-5.66-13.66l160-160A8 8 0 0 1 200 40" opacity=".2"/><path d="M198.12 25.23a16 16 0 0 0-17.44 3.46l-160 160A16 16 0 0 0 32 216h160a16 16 0 0 0 16-16V40a15.94 15.94 0 0 0-9.88-14.77M192 200H32L192 40Z"/></g></g><g transform="translate(409.5 89.5) scale(0.875)"><path fill="currentColor" d="M22.02 8.75c-.37-1.57-1.36-2.89-2.78-3.71c-.23-.13-.5-.17-.76-.1s-.47.24-.61.47c-.27.46-.7.79-1.21.93s-1.05.07-1.52-.2l-4.33-2.5c-.48-.28-1.09-.11-1.37.37l-2.5 4.33c-.28.48-.11 1.09.37 1.37l4.33 2.5c.46.27.79.7.93 1.21c.14.52.07 1.05-.2 1.52c-.13.23-.17.5-.1.76s.24.47.47.61c.92.53 1.93.8 2.94.8c.56 0 1.12-.08 1.66-.25c1.56-.47 2.93-1.6 3.84-3.18s1.21-3.33.83-4.92ZM5.54 10.78L1.95 17c-.13.23-.17.5-.1.76s.24.47.47.61l2.38 1.37c.16.09.33.13.5.13c.35 0 .68-.18.87-.5l3.5-6.06l-3.24-1.87c-.3-.17-.56-.4-.78-.66Z"/></g><g transform="translate(449.5 89.5) scale(0.875)"><path fill="currentColor" fill-rule="evenodd" d="M3.97 3.97a.75.75 0 0 1 1.06 0l13.72 13.72V8.25a.75.75 0 0 1 1.5 0V19.5a.75.75 0 0 1-.75.75H8.25a.75.75 0 0 1 0-1.5h9.44L3.97 5.03a.75.75 0 0 1 0-1.06" clip-rule="evenodd"/></g><g transform="translate(9.5 129.5) scale(1.05)"><path fill="currentColor" d="M2 6a2 2 0 0 1 2-2h12a2 2 0 0 1 2 2v8a2 2 0 0 1-2 2H4a2 2 0 0 1-2-2zm2-1a1 1 0 0 0-1 1v8a1 1 0 0 0 1 1h5.5V5zm12 10a1 1 0 0 0 1-1V6a1 1 0 0 0-1-1h-5.5v10zm-4.5-1a.5.5 0 1 0 0-1a.5.5 0 0 0 0 1m2.5-.5a.5.5 0 1 1-1 0a.5.5 0 0 1 1 0m1.5.5a.5.5 0 1 0 0-1a.5.5 0 0 0 0 1"/></g><g transform="translate(49.5 129.5) scale(0.875)"><path fill="none" stroke="currentColor" stroke-linecap="round" stroke-linejoin="round" stroke-width="2" d="M12 18V6m5 4v3a1 1 0 0 0 1 1h3m0-4v8M4 12h8m-8 6V6"/></g><g transform="translate(89.5 129.5) scale(1.3125)"><path fill="currentColor" d="M8.5 1.75v2.716l.047-.002c.312-.012.742-.016 1.051.046c.28.056.543.18.738.288c.273.152.456.385.56.642l.132-.012c.312-.024.794-.038 1.158.108c.37.148.689.487.88.716q.113.137.195.248h.582a2 2 0 0 1 1.99 2.199l-.272 2.715a3.5 3.5 0 0 1-.444 1.389l-1.395 2.441A1.5 1.5 0 0 1 12.42 16H6.118a1.5 1.5 0 0 1-1.342-.83l-1.215-2.43L1.07 8.589a1.517 1.517 0 0 1 2.373-1.852L5 8.293V1.75a1.75 1.75 0 0 1 3.5 0"/></g><g transform="translate(129.5 129.5) scale(0.875)"><path fill="currentColor" d="M4 11h10v2H4zm0-5h16v2H4zm0 10h10v2H4zm12 4l6-4l-6-4z"/></g><g transform="translate(169.5 129.5) scale(0.875)"><path fill="currentColor" d="M14.36 14.23a3.76 3.76 0 0 1-4.72 0a1 1 0 0 0-1.28 1.54a5.68 5.68 0 0 0 7.28 0a1 1 0 1 0-1.28-1.54M9 11a1 1 0 1 0-1-1a1 1 0 0 0 1 1m6-2a1 1 0 1 0 1 1a1 1 0 0 0-1-1m-3-7a10 10 0 1 0 10 10A10 10 0 0 0 12 2m0 18a8 8 0 1 1 8-8a8 8 0 0 1-8 8"/></g><g transform="translate(209.5 129.5) scale(0.875)"><path fill="none" stroke="currentColor" stroke-linecap="round" stroke-linejoin="round" stroke-width="1.5" d="m15 11.25l1.5 1.5l.75-.75V8.758l2.276-.61a3 3 0 1 0-3.675-3.675l-.61 2.277H12l-.75.75l1.5 1.5M15 11.25l-8.47 8.47c-.34.34-.8.53-1.28.53s-.94.19-1.28.53l-.97.97l-.75-.75l.97-.97c.34-.34.53-.8.53-1.28s.19-.94.53-1.28L12.75 9M15 11.25L12.75 9"/></g><g transform="translate(249.5 129.5) scale(0.875)"><g fill="none" stroke="currentColor" stroke-linecap="round" stroke-linejoin="round" stroke-width="2"><path d="M12 13a3 3 0 1 0 0-6a3 3 0 0 0 0 6"/><path d="M12 3c7.2 0 9 1.8 9 9s-1.8 9-9 9s-9-1.8-9-9s1.8-9 9-9"/><path d="M6 20.05V20a4 4 0 0 1 4-4h4a4 4 0 0 1 4 4v.05"/></g></g><g transform="translate(289.5 129.5) scale(0.875)"><g fill="none" fill-rule="evenodd"><path d="m12.593 23.258l-.011.002l-.071.035l-.02.004l-.014-.004l-.071-.035q-.016-.005-.024.005l-.004.01l-.017.428l.005.02l.01.013l.104.074l.015.004l.012-.004l.104-.074l.012-.016l.004-.017l-.017-.427q-.004-.016-.017-.018m.265-.113l-.013.002l-.185.093l-.01.01l-.003.011l.018.43l.005.012l.008.007l.201.093q.019.005.029-.008l.004-.014l-.034-.614q-.005-.018-.02-.022m-.715.002a.02.02 0 0 0-.027.006l-.006.014l-.034.614q.001.018.017.024l.015-.002l.201-.093l.01-.008l.004-.011l.017-.43l-.003-.012l-.01-.01z"/><path fill="currentColor" d="M5.412 2.286a1.47 1.47 0 0 1 1.445.159C8.12 3.366 9.076 4.66 9.89 5.849l.638.938a1.505 1.505 0 0 1-.08 1.806l-.097.107l-1.356 1.356l.143.304c.35.709.954 1.73 1.863 2.64a10 10 0 0 0 2.104 1.58l.367.197l.327.162l.146.067L15.3 13.65a1.5 1.5 0 0 1 1.918-.171l1.014.703c1.152.81 2.355 1.733 3.29 2.931a1.47 1.47 0 0 1 .189 1.485c-.837 1.953-2.955 3.616-5.158 3.534l-.3-.016l-.233-.02l-.258-.03l-.281-.038l-.305-.051l-.326-.064l-.346-.077l-.366-.094l-.385-.11l-.402-.13c-1.846-.626-4.189-1.856-6.593-4.26s-3.633-4.746-4.259-6.592l-.13-.402l-.11-.385l-.094-.366l-.078-.346a12 12 0 0 1-.063-.326l-.05-.305l-.04-.281l-.029-.258l-.02-.233l-.016-.3c-.081-2.196 1.6-4.329 3.544-5.162Zm.517 1.967c-1.072.56-2.11 1.84-2.063 3.121l.02.328l.022.205l.029.23l.04.253l.051.277l.065.298l.08.32l.096.339l.114.358q.063.183.134.375l.154.392l.176.407c.628 1.382 1.652 3 3.325 4.672c1.672 1.672 3.29 2.697 4.672 3.325l.407.176l.392.154q.192.072.375.134l.358.114l.34.096l.319.08l.298.065l.277.051l.254.04l.23.03l.204.02l.328.02c1.264.047 2.554-.985 3.112-2.043c-.712-.835-1.596-1.52-2.571-2.21l-.748-.521l-.19.199l-.406.443l-.215.226c-.586.597-1.27 1.104-2.09.773l-.226-.095l-.276-.124l-.154-.073l-.338-.169l-.371-.2a12 12 0 0 1-2.567-1.925a12 12 0 0 1-1.925-2.567l-.2-.37l-.17-.339l-.196-.43L7 10.48c-.311-.769.117-1.418.664-1.98l.224-.22l.557-.513l.2-.19l-.473-.693c-.703-1.02-1.39-1.94-2.243-2.632ZM20 3a1 1 0 0 1 1 1v4a1 1 0 1 1-2 0V6.414l-3.293 3.293a1 1 0 0 1-1.414-1.414L17.586 5H16a1 1 0 1 1 0-2z"/></g></g><g transform="translate(329.5 129.5) scale(1.05)"><path fill="currentColor" d="M6.28 5.22a.75.75 0 0 0-1.06 1.06L8.94 10l-3.72 3.72a.75.75 0 1 0 1.06 1.06L10 11.06l3.72 3.72a.75.75 0 1 0 1.06-1.06L11.06 10l3.72-3.72a.75.75 0 0 0-1.06-1.06L10 8.94z"/></g><g transform="translate(369.5 129.5) scale(0.875)"><g fill="none" stroke="currentColor" stroke-linecap="round" stroke-linejoin="round" stroke-width="2"><path d="M16.69 7.44a6.97 6.97 0 0 0-1.63 3.635"/><path d="M2 9.504c5.307 5.948 10.293 8.57 14.597 7.1m2.583-1.449c.988-.788 1.93-1.836 2.82-3.153c-3-4.443-6.596-5.812-10.564-4.548M8.672 8.72C6.527 9.986 4.294 11.935 2 14.506M18 11v.01m-6.847.159q-.43 1.166.347 2.331M3 3l18 18"/></g></g><g transform="translate(409.5 129.5) scale(0.08203125)"><path fill="currentColor" d="M160 208a12 12 0 0 1-12 12h-28a12 12 0 0 1-12-12v-56a12 12 0 0 1 24 0v44h16a12 12 0 0 1 12 12m-69-65.78A12 12 0 0 0 74.24 145L64 159.34L53.77 145a12 12 0 1 0-19.53 14l15 21l-15 21a12 12 0 1 0 19.53 14L64 200.62L74.24 215a12 12 0 0 0 19.53-14l-15-21l15-21A12 12 0 0 0 91 142.22m122.53 32.05c-5.12-3.45-11.32-5.24-16.79-6.82a80 80 0 0 1-7.92-2.59c2.45-1.18 9.71-1.3 16.07.33A12 12 0 0 0 211 142a69 69 0 0 0-12-1.86c-9.93-.66-18 1.08-24.1 5.17a24.45 24.45 0 0 0-10.69 17.76c-1.1 8.74 2.49 16.27 10.11 21.19c4.78 3.09 10.36 4.7 15.75 6.26c3 .89 7.94 2.3 9.88 3.53a2.5 2.5 0 0 1-.21.71c-1.37 1.55-9.58 1.79-16.39-.06a12 12 0 1 0-6.46 23.11A63.8 63.8 0 0 0 193.1 220c6.46 0 13.73-1.17 19.73-5.15a24.73 24.73 0 0 0 10.95-18c1.22-9.32-2.45-17.32-10.27-22.58ZM36 108V40a20 20 0 0 1 20-20h96a12 12 0 0 1 8.49 3.51l56 56A12 12 0 0 1 220 88v20a12 12 0 1 1-24 0v-4h-48a12 12 0 0 1-12-12V44H60v64a12 12 0 1 1-24 0m124-28h23l-23-23Z"/></g><g transform="translate(449.5 129.5) scale(0.875)"><path fill="none" stroke="currentColor" stroke-linecap="round" stroke-linejoin="round" stroke-width="2" d="M13 3H4a2 2 0 0 0-2 2v10a2 2 0 0 0 2 2h16a2 2 0 0 0 2-2v-3M8 21h8m-4-4v4M22 3l-5 5m0-5l5 5"/></g><g transform="translate(9.5 169.5) scale(0.875)"><path fill="none" stroke="currentColor" stroke-linecap="round" stroke-linejoin="round" stroke-width="1.5" d="M9 6v12m6-12v12M9 6a3 3 0 1 0-3 3h12a3 3 0 1 0-3-3M9 18a3 3 0 1 1-3-3h12a3 3 0 1 1-3 3"/></g><g transform="translate(49.5 169.5) scale(0.875)"><path fill="currentColor" d="M7 19H4v2h16v-2h-3v-6c0-2.76-2.24-5-5-5s-5 2.24-5 5zm2-6c0-1.65 1.35-3 3-3s3 1.35 3 3v6H9zm4-7V3h-2v3zm6 5v2h3v-2zM5 13v-2H2v2zm12.66-5.24l1.06-1.06l1.06-1.06l-.71-.71l-.71-.71l-1.06 1.06l-1.06 1.06l.71.71zm-11.32 0l.71-.71l.71-.71L6.7 5.28L5.64 4.22l-.71.71l-.71.71L5.28 6.7z"/></g><g transform="translate(89.5 169.5) scale(0.875)"><path fill="currentColor" d="M18 18H9.41l6-6l-6-6H18V4H6v1.41L12.59 12L6 18.59V20h12z"/></g><g transform="translate(129.5 169.5) scale(0.875)"><g fill="none" fill-rule="evenodd"><path d="m12.594 23.258l-.012.002l-.071.035l-.02.004l-.014-.004l-.071-.036q-.016-.004-.024.006l-.004.01l-.017.428l.005.02l.01.013l.104.074l.015.004l.012-.004l.104-.074l.012-.016l.004-.017l-.017-.427q-.004-.016-.016-.018m.264-.113l-.014.002l-.184.093l-.01.01l-.003.011l.018.43l.005.012l.008.008l.201.092q.019.005.029-.008l.004-.014l-.034-.614q-.005-.019-.02-.022m-.715.002a.02.02 0 0 0-.027.006l-.006.014l-.034.614q.001.018.017.024l.015-.002l.201-.093l.01-.008l.003-.011l.018-.43l-.003-.012l-.01-.01z"/><path fill="currentColor" d="M12 2c.632 0 1.204.201 1.593.73c.235.32.366.702.399 1.081L14 4a2 2 0 0 0 2.38 1.964l.181-.043A1.124 1.124 0 0 1 18 7a2 2 0 0 0 1.85 1.995L20 9c.696 0 1.725.412 1.889 1.505q.11.733.111 1.495c0 5.523-4.477 10-10 10S2 17.523 2 12S6.477 2 12 2M9.5 14a1.5 1.5 0 1 0 0 3a1.5 1.5 0 0 0 0-3m6-2a1.5 1.5 0 1 0 0 3a1.5 1.5 0 0 0 0-3m-6-4a1.5 1.5 0 1 0 0 3a1.5 1.5 0 0 0 0-3"/></g></g><g transform="translate(169.5 169.5) scale(0.875)"><path fill="currentColor" d="M12 2q1.25 0 2.125.875T15 5t-.875 2.125T12 8t-2.125-.875T9 5t.875-2.125T12 2m0 7q1.175 0 2.325.275t2.075.775q.95.475 1.525 1.125T18.5 12.6v5.8q0 .8-.463 1.425t-1.212.625q-.375 0-.65-.287t-.275-.813v-.4q0-.95-1.312-1.55T12 16.8q-.975 0-1.925.313t-1.5.862q-.2.2-.1.513t.425.412q.8.225 1.613.325t1.687.125q.55 0 .938.388t.387.937t-.387.938T12.2 22q-.875 0-2.025-.2t-2.2-.625t-1.762-1.112T5.5 18.4v-5.8q0-.775.575-1.425t1.5-1.125q.95-.5 2.1-.775T12 9m0 6q.825 0 1.413-.587T14 13t-.587-1.412T12 11t-1.412.588T10 13t.588 1.413T12 15"/></g><g transform="translate(209.5 169.5) scale(0.875)"><g fill="none" stroke="currentColor" stroke-linecap="round" stroke-linejoin="round" stroke-width="1.5"><path d="M12 20.5L22.5 4h-4L12 14L5.5 4h-4z"/><path d="M18.5 4h-4L12 7.5L9.5 4h-4"/></g></g><g transform="translate(249.5 169.5) scale(0.875)"><path fill="currentColor" d="M8.8 8.8h1.8c.1 0 .2-.1.2-.2V7.1c0-.1-.1-.2-.2-.2H8.8c-.1 0-.2.1-.2.2v1.6s.1.1.2.1m2.4 2.3H13c.1 0 .2-.1.2-.2V9.3c0-.1-.1-.2-.2-.2h-1.8c-.1 0-.2.1-.2.2v1.6c0 .1.1.2.2.2m0-2.3H13c.1 0 .2-.1.2-.2V7.1l-.2-.2h-1.8c-.1 0-.2.1-.2.2v1.6s.1.1.2.1m2.5 2.3h1.8c.1 0 .2-.1.2-.2V9.3c0-.1-.1-.2-.2-.2h-1.8c-.1 0-.2.1-.2.2v1.6c0 .1.1.2.2.2m-2.5-4.6H13c.1 0 .2-.1.2-.2V4.8c0-.1-.1-.2-.2-.2h-1.8c-.1 0-.2.1-.2.2v1.6c0 .1.1.1.2.1m-7.4 4.6h1.8c.1 0 .2-.1.2-.2V9.3c0-.1-.1-.2-.2-.2H3.8c-.1 0-.2.1-.2.2v1.6zm18-1c-.5-.3-1.1-.5-1.6-.4c-.3 0-.6 0-.8.1c-.2-.9-.7-1.7-1.4-2.1l-.3-.2l-.2.3c-.3.2-.5.6-.6 1.1c-.2.8-.1 1.6.3 2.2c-.5.2-1 .3-1.5.4H2.6c-.3 0-.6.3-.6.6c0 1.2.2 2.3.6 3.4s1.1 2 2 2.6c1.4.7 2.9 1 4.4.9c.8 0 1.6-.1 2.4-.2c1.1-.2 2.2-.6 3.2-1.2c.8-.5 1.5-1.1 2.2-1.8c.9-1.1 1.6-2.3 2.1-3.7h.2c.8 0 1.6-.3 2.2-.8q.45-.3.6-.9l.1-.2zm-15.5 1H8c.1 0 .2-.1.2-.2V9.3c0-.1-.1-.2-.2-.2H6.3c-.1 0-.2.1-.2.2v1.6c0 .1.1.2.2.2m0-2.3H8c.1 0 .2-.1.2-.2V7.1c0-.1-.1-.2-.2-.2H6.3c-.1 0-.2.1-.2.2v1.6s.1.1.2.1m2.5 2.3h1.8c.1 0 .2-.1.2-.2V9.3c0-.1-.1-.2-.2-.2H8.8c-.1 0-.2.1-.2.2v1.6c0 .1.1.2.2.2"/></g><g transform="translate(289.5 169.5) scale(0.875)"><path fill="currentColor" d="M18 1.5c2.9 0 5.25 2.35 5.25 5.25v3.75a.75.75 0 0 1-1.5 0V6.75a3.75 3.75 0 1 0-7.5 0v3a3 3 0 0 1 3 3v6.75a3 3 0 0 1-3 3H3.75a3 3 0 0 1-3-3v-6.75a3 3 0 0 1 3-3h9v-3c0-2.9 2.35-5.25 5.25-5.25"/></g><g transform="translate(329.5 169.5) scale(0.875)"><path fill="currentColor" d="M9 4h5.446a1 1 0 0 1 .848.47L18.75 10h4.408a.5.5 0 0 1 .439.74L19.637 18H19a6 6 0 0 1-1.535-.198L20.63 12H3.4l1.048 5.824A6 6 0 0 1 3 18h-.545l-1.24-6.821A1 1 0 0 1 2.197 10H3V5a1 1 0 0 1 1-1h1V1h4zm-4 6h11.392l-2.5-4H5zM3 20a5.98 5.98 0 0 0 4-1.528A5.98 5.98 0 0 0 11 20a5.98 5.98 0 0 0 4-1.528A5.98 5.98 0 0 0 19 20h2v2h-2a7.96 7.96 0 0 1-4-1.07A7.96 7.96 0 0 1 11 22a7.96 7.96 0 0 1-4-1.07A7.96 7.96 0 0 1 3 22H1v-2z"/></g><g transform="translate(369.5 169.5) scale(0.875)"><g fill="none" stroke="currentColor" stroke-linecap="round" stroke-linejoin="round" stroke-width="2"><path d="M12.127 22H5a2 2 0 0 1-2-2V6a2 2 0 0 1 2-2h14a2 2 0 0 1 2 2v5.125"/><path d="M14.62 18.8A2.25 2.25 0 1 1 18 15.836a2.25 2.25 0 1 1 3.38 2.966l-2.626 2.856a.998.998 0 0 1-1.507 0zM16 2v4M3 10h18M8 2v4"/></g></g><g transform="translate(409.5 169.5) scale(0.65625)"><path fill="currentColor" d="M6 17h8v2H6z"/><circle cx="3" cy="18" r="1" fill="currentColor"/><circle cx="13" cy="14" r="1" fill="currentColor"/><path fill="currentColor" d="M2 13h8v2H2zm4-4h8v2H6z"/><circle cx="3" cy="10" r="1" fill="currentColor"/><path fill="currentColor" d="m30 28.6l-7.4-7.4c1.5-2 2.4-4.5 2.4-7.2c0-6.6-5.4-12-12-12c-3.3 0-6.4 1.3-8.7 3.8l1.5 1.4C7.6 5.1 10.2 4 13 4c5.5 0 10 4.5 10 10s-4.5 10-10 10c-3 0-5.8-1.3-7.7-3.6l-1.5 1.3C6 24.4 9.4 26 13 26c3.2 0 6.1-1.3 8.3-3.3l7.3 7.3z"/></g><g transform="translate(449.5 169.5) scale(1.3125)"><path fill="currentColor" d="M13 .5c0-.276-.226-.506-.498-.465c-1.703.257-2.94 2.012-3 8.462a.5.5 0 0 0 .498.5c.56.01 1 .13 1 1.003v5.5a.5.5 0 0 0 .5.5h1a.5.5 0 0 0 .5-.5zM4.25 0a.25.25 0 0 1 .25.25v5.122a.128.128 0 0 0 .256.006l.233-5.14A.25.25 0 0 1 5.24 0h.522a.25.25 0 0 1 .25.238l.233 5.14a.128.128 0 0 0 .256-.006V.25A.25.25 0 0 1 6.75 0h.29a.5.5 0 0 1 .498.458l.423 5.07a1.69 1.69 0 0 1-1.059 1.711l-.053.022a.92.92 0 0 0-.58.884L6.47 15a.971.971 0 1 1-1.942 0l.202-6.855a.92.92 0 0 0-.58-.884l-.053-.022a1.69 1.69 0 0 1-1.059-1.712L3.462.458A.5.5 0 0 1 3.96 0z"/></g><g transform="translate(9.5 209.5) scale(0.875)"><g fill="none" stroke="currentColor" stroke-linecap="round" stroke-linejoin="round" stroke-width="2"><path d="M12 16H4a2 2 0 1 1 0-4h16a2 2 0 1 1 0 4h-4.25M5 12a2 2 0 0 1-2-2a9 7 0 0 1 18 0a2 2 0 0 1-2 2M5 16a2 2 0 0 0-2 2a3 3 0 0 0 3 3h12a3 3 0 0 0 3-3a2 2 0 0 0-2-2q0 0 0 0"/><path d="m6.67 12l6.13 4.6a2 2 0 0 0 2.8-.4l3.15-4.2"/></g></g><g transform="translate(49.5 209.5) scale(0.875)"><g fill="none" fill-rule="evenodd"><path d="m12.593 23.258l-.011.002l-.071.035l-.02.004l-.014-.004l-.071-.035q-.016-.005-.024.005l-.004.01l-.017.428l.005.02l.01.013l.104.074l.015.004l.012-.004l.104-.074l.012-.016l.004-.017l-.017-.427q-.004-.016-.017-.018m.265-.113l-.013.002l-.185.093l-.01.01l-.003.011l.018.43l.005.012l.008.007l.201.093q.019.005.029-.008l.004-.014l-.034-.614q-.005-.018-.02-.022m-.715.002a.02.02 0 0 0-.027.006l-.006.014l-.034.614q.001.018.017.024l.015-.002l.201-.093l.01-.008l.004-.011l.017-.43l-.003-.012l-.01-.01z"/><path fill="currentColor" d="M4.93 12.01a1 1 0 0 1 1.13.848a6.002 6.002 0 0 0 7.832 4.838l.293-.107l1.509 1.509a8 8 0 0 1-2.336.787l-.358.053V21a1 1 0 0 1-1.993.117L11 21v-1.062a8.004 8.004 0 0 1-6.92-6.796a1 1 0 0 1 .85-1.132M12 2a5 5 0 0 1 4.995 4.783L17 7v5a5 5 0 0 1-.691 2.538l-.137.22l.719.719a6 6 0 0 0 1.048-2.619a1 1 0 0 1 1.98.284a7.96 7.96 0 0 1-1.412 3.513l-.187.25l2.165 2.166a1 1 0 0 1-1.32 1.497l-.094-.083L3.515 4.93a1 1 0 0 1 1.32-1.497l.094.083l2.23 2.23A5 5 0 0 1 11.999 2Zm-5 8.404l2.031 2.031a3 3 0 0 0 2.534 2.534l1.833 1.833A5 5 0 0 1 7 12zM12 4a3 3 0 0 0-3 3v.586l5.708 5.707A3 3 0 0 0 15 12V7a3 3 0 0 0-3-3"/></g></g><g transform="translate(89.5 209.5) scale(0.875)"><path fill="currentColor" d="M4.975 19.025Q4.75 18.8 4.75 18.5t.225-.525l13-13q.225-.225.525-.225t.525.225t.225.525t-.225.525l-13 13q-.225.225-.525.225t-.525-.225"/></g><g transform="translate(129.5 209.5) scale(0.875)"><path fill="currentColor" d="M19 21c1.1 0 2-.9 2-2V5c0-1.1-.9-2-2-2H5c-1.1 0-2 .9-2 2v14c0 1.1.9 2 2 2zm-8.51-10.67L12 7l1.51 3.33l3.49.28l-2.78 2.5L15.33 17L12 14.78L8.67 17l1.11-3.89L7 10.61z"/></g><g transform="translate(169.5 209.5) scale(0.875)"><path fill="currentColor" d="M14.875 15.125Q14 14.25 14 13t.875-2.125T17 10t2.125.875T20 13t-.875 2.125T17 16t-2.125-.875m2.838-1.412Q18 13.425 18 13t-.288-.712T17 12t-.712.288T16 13t.288.713T17 14t.713-.288M11 23v-2.9q0-.525.25-.987t.7-.738q.8-.475 1.688-.788t1.812-.462L17 19l1.55-1.875q.925.15 1.8.463t1.675.787q.45.275.713.738T23 20.1V23zm1.975-2h3.075l-1.35-1.65q-.45.125-.875.325t-.85.425zm4.975 0H21v-.9q-.4-.25-.825-.437t-.875-.313zM5 21q-.825 0-1.413-.587T3 19V5q0-.825.588-1.412T5 3h14q.825 0 1.413.588T21 5v5q-.4-.5-.875-.95T19 8.45V5H5v14h4.15q-.075.275-.112.55T9 20.1v.9zM7 9h7q.65-.5 1.425-.75T17 8V7H7zm0 4h5q0-.525.112-1.025t.313-.975H7zm0 4h3.45q.275-.225.588-.4t.637-.325V15H7zm-2 2V5v3.425V8zm12-6"/></g><g transform="translate(209.5 209.5) scale(1.3125)"><g fill="currentColor"><path d="m.5 3l.04.87a2 2 0 0 0-.342 1.311l.637 7A2 2 0 0 0 2.826 14H9v-1H2.826a1 1 0 0 1-.995-.91l-.637-7A1 1 0 0 1 2.19 4h11.62a1 1 0 0 1 .996 1.09L14.54 8h1.005l.256-2.819A2 2 0 0 0 13.81 3H9.828a2 2 0 0 1-1.414-.586l-.828-.828A2 2 0 0 0 6.172 1H2.5a2 2 0 0 0-2 2m5.672-1a1 1 0 0 1 .707.293L7.586 3H2.19q-.362.002-.683.12L1.5 2.98a1 1 0 0 1 1-.98z"/><path d="M15.854 10.146a.5.5 0 0 1 0 .708l-3 3a.5.5 0 0 1-.707 0l-1.5-1.5a.5.5 0 0 1 .707-.708l1.146 1.147l2.646-2.647a.5.5 0 0 1 .708 0"/></g></g><g transform="translate(249.5 209.5) scale(0.875)"><g fill="none" stroke="currentColor" stroke-linecap="round" stroke-linejoin="round" stroke-width="2"><circle cx="12" cy="12" r="10"/><path d="M9.09 9a3 3 0 0 1 5.83 1c0 2-3 3-3 3m.08 4h.01"/></g></g><g transform="translate(289.5 209.5) scale(0.875)"><path fill="currentColor" d="M4 20V9h4v11zm6 0V10l4 4v6zm4-8.85l-4-4V4h4zm6 6l-4-4V13h4zm-.225 5.475l-18.4-18.4L2.8 2.8l18.4 18.4z"/></g><g transform="translate(329.5 209.5) scale(0.4375)"><g fill="none" stroke="currentColor" stroke-linecap="round" stroke-linejoin="round" stroke-width="4"><path d="M44 7H4v30h7v5l10-5h23zm-13 9v1m-14-1v1"/><path d="M31 25s-2 4-7 4s-7-4-7-4"/></g></g><g transform="translate(369.5 209.5) scale(0.875)"><path fill="currentColor" d="m13.41 12l4.3-4.29a1 1 0 1 0-1.42-1.42L12 10.59l-4.29-4.3a1 1 0 0 0-1.42 1.42l4.3 4.29l-4.3 4.29a1 1 0 0 0 0 1.42a1 1 0 0 0 1.42 0l4.29-4.3l4.29 4.3a1 1 0 0 0 1.42 0a1 1 0 0 0 0-1.42Z"/></g><g transform="translate(409.5 209.5) scale(1.05)"><path fill="currentColor" d="M10 3c2.465 0 3.863 1.574 4.066 3.474h.062C15.714 6.474 17 7.711 17 9.237S15.714 12 14.128 12l-.703-.001V12h-.03l-.957 1.741a.5.5 0 0 1-.876-.482l.693-1.26h-1.818V12h-.041l-.958 1.741a.5.5 0 0 1-.876-.482l.693-1.26H7.432V12h-.036l-.958 1.741a.5.5 0 0 1-.876-.482l.693-1.26l-.383.001C4.286 12 3 10.763 3 9.237c0-1.47 1.192-2.671 2.697-2.758l.237-.005C6.139 4.561 7.535 3 10 3m-2.89 8h7.071C15.187 11 16 10.221 16 9.26c0-.96-.814-1.739-1.818-1.739h-.55c-.29 0-.545-.218-.545-.496C13.087 5.248 11.65 4 10 4S6.913 5.27 6.913 7.025c0 .278-.254.496-.545.496h-.55C4.814 7.521 4 8.3 4 9.261C4 10.22 4.814 11 5.818 11zm.638 3.316a.5.5 0 0 1 .186.682l-1 1.75a.5.5 0 0 1-.868-.496l1-1.75a.5.5 0 0 1 .682-.186m3.186.682a.5.5 0 0 0-.868-.496l-1 1.75a.5.5 0 0 0 .868.496z"/></g><g transform="translate(449.5 209.5) scale(1.3125)"><path fill="currentColor" d="M14.778.085A.5.5 0 0 1 15 .5V8a.5.5 0 0 1-.314.464L14.5 8l.186.464l-.003.001l-.006.003l-.023.009a12 12 0 0 1-.397.15c-.264.095-.631.223-1.047.35c-.816.252-1.879.523-2.71.523c-.847 0-1.548-.28-2.158-.525l-.028-.01C7.68 8.71 7.14 8.5 6.5 8.5c-.7 0-1.638.23-2.437.477A20 20 0 0 0 3 9.342V15.5a.5.5 0 0 1-1 0V.5a.5.5 0 0 1 1 0v.282c.226-.079.496-.17.79-.26C4.606.272 5.67 0 6.5 0c.84 0 1.524.277 2.121.519l.043.018C9.286.788 9.828 1 10.5 1c.7 0 1.638-.23 2.437-.477a20 20 0 0 0 1.349-.476l.019-.007l.004-.002h.001"/></g><g transform="translate(9.5 249.5) scale(0.875)"><g fill="none" stroke="currentColor" stroke-width="1.5"><path d="M2.5 12c0-4.478 0-6.718 1.391-8.109S7.521 2.5 12 2.5c4.478 0 6.718 0 8.109 1.391S21.5 7.521 21.5 12c0 4.478 0 6.718-1.391 8.109S16.479 21.5 12 21.5c-4.478 0-6.718 0-8.109-1.391S2.5 16.479 2.5 12Z"/><path stroke-linecap="round" stroke-linejoin="round" d="M12 9v7m3.5-4.5S12.922 8 12 8s-3.5 3.5-3.5 3.5"/></g></g><g transform="translate(49.5 249.5) scale(0.08203125)"><path fill="currentColor" d="M128 20a108 108 0 1 0 108 108A108.12 108.12 0 0 0 128 20m0 192a84 84 0 1 1 84-84a84.09 84.09 0 0 1-84 84m0-128a44.05 44.05 0 0 0-44 44a12 12 0 0 1-24 0a68.07 68.07 0 0 1 68-68a12 12 0 0 1 0 24m68 44a68.07 68.07 0 0 1-68 68a12 12 0 0 1 0-24a44.05 44.05 0 0 0 44-44a12 12 0 0 1 24 0m-68 28a28 28 0 1 1 28-28a28 28 0 0 1-28 28"/></g><g transform="translate(89.5 249.5) scale(1.3125)"><g fill="currentColor"><path d="M6.5 7a.5.5 0 0 0 0 1h4a.5.5 0 0 0 0-1z"/><path d="M.5 1a.5.5 0 0 0 0 1h1.11l.401 1.607l1.498 7.985A.5.5 0 0 0 4 12h1a2 2 0 1 0 0 4a2 2 0 0 0 0-4h7a2 2 0 1 0 0 4a2 2 0 0 0 0-4h1a.5.5 0 0 0 .491-.408l1.5-8A.5.5 0 0 0 14.5 3H2.89l-.405-1.621A.5.5 0 0 0 2 1zm3.915 10L3.102 4h10.796l-1.313 7zM6 14a1 1 0 1 1-2 0a1 1 0 0 1 2 0m7 0a1 1 0 1 1-2 0a1 1 0 0 1 2 0"/></g></g><g transform="translate(129.5 249.5) scale(0.4375)"><g fill="none" stroke="currentColor" stroke-linecap="round" stroke-linejoin="round" stroke-width="4"><path d="m20 16l4 4l4-4m4 13l4 4l4-4M8 29l4 4l4-4m8-9V4"/><path d="M36 32.867v-13.23a4 4 0 0 1 4-4h4m-32 17.23v-13.23a4 4 0 0 0-4-4H4M4 36v4a4 4 0 0 0 4 4h32a4 4 0 0 0 4-4v-4"/></g></g><g transform="translate(169.5 249.5) scale(0.875)"><g fill="none" stroke="currentColor" stroke-width="1.5"><circle cx="12" cy="12" r="10"/><path stroke-linecap="round" d="M18.125 9H18m.25 0a.25.25 0 1 1-.5 0a.25.25 0 0 1 .5 0Zm-3.125-3H15m.25 0a.25.25 0 1 1-.5 0a.25.25 0 0 1 .5 0Zm-1.125 4H14m.25 0a.25.25 0 1 1-.5 0a.25.25 0 0 1 .5 0Z"/></g></g><g transform="translate(209.5 249.5) scale(0.875)"><g fill="none" fill-rule="evenodd"><path d="m12.594 23.258l-.012.002l-.071.035l-.02.004l-.014-.004l-.071-.036q-.016-.004-.024.006l-.004.01l-.017.428l.005.02l.01.013l.104.074l.015.004l.012-.004l.104-.074l.012-.016l.004-.017l-.017-.427q-.004-.016-.016-.018m.264-.113l-.014.002l-.184.093l-.01.01l-.003.011l.018.43l.005.012l.008.008l.201.092q.019.005.029-.008l.004-.014l-.034-.614q-.005-.019-.02-.022m-.715.002a.02.02 0 0 0-.027.006l-.006.014l-.034.614q.001.018.017.024l.015-.002l.201-.093l.01-.008l.003-.011l.018-.43l-.003-.012l-.01-.01z"/><path fill="currentColor" d="M18 6a2 2 0 0 1 2 2v1a2 2 0 0 1 2 2v2a2 2 0 0 1-2 2v1a2 2 0 0 1-2 2H4a2 2 0 0 1-2-2V8a2 2 0 0 1 2-2zM6 9a1 1 0 0 0-1 1v4a1 1 0 1 0 2 0v-4a1 1 0 0 0-1-1m3 0a1 1 0 0 0-.993.883L8 10v4a1 1 0 0 0 1.993.117L10 14v-4a1 1 0 0 0-1-1m3 0a1 1 0 0 0-1 1v4a1 1 0 1 0 2 0v-4a1 1 0 0 0-1-1"/></g></g><g transform="translate(249.5 249.5) scale(0.875)"><path fill="currentColor" d="M6 17V7h3l1-1h4l1 1h3v10zm6-3q.825 0 1.413-.587T14 12t-.587-1.412T12 10t-1.412.588T10 12t.588 1.413T12 14M8.55.5Q9.4.225 10.263.113T12 0q2.35 0 4.438.838t3.7 2.325t2.637 3.5T24 11h-2q-.175-1.8-.95-3.363t-1.988-2.762t-2.787-1.937T12.9 2.05l1.55 1.55l-1.4 1.4zm6.9 23q-.85.275-1.712.388T12 24q-2.35 0-4.437-.837t-3.7-2.325t-2.638-3.5T0 13h2q.2 1.8.963 3.363t1.975 2.762t2.787 1.938t3.375.887L9.55 20.4l1.4-1.4z"/></g><g transform="translate(289.5 249.5) scale(0.875)"><path fill="currentColor" d="M21.71 14.54L19.21 12a1 1 0 0 0-1.42 0L15 14.84L12.21 12a1 1 0 0 0-1.42 0L8.5 14.34L6.21 12a1 1 0 0 0-1.42 0l-2.5 2.5a1 1 0 0 0-.21.33a1 1 0 0 0-.08.38V19a3 3 0 0 0 3 3h14a3 3 0 0 0 3-3v-3.75a1 1 0 0 0-.08-.38a1 1 0 0 0-.21-.33M20 19a1 1 0 0 1-1 1H5a1 1 0 0 1-1-1v-3.34l1.5-1.5l2.29 2.3a1 1 0 0 0 1.42 0l2.29-2.3L14.29 17a1 1 0 0 0 1.42 0l2.79-2.8l1.5 1.5ZM19 2H5a3 3 0 0 0-3 3v5.26a1.2 1.2 0 0 0 0 .27v.1a1 1 0 0 0 1.66.31L5.5 9.16l2.29 2.3a1 1 0 0 0 1.42 0l2.29-2.3L14.29 12a1 1 0 0 0 1.42 0l2.79-2.8l1.77 1.78a1 1 0 0 0 1.66-.31a.3.3 0 0 0 0-.09a.9.9 0 0 0 .06-.28V5A3 3 0 0 0 19 2m1 5.84L19.21 7a1 1 0 0 0-1.42 0L15 9.84L12.21 7a1 1 0 0 0-1.42 0L8.5 9.34L6.21 7a1 1 0 0 0-1.42 0L4 7.84V5a1 1 0 0 1 1-1h14a1 1 0 0 1 1 1Z"/></g><g transform="translate(329.5 249.5) scale(0.875)"><path fill="currentColor" d="M3 3h18a1 1 0 0 1 1 1v16a1 1 0 0 1-1 1H3a1 1 0 0 1-1-1V4a1 1 0 0 1 1-1m3 4v10h3V7zm4 0v10h2V7zm3 0v10h1V7zm2 0v10h3V7z"/></g><g transform="translate(369.5 249.5) scale(0.875)"><path fill="currentColor" d="M18.45 13.11a.97.97 0 0 0-.8-.04c-.26.1-.47.3-.57.56l-2 5c-.19.48.02 1.03.48 1.27l2 1a1 1 0 0 0 .79.05c.26-.09.47-.29.58-.55l1.68-3.92a9.86 9.86 0 0 0-.63-8.96c-1.57-2.61-4.18-4.24-7.15-4.48c-.54-.05-1.11-.05-1.64 0c-2.97.24-5.58 1.88-7.15 4.48a9.86 9.86 0 0 0-.63 8.96l1.68 3.92c.11.25.32.45.58.55c.26.09.54.08.79-.04l2-1c.46-.23.67-.78.48-1.27l-2-5a.98.98 0 0 0-.57-.56a.97.97 0 0 0-.8.04l-.88.44c-.2-1.72.16-3.48 1.08-5c1.24-2.05 3.28-3.33 5.6-3.52c.43-.04.87-.04 1.31 0c2.32.19 4.36 1.47 5.6 3.52a7.95 7.95 0 0 1 1.08 5l-.88-.44Z"/></g><g transform="translate(409.5 249.5) scale(0.65625)"><path fill="currentColor" d="m20 24l-10-8l10-8z"/></g><g transform="translate(449.5 249.5) scale(0.08203125)"><path fill="currentColor" d="M172 120a44 44 0 1 1-44-44a44 44 0 0 1 44 44m52-72v160a16 16 0 0 1-16 16H48a16 16 0 0 1-16-16V48a16 16 0 0 1 16-16h160a16 16 0 0 1 16 16m-16 160V48H48v160h3.67a80.6 80.6 0 0 1 26.07-38.25q3.08-2.48 6.36-4.62a4 4 0 0 1 4.81.33a59.82 59.82 0 0 0 78.18 0a4 4 0 0 1 4.81-.33q3.28 2.15 6.36 4.62A80.6 80.6 0 0 1 204.33 208z"/></g><g transform="translate(9.5 289.5) scale(0.875)"><g fill="none" stroke="currentColor" stroke-linecap="round" stroke-linejoin="round" stroke-width="2"><path d="M12 2v2m3.726 17.01A2 2 0 0 1 14 22H4a2 2 0 0 1-2-2V10a2 2 0 0 1 2-2m14-6v2M2 13h2m4-5h14"/><rect width="14" height="14" x="8" y="3" rx="2"/></g></g><g transform="translate(49.5 289.5) scale(0.4375)"><g fill="none" stroke="currentColor" stroke-linecap="round" stroke-width="4"><rect width="32" height="26" x="8" y="14" stroke-linejoin="round" rx="2"/><path d="M20 23v8"/><path stroke-linejoin="round" d="M15 40v4m18-4v4"/><path d="M28 23v8"/><path stroke-linejoin="round" d="M19 4h10m-5 0v10"/></g></g><g transform="translate(89.5 289.5) scale(1.3125)"><path fill="currentColor" d="M5.354 2a2 2 0 0 0-1.857 1.257l-.338.845Q3.565 4 4 4h8q.436 0 .84.102l-.337-.845A2 2 0 0 0 10.646 2z"/><path fill="currentColor" fill-rule="evenodd" d="M2 13a2 2 0 0 1 2-2h8a2 2 0 1 1 0 4H4a2 2 0 0 1-2-2m10.75 0a.75.75 0 1 1-1.5 0a.75.75 0 0 1 1.5 0M9 13.75a.75.75 0 1 0 0-1.5a.75.75 0 0 0 0 1.5M4 5.5a2 2 0 1 0 0 4h8a2 2 0 1 0 0-4zm8 2.75a.75.75 0 1 0 0-1.5a.75.75 0 0 0 0 1.5M9.75 7.5a.75.75 0 1 1-1.5 0a.75.75 0 0 1 1.5 0" clip-rule="evenodd"/></g><g transform="translate(129.5 289.5) scale(0.65625)"><path fill="currentColor" d="M30 15H17V2h-2v13H2v2h13v13h2V17h13z"/><path fill="currentColor" d="M25.586 20L27 21.414L23.414 25L27 28.586L25.586 30l-5-5zM11 30H3a1 1 0 0 1-.894-1.447l4-8a1.04 1.04 0 0 1 1.789 0l4 8A1 1 0 0 1 11 30m-6.382-2h4.764L7 23.236ZM28 12h-6a2 2 0 0 1-2-2V4a2 2 0 0 1 2-2h6a2 2 0 0 1 2 2v6a2 2 0 0 1-2 2m-6-8v6h6.001L28 4ZM7 12a5 5 0 1 1 5-5a5.006 5.006 0 0 1-5 5m0-8a3 3 0 1 0 3 3a3.003 3.003 0 0 0-3-3"/></g><g transform="translate(169.5 289.5) scale(1.05)"><path fill="currentColor" d="M16.854 3.146a.5.5 0 0 1 0 .708L9.707 11H14.5a.5.5 0 0 1 0 1h-6a.5.5 0 0 1-.5-.5v-6a.5.5 0 0 1 1 0v4.793l7.146-7.147a.5.5 0 0 1 .708 0M5 17a2 2 0 1 0 0-4a2 2 0 0 0 0 4"/></g><g transform="translate(209.5 289.5) scale(0.875)"><path fill="currentColor" d="M8.7 4h9.623l1.661 4.154A1.995 1.995 0 0 1 16 8a1 1 0 0 0-2 0a1.8 1.8 0 0 1-.134.709a1 1 0 0 0 .543 1.305a1 1 0 0 0 .174.035A3.99 3.99 0 0 0 18 12v1.3a1 1 0 0 0 2 0v-1.856a3.99 3.99 0 0 0 1.996-3.405l.003-.028L22 8a1 1 0 0 0-.035-.171a1 1 0 0 0-.036-.2l-2-5A1 1 0 0 0 19 2H8.7a1 1 0 1 0 0 2m14.007 17.293l-2.933-2.933a1 1 0 0 0-.154-.154l-9.95-9.95a1 1 0 0 0-.206-.206L5.182 3.768a1 1 0 0 0-.128-.128L2.707 1.293a1 1 0 0 0-1.414 1.414l1.964 1.964l-1.178 2.94l-.007.017a1 1 0 0 0-.035.189A1 1 0 0 0 2 8l.001.012l.003.024A3.99 3.99 0 0 0 4 11.444V21a1 1 0 0 0 1 1h14a.99.99 0 0 0 .93-.656l1.363 1.363a1 1 0 0 0 1.414-1.414M4.016 8.153l.778-1.945L7.67 9.084A1.97 1.97 0 0 1 6 10a1.996 1.996 0 0 1-1.984-1.846ZM9 15v5H6v-8a3.96 3.96 0 0 0 3.102-1.484L12.586 14H10a1 1 0 0 0-1 1m4 5h-2v-4h2Zm5 0h-3v-3.586l3 3Z"/></g><g transform="translate(249.5 289.5) scale(1.3125)"><path fill="currentColor" d="M.036 3.314a.5.5 0 0 1 .65-.278l1.757.703a1.5 1.5 0 0 0 1.114 0l1.014-.406a2.5 2.5 0 0 1 1.857 0l1.015.406a1.5 1.5 0 0 0 1.114 0l1.014-.406a2.5 2.5 0 0 1 1.857 0l1.015.406a1.5 1.5 0 0 0 1.114 0l1.757-.703a.5.5 0 1 1 .372.928l-1.758.703a2.5 2.5 0 0 1-1.857 0l-1.014-.406a1.5 1.5 0 0 0-1.114 0l-1.015.406a2.5 2.5 0 0 1-1.857 0l-1.014-.406a1.5 1.5 0 0 0-1.114 0l-1.015.406a2.5 2.5 0 0 1-1.857 0L.314 3.964a.5.5 0 0 1-.278-.65m0 3a.5.5 0 0 1 .65-.278l1.757.703a1.5 1.5 0 0 0 1.114 0l1.014-.406a2.5 2.5 0 0 1 1.857 0l1.015.406a1.5 1.5 0 0 0 1.114 0l1.014-.406a2.5 2.5 0 0 1 1.857 0l1.015.406a1.5 1.5 0 0 0 1.114 0l1.757-.703a.5.5 0 1 1 .372.928l-1.758.703a2.5 2.5 0 0 1-1.857 0l-1.014-.406a1.5 1.5 0 0 0-1.114 0l-1.015.406a2.5 2.5 0 0 1-1.857 0l-1.014-.406a1.5 1.5 0 0 0-1.114 0l-1.015.406a2.5 2.5 0 0 1-1.857 0L.314 6.964a.5.5 0 0 1-.278-.65m0 3a.5.5 0 0 1 .65-.278l1.757.703a1.5 1.5 0 0 0 1.114 0l1.014-.406a2.5 2.5 0 0 1 1.857 0l1.015.406a1.5 1.5 0 0 0 1.114 0l1.014-.406a2.5 2.5 0 0 1 1.857 0l1.015.406a1.5 1.5 0 0 0 1.114 0l1.757-.703a.5.5 0 1 1 .372.928l-1.758.703a2.5 2.5 0 0 1-1.857 0l-1.014-.406a1.5 1.5 0 0 0-1.114 0l-1.015.406a2.5 2.5 0 0 1-1.857 0l-1.014-.406a1.5 1.5 0 0 0-1.114 0l-1.015.406a2.5 2.5 0 0 1-1.857 0L.314 9.964a.5.5 0 0 1-.278-.65m0 3a.5.5 0 0 1 .65-.278l1.757.703a1.5 1.5 0 0 0 1.114 0l1.014-.406a2.5 2.5 0 0 1 1.857 0l1.015.406a1.5 1.5 0 0 0 1.114 0l1.014-.406a2.5 2.5 0 0 1 1.857 0l1.015.406a1.5 1.5 0 0 0 1.114 0l1.757-.703a.5.5 0 1 1 .372.928l-1.758.703a2.5 2.5 0 0 1-1.857 0l-1.014-.406a1.5 1.5 0 0 0-1.114 0l-1.015.406a2.5 2.5 0 0 1-1.857 0l-1.014-.406a1.5 1.5 0 0 0-1.114 0l-1.015.406a2.5 2.5 0 0 1-1.857 0l-1.757-.703a.5.5 0 0 1-.278-.65"/></g><g transform="translate(289.5 289.5) scale(0.875)"><g fill="none"><path d="m12.594 23.258l-.012.002l-.071.035l-.02.004l-.014-.004l-.071-.036q-.016-.004-.024.006l-.004.01l-.017.428l.005.02l.01.013l.104.074l.015.004l.012-.004l.104-.074l.012-.016l.004-.017l-.017-.427q-.004-.016-.016-.018m.264-.113l-.014.002l-.184.093l-.01.01l-.003.011l.018.43l.005.012l.008.008l.201.092q.019.005.029-.008l.004-.014l-.034-.614q-.005-.019-.02-.022m-.715.002a.02.02 0 0 0-.027.006l-.006.014l-.034.614q.001.018.017.024l.015-.002l.201-.093l.01-.008l.003-.011l.018-.43l-.003-.012l-.01-.01z"/><path fill="currentColor" d="M16 15c1.306 0 2.418.835 2.83 2H20a1 1 0 1 1 0 2h-1.17a3.001 3.001 0 0 1-5.66 0H4a1 1 0 1 1 0-2h9.17A3 3 0 0 1 16 15M8 9a3 3 0 0 1 2.762 1.828l.067.172H20a1 1 0 0 1 .117 1.993L20 13h-9.17a3.001 3.001 0 0 1-5.592.172L5.17 13H4a1 1 0 0 1-.117-1.993L4 11h1.17A3 3 0 0 1 8 9m8-6c1.306 0 2.418.835 2.83 2H20a1 1 0 1 1 0 2h-1.17a3.001 3.001 0 0 1-5.66 0H4a1 1 0 0 1 0-2h9.17A3 3 0 0 1 16 3"/></g></g><g transform="translate(329.5 289.5) scale(1.05)"><path fill="currentColor" d="M6 3a2 2 0 0 0-2 2v4.256q.478-.17 1-.229V5a1 1 0 0 1 1-1h7a1 1 0 0 1 1 1v11h-3.879l1 1H15a3 3 0 0 0 3-3v-2h-3V5a2 2 0 0 0-2-2zm2.329 7H11.5a.5.5 0 0 0 0-1h-4a.5.5 0 0 0-.447.275c.466.172.897.418 1.276.725M15 16v-3h2v1a2 2 0 0 1-2 2M7.5 6a.5.5 0 0 0 0 1h4a.5.5 0 0 0 0-1zm-2 11c.786 0 1.512-.26 2.096-.697l2.55 2.55a.5.5 0 1 0 .708-.707l-2.55-2.55A3.5 3.5 0 1 0 5.5 17m0-1a2.5 2.5 0 1 1 0-5a2.5 2.5 0 0 1 0 5"/></g><g transform="translate(369.5 289.5) scale(0.4375)"><path fill="none" stroke="currentColor" stroke-linecap="round" stroke-linejoin="round" stroke-width="4" d="M24 36v8M14 15L24 4l10 11l-3 3l8 8l-5 1.158L42 36H6l8-8.842L9 26l8-8z"/></g><g transform="translate(409.5 289.5) scale(0.875)"><g fill="none" fill-rule="evenodd"><path d="m12.593 23.258l-.011.002l-.071.035l-.02.004l-.014-.004l-.071-.035q-.016-.005-.024.005l-.004.01l-.017.428l.005.02l.01.013l.104.074l.015.004l.012-.004l.104-.074l.012-.016l.004-.017l-.017-.427q-.004-.016-.017-.018m.265-.113l-.013.002l-.185.093l-.01.01l-.003.011l.018.43l.005.012l.008.007l.201.093q.019.005.029-.008l.004-.014l-.034-.614q-.005-.018-.02-.022m-.715.002a.02.02 0 0 0-.027.006l-.006.014l-.034.614q.001.018.017.024l.015-.002l.201-.093l.01-.008l.004-.011l.017-.43l-.003-.012l-.01-.01z"/><path fill="currentColor" d="M6.03 2a1 1 0 0 1 .919.684L8.72 8h6.558l1.772-5.316a1 1 0 0 1 1.877-.055l2.898 7.244a5 5 0 0 1-1.519 5.762L13.25 21.28a2 2 0 0 1-2.498 0l-7.058-5.646a5 5 0 0 1-1.52-5.762L5.073 2.63A1 1 0 0 1 6.029 2Z"/></g></g><g transform="translate(449.5 289.5) scale(0.875)"><path fill="none" stroke="currentColor" stroke-linecap="round" stroke-linejoin="round" stroke-width="1.5" d="M10 3H5.6a.6.6 0 0 0-.6.6v16.8a.6.6 0 0 0 .6.6H10m1-14h2m-2 5h2m-2 5h2m1-14h4.4a.6.6 0 0 1 .6.6v16.8a.6.6 0 0 1-.6.6H14"/></g><g transform="translate(9.5 329.5) scale(1.05)"><path fill="currentColor" fill-rule="evenodd" d="M1.22 5.222a.75.75 0 0 1 1.06 0L7 9.942l3.768-3.769a.75.75 0 0 1 1.113.058a20.9 20.9 0 0 1 3.813 7.254l1.574-2.727a.75.75 0 0 1 1.3.75l-2.475 4.286a.75.75 0 0 1-1.025.275l-4.286-2.475a.75.75 0 0 1 .75-1.3l2.708 1.565a19.4 19.4 0 0 0-3.012-6.024L7.53 11.533a.75.75 0 0 1-1.06 0l-5.25-5.25a.75.75 0 0 1 0-1.06" clip-rule="evenodd"/></g><g transform="translate(49.5 329.5) scale(0.65625)"><path fill="currentColor" d="M23 7h4v4h-4zm0 6h4v4h-4zm-6-6h4v4h-4zm0 6h4v4h-4z"/><circle cx="14.5" cy="24.5" r="1.5" fill="currentColor"/><path fill="currentColor" d="M21 30H8a2 2 0 0 1-2-2V4a2 2 0 0 1 2-2h13v2H8v24h13v-8h2v8a2 2 0 0 1-2 2"/></g><g transform="translate(89.5 329.5) scale(1.3125)"><g fill="currentColor"><path d="M8 7a.5.5 0 0 1 .5.5V9H10a.5.5 0 0 1 0 1H8.5v1.5a.5.5 0 0 1-1 0V10H6a.5.5 0 0 1 0-1h1.5V7.5A.5.5 0 0 1 8 7"/><path d="M3.5 0a.5.5 0 0 1 .5.5V1h8V.5a.5.5 0 0 1 1 0V1h1a2 2 0 0 1 2 2v11a2 2 0 0 1-2 2H2a2 2 0 0 1-2-2V3a2 2 0 0 1 2-2h1V.5a.5.5 0 0 1 .5-.5M1 4v10a1 1 0 0 0 1 1h12a1 1 0 0 0 1-1V4z"/></g></g><g transform="translate(129.5 329.5) scale(0.875)"><path fill="currentColor" d="M22 13h-2V7.238l-7.928 7.1L4 7.216V19h10v2H3a1 1 0 0 1-1-1V4a1 1 0 0 1 1-1h18a1 1 0 0 1 1 1zM4.511 5l7.55 6.662L19.502 5zM21 18h3v2h-3v3h-2v-3h-3v-2h3v-3h2z"/></g><g transform="translate(169.5 329.5) scale(0.875)"><path fill="none" stroke="currentColor" stroke-linecap="round" stroke-linejoin="round" stroke-width="1.5" d="M15 8.25H9m6 3H9m3 6l-3-3h1.5a3 3 0 1 0 0-6M21 12a9 9 0 1 1-18 0a9 9 0 0 1 18 0"/></g><g transform="translate(209.5 329.5) scale(0.875)"><path fill="currentColor" d="M21 12a1 1 0 0 0-1 1v6a1 1 0 0 1-1 1H5a1 1 0 0 1-1-1V5a1 1 0 0 1 1-1h6a1 1 0 0 0 0-2H5a3 3 0 0 0-3 3v14a3 3 0 0 0 3 3h14a3 3 0 0 0 3-3v-6a1 1 0 0 0-1-1m-15 .76V17a1 1 0 0 0 1 1h4.24a1 1 0 0 0 .71-.29l6.92-6.93L21.71 8a1 1 0 0 0 0-1.42l-4.24-4.29a1 1 0 0 0-1.42 0l-2.82 2.83l-6.94 6.93a1 1 0 0 0-.29.71m10.76-8.35l2.83 2.83l-1.42 1.42l-2.83-2.83ZM8 13.17l5.93-5.93l2.83 2.83L10.83 16H8Z"/></g><g transform="translate(249.5 329.5) scale(0.875)"><path fill="none" stroke="currentColor" stroke-linecap="round" stroke-linejoin="round" stroke-width="1.5" d="M5.025 21c.019-1.736.019-3.446.012-5.08m0 0c-.024-5.459-.124-10.058.158-11.877c.366-2.364 4.198-.213 8.775 1.555l2.063.89c1.518.653 3.686 1.816 2.733 3.173c-.392.559-1.206 1.199-2.708 1.906z"/></g><g transform="translate(289.5 329.5) scale(0.4375)"><g fill="none"><path stroke="currentColor" stroke-linejoin="round" stroke-width="4" d="M44 29H4v13h40z"/><path fill="currentColor" d="M35.5 38a2.5 2.5 0 1 0 0-5a2.5 2.5 0 0 0 0 5"/><path stroke="currentColor" stroke-linejoin="round" stroke-width="4" d="M4 29L9.038 4.999H39.02l4.98 24"/></g></g><g transform="translate(329.5 329.5) scale(0.875)"><path fill="currentColor" d="m13.29 7.71l4.3 4.29l-4.3 4.29l1.42 1.42l5.7-5.71l-5.7-5.71zm-2.58 8.58L6.41 12l4.3-4.29l-1.42-1.42L3.59 12l5.7 5.71z"/></g><g transform="translate(369.5 329.5) scale(0.08203125)"><path fill="currentColor" d="M204 40a4 4 0 0 1-4 4h-29.29a28 28 0 0 0-27.55 23l-10.37 57H184a4 4 0 0 1 0 8h-52.66l-10.63 58.44A36 36 0 0 1 85.29 220H56a4 4 0 0 1 0-8h29.29a28 28 0 0 0 27.55-23l10.37-57H72a4 4 0 0 1 0-8h52.66l10.63-58.44A36 36 0 0 1 170.71 36H200a4 4 0 0 1 4 4"/></g><g transform="translate(409.5 329.5) scale(0.875)"><path fill="currentColor" d="M12.005 22.003c-5.523 0-10-4.477-10-10s4.477-10 10-10s10 4.477 10 10s-4.477 10-10 10m0-2a8 8 0 1 0 0-16a8 8 0 0 0 0 16m1-7h3v2h-3v2h-2v-2h-3v-2h3v-1h-3v-2h2.586L8.469 7.88l1.415-1.414l2.12 2.122l2.122-2.122L15.54 7.88l-2.12 2.122h2.585v2h-3z"/></g><g transform="translate(449.5 329.5) scale(0.875)"><g fill="none" stroke="currentColor" stroke-width="1.5"><path stroke-linecap="round" stroke-linejoin="round" d="M8.566 14.329c-.477.3-.64.865-.675 1.4c-.044.667-.066 1.001-.21 1.136c-.145.135-.417.135-.962.135H4.901c-.459 0-.688 0-.835-.149s-.143-.383-.137-.85a6.4 6.4 0 0 0-.434-2.501a8 8 0 0 0-.117-.29c-.924-2.18.062-4.013.658-4.991c.477-.782.764-1.952.616-2.771c2.12-2.526 5.63-2.615 7.123-2.343c.165 1.59 1.233 5.582 3.185 7.314S21 12.92 21 14.474c0 1.42-.629 2.526-2.175 2.526H14.06c-1.02 0-1.53 0-2.003-.162c-.473-.163-.876-.476-1.68-1.102l-1.793-1.393zC7.51 13.508 7.48 13.5 6.128 13.5H3.495m10.005-4l-.5.5m-.5-3l-1.5.5"/><path stroke-linecap="round" d="m20.03 17l.6.8c1.05 1.396 1.574 2.094 1.297 2.647s-1.151.553-2.9.553H2"/><path d="M15 17v4m-9-4v4"/></g></g><g transform="translate(9.5 369.5) scale(1.3125)"><path fill="currentColor" d="M3.585 4.414L1.414 6.585a2 2 0 0 0 0 2.829l2.171 2.172a2 2 0 0 0 2.829 0l2.171-2.172a2 2 0 0 0 0-2.829L6.414 4.414a2 2 0 0 0-2.829 0M2.121 7.293L4.293 5.12a1 1 0 0 1 1.414 0l2.171 2.172a1 1 0 0 1 0 1.414l-2.171 2.171a1 1 0 0 1-1.414 0L2.12 8.707a1 1 0 0 1 0-1.414m7.464 4.292l-.878-.878l.586-.586q.06-.06.117-.125l.883.882a1 1 0 0 0 1.414 0l2.171-2.171a1 1 0 0 0 0-1.414l-2.17-2.173a1 1 0 0 0-1.414 0l-.883.882a3 3 0 0 0-.117-.125l-.586-.585l.878-.88a2 2 0 0 1 2.829 0l2.172 2.172a2 2 0 0 1 0 2.829l-2.172 2.172a2 2 0 0 1-2.829 0"/></g><g transform="translate(49.5 369.5) scale(0.875)"><path fill="currentColor" d="M3 19V4a1 1 0 0 1 1-1h9a1 1 0 0 1 1 1v8h2a2 2 0 0 1 2 2v4a1 1 0 1 0 2 0v-7h-2a1 1 0 0 1-1-1V6.414l-1.657-1.657l1.414-1.414l4.95 4.95A1 1 0 0 1 22 9v9a3 3 0 1 1-6 0v-4h-2v5h1v2H2v-2zm6-8V7l-4 6h3v4l4-6z"/></g><g transform="translate(89.5 369.5) scale(0.875)"><path fill="none" stroke="currentColor" stroke-linecap="round" stroke-linejoin="round" stroke-width="1.5" d="M6 12h12"/></g><g transform="translate(129.5 369.5) scale(0.875)"><path fill="currentColor" d="M12 20H5a1 1 0 0 1-1-1V5a1 1 0 0 1 1-1h5v3a3 3 0 0 0 3 3h3v1a1 1 0 0 0 2 0V8.94a1.3 1.3 0 0 0-.06-.27v-.09a1 1 0 0 0-.19-.28l-6-6a1 1 0 0 0-.28-.19a.3.3 0 0 0-.09 0a.9.9 0 0 0-.33-.11H5a3 3 0 0 0-3 3v14a3 3 0 0 0 3 3h7a1 1 0 0 0 0-2m0-14.59L14.59 8H13a1 1 0 0 1-1-1ZM7 8a1 1 0 0 0 0 2h1a1 1 0 0 0 0-2Zm14.71 12.29l-1.17-1.16A3.44 3.44 0 0 0 20 15a3.49 3.49 0 0 0-6 2.49a3.46 3.46 0 0 0 5.13 3.05l1.16 1.17a1 1 0 0 0 1.42 0a1 1 0 0 0 0-1.42m-3.17-1.75a1.54 1.54 0 0 1-2.11 0a1.5 1.5 0 0 1-.43-1.05a1.46 1.46 0 0 1 .44-1.06a1.48 1.48 0 0 1 1-.43A1.47 1.47 0 0 1 19 17.49a1.5 1.5 0 0 1-.46 1.05M13 12H7a1 1 0 0 0 0 2h6a1 1 0 0 0 0-2m-2 6a1 1 0 0 0 0-2H7a1 1 0 0 0 0 2Z"/></g><g transform="translate(169.5 369.5) scale(0.875)"><path fill="none" stroke="currentColor" stroke-linecap="round" stroke-linejoin="round" stroke-width="1.5" d="M3 7V4a1 1 0 0 1 1-1h16a1 1 0 0 1 1 1v3M3 7l6.65 5.7a1 1 0 0 1 .35.76v6.26a1 1 0 0 0 1.242.97l2-.5a1 1 0 0 0 .758-.97v-5.76a1 1 0 0 1 .35-.76L21 7M3 7h18"/></g><g transform="translate(209.5 369.5) scale(0.08203125)"><path fill="currentColor" d="M200 24H72a16 16 0 0 0-16 16v24H40a16 16 0 0 0-16 16v96a16 16 0 0 0 16 16h16v24a16 16 0 0 0 16 16h128a16 16 0 0 0 16-16V40a16 16 0 0 0-16-16m-40 80h40v48h-40ZM72 40h128v48h-40v-8a16 16 0 0 0-16-16H72ZM40 80h104v96H40Zm32 136v-24h72a16 16 0 0 0 16-16v-8h40v48Zm-3.76-62.06l-12-48a8 8 0 1 1 15.52-3.88l6.76 27l6.32-12.66a8 8 0 0 1 14.32 0l6.32 12.66l6.76-27a8 8 0 0 1 15.52 3.88l-12 48a8 8 0 0 1-6.89 6a9 9 0 0 1-.87.05a8 8 0 0 1-7.16-4.42L92 137.89l-8.84 17.69a8 8 0 0 1-14.92-1.64"/></g><g transform="translate(249.5 369.5) scale(0.65625)"><path fill="currentColor" d="M28 30H4c-1.1 0-2-.9-2-2V16h2v12h24V4H16V2h12c1.1 0 2 .9 2 2v24c0 1.1-.9 2-2 2m-5.5-17.9l-6-3q-.45-.15-.9 0l-6 3q-.45.3-.6.9v7q0 .6.6.9l6 3q.45.15.9 0l6-3q.45-.3.6-.9v-7c0-.4-.2-.7-.5-.9zm-6.5-1l3.8 1.9l-3.8 1.9l-3.8-1.9zm-5 3.5l4 2v4.8l-4-2zm6 6.8v-4.8l4-2v4.8zM0 10h5v2H0zM12 0v5h-2V0zM3.4 2l3.5 3.5l-1.4 1.4L2 3.4z"/></g><g transform="translate(289.5 369.5) scale(0.65625)"><path fill="currentColor" d="M29.383 2.076a1 1 0 0 0-1.09.217l-26 26A1 1 0 0 0 3 30h8v-2H5.414l4-4H22a2 2 0 0 0 2-2V9.415l4-4V11h2V3a1 1 0 0 0-.617-.924M22 22H11.414L22 11.415Zm-12-4.245V10h7.755l2-2H10a2.003 2.003 0 0 0-2 2v9.755ZM11 2H2v9h2V4h7zm10 28h9v-9h-2v7h-7zM4 23.755V21H2v4.754zM25.755 2H21v2h2.755z"/></g><g transform="translate(329.5 369.5) scale(0.875)"><path fill="none" stroke="currentColor" stroke-linecap="round" stroke-width="1.5" d="M12 13.154V21m5-12.615v2.769a2 2 0 0 1-2 2H9a2 2 0 0 1-2-2v-2.77a2 2 0 0 1 2-2h6a2 2 0 0 1 2 2Zm-1.667-2V3M8.667 6.385V3"/></g><g transform="translate(369.5 369.5) scale(0.875)"><g fill="none" stroke="currentColor" stroke-linecap="round" stroke-linejoin="round" stroke-width="1.5"><path d="M4 22V9.456c0-3.245 0-4.868.886-5.967a4 4 0 0 1 .603-.603C6.59 2 8.211 2 11.456 2c.705 0 1.058 0 1.381.114q.1.036.197.082c.31.148.559.397 1.058.896l4.736 4.736c.579.578.867.868 1.02 1.235c.152.368.152.776.152 1.594V14c0 3.771 0 5.657-1.172 6.828c-.93.932-2.314 1.123-4.736 1.162M13 2.5V3c0 2.828 0 4.243.879 5.121C14.757 9 16.172 9 19 9h.5m-12-3.5H7m3 2h-.5m-2 2H7m3 2.023h-.5m-2 1.977H7"/><path d="M11 22v-3a2 2 0 1 0-4 0v3z"/></g></g><g transform="translate(409.5 369.5) scale(1.3125)"><g fill="currentColor"><path d="M8.707 1.5a1 1 0 0 0-1.414 0L.646 8.146a.5.5 0 0 0 .708.708L8 2.207l6.646 6.647a.5.5 0 0 0 .708-.708L13 5.793V2.5a.5.5 0 0 0-.5-.5h-1a.5.5 0 0 0-.5.5v1.293z"/><path d="m8 3.293l4.72 4.72a3 3 0 0 0-2.709 3.248A2 2 0 0 0 9 13v2H3.5A1.5 1.5 0 0 1 2 13.5V9.293z"/><path d="M13 9a2 2 0 0 0-2 2v1a1 1 0 0 0-1 1v2a1 1 0 0 0 1 1h4a1 1 0 0 0 1-1v-2a1 1 0 0 0-1-1v-1a2 2 0 0 0-2-2m0 1a1 1 0 0 1 1 1v1h-2v-1a1 1 0 0 1 1-1"/></g></g><g transform="translate(449.5 369.5) scale(0.875)"><g fill="none" stroke="currentColor" stroke-linecap="round" stroke-linejoin="round" stroke-width="2"><path d="M14 18a2 2 0 1 0 4 0a2 2 0 1 0-4 0m-8 0a2 2 0 1 0 4 0a2 2 0 1 0-4 0M4 8l2.1 2.8A3 3 0 0 0 8.5 12H20M10 6h4m-2-2v4"/><path d="M12 12v2l-2.5 2.5m5 0L12 14"/></g></g><g transform="translate(9.5 409.5) scale(0.875)"><path fill="currentColor" d="M12 2c5.523 0 10 4.477 10 10a10 10 0 0 1-20 0l.004-.28C2.152 6.327 6.57 2 12 2m1.334 5H10a1 1 0 0 0-1 1v8a1 1 0 0 0 1 1l.117-.007A1 1 0 0 0 11 16v-3h2.334C14.85 13 16 11.62 16 10s-1.15-3-2.666-3m0 2c.323 0 .666.411.666 1s-.343 1-.666 1H11V9z"/></g><g transform="translate(49.5 409.5) scale(0.875)"><path fill="none" stroke="currentColor" stroke-linecap="round" stroke-linejoin="round" stroke-width="1.5" d="M11.977 5.176q.33-.272.687-.626c2.3-2.284 5.432-1.837 6.899 0c3.605 4.514-.432 11.594-2.741 15.69c-.263.466-.787.76-1.35.76c-.9 0-1.603-.72-1.633-1.56c-.06-1.74-.464-3.845-1.839-3.94c-1.375.095-1.826 2.2-1.886 3.94c-.03.84-.733 1.56-1.632 1.56c-.564 0-1.088-.294-1.35-.76c-3.288-5.832-4.178-9.491-4.13-11.84c1.998.1 2.99-.9 2.99-2.7C8 6 9 4.829 9 3c1 0 1.575.84 2.29 1.55q.355.353.687.626m0 0C13.469 6.412 14.5 6.5 15 6"/></g><g transform="translate(89.5 409.5) scale(0.875)"><g fill="none" fill-rule="evenodd"><path d="m12.594 23.258l-.012.002l-.071.035l-.02.004l-.014-.004l-.071-.036q-.016-.004-.024.006l-.004.01l-.017.428l.005.02l.01.013l.104.074l.015.004l.012-.004l.104-.074l.012-.016l.004-.017l-.017-.427q-.004-.016-.016-.018m.264-.113l-.014.002l-.184.093l-.01.01l-.003.011l.018.43l.005.012l.008.008l.201.092q.019.005.029-.008l.004-.014l-.034-.614q-.005-.019-.02-.022m-.715.002a.02.02 0 0 0-.027.006l-.006.014l-.034.614q.001.018.017.024l.015-.002l.201-.093l.01-.008l.003-.011l.018-.43l-.003-.012l-.01-.01z"/><path fill="currentColor" d="M7.747 5.592a24.3 24.3 0 0 1 3.672-3.406a1 1 0 0 1 1.162 0a25 25 0 0 1 3.672 3.406C18.584 8.256 20 11.088 20 14a8 8 0 1 1-16 0c0-2.912 1.415-5.743 3.747-8.408m4.696-.958A19 19 0 0 0 12 4.265l-.443.37a23 23 0 0 0-2.304 2.274C7.21 9.243 6 11.663 6 14c0 1.429.5 2.74 1.333 3.77a5 5 0 0 1-.023-.464c0-1.673.796-3.265 2.095-4.75c.6-.685 1.28-1.331 2.018-1.87a1 1 0 0 1 1.163 0c.74.53 1.42 1.187 2.018 1.87c1.3 1.485 2.095 3.077 2.095 4.75q0 .228-.022.452A5.98 5.98 0 0 0 18 14c0-2.338-1.21-4.757-3.253-7.091a23 23 0 0 0-2.304-2.275m-.439 8.152c-.385.342-.755.7-1.094 1.088c-1.01 1.154-1.6 2.334-1.6 3.432a2.694 2.694 0 0 0 5.389 0c0-1.098-.59-2.278-1.6-3.432c-.19-.218-1.133-1.121-1.095-1.088"/></g></g><g transform="translate(129.5 409.5) scale(0.08203125)"><path fill="currentColor" d="M128 42a94 94 0 1 0 94 94a94.11 94.11 0 0 0-94-94m0 176a82 82 0 1 1 82-82a82.1 82.1 0 0 1-82 82M60.24 36.24l-32 32a6 6 0 1 1-8.48-8.48l32-32a6 6 0 1 1 8.48 8.48m176 32a6 6 0 0 1-8.48 0l-32-32a6 6 0 0 1 8.48-8.48l32 32a6 6 0 0 1 0 8.48M184 130a6 6 0 0 1 0 12h-56a6 6 0 0 1-6-6V80a6 6 0 0 1 12 0v50Z"/></g><g transform="translate(169.5 409.5) scale(0.875)"><path fill="currentColor" fill-rule="evenodd" d="M2.25 3.6c0-.746.604-1.35 1.35-1.35h16.8c.746 0 1.35.604 1.35 1.35v16.8a1.35 1.35 0 0 1-1.35 1.35H3.6a1.35 1.35 0 0 1-1.35-1.35zM12 6.25a.75.75 0 0 1 .75.75v6a.75.75 0 0 1-1.5 0V7a.75.75 0 0 1 .75-.75m.568 11.25a.75.75 0 0 0-1.115-1.003l-.01.011a.75.75 0 0 0 1.114 1.004z" clip-rule="evenodd"/></g><g transform="translate(209.5 409.5) scale(0.875)"><g fill="none" stroke="currentColor" stroke-linecap="round" stroke-linejoin="round" stroke-width="2"><path d="M11 11.31c1.17.56 1.54 1.69 3.5 1.69c2.5 0 2.5-2 5-2c1.3 0 1.9.5 2.5 1m-10.25 6c.35.5 1.45 1 2.75 1c2.5 0 2.5-2 5-2c1.3 0 1.9.5 2.5 1M2 10h4m-4 4h4m-4 4h4M2 6h4"/><path d="M7 3a1 1 0 0 0-1 1v16a1 1 0 0 0 1 1h4a1 1 0 0 0 1-1L10 4a1 1 0 0 0-1-1z"/></g></g><g transform="translate(249.5 409.5) scale(1.3125)"><path fill="currentColor" d="M8 1a7 7 0 1 0 0 14A7 7 0 0 0 8 1M6.9 6.052a.5.5 0 0 1-.8-.602a2.7 2.7 0 0 1 .504-.48c.313-.227.79-.47 1.396-.47a2 2 0 0 1 2 2c0 .548-.275 1.006-.59 1.373c-.308.36-.71.696-1.073.998l-.017.014c-.383.32-.723.605-.972.895q-.099.115-.168.22H9.5a.5.5 0 0 1 0 1h-3a.5.5 0 0 1-.5-.5c0-.548.275-1.005.59-1.371c.308-.36.709-.694 1.07-.996l.02-.016c.383-.32.723-.605.971-.895C8.9 6.932 9 6.702 9 6.5a1 1 0 0 0-1-1c-.331 0-.605.132-.807.28c-.1.072-.177.145-.228.198c-.038.04-.066.074-.066.074"/></g><g transform="translate(289.5 409.5) scale(0.875)"><path fill="currentColor" d="M4 11h10v2H4zm0-5h16v2H4zm0 10h10v2H4zm12 4l6-4l-6-4z"/></g><g transform="translate(329.5 409.5) scale(0.08203125)"><g fill="currentColor"><path d="M208 56v144a8 8 0 0 1-8 8H56a8 8 0 0 1-8-8V56a8 8 0 0 1 8-8h144a8 8 0 0 1 8 8" opacity=".2"/><path d="M200 40H56a16 16 0 0 0-16 16v144a16 16 0 0 0 16 16h144a16 16 0 0 0 16-16V56a16 16 0 0 0-16-16M56 56h64v144H56Zm144 144h-64V56h64z"/></g></g><g transform="translate(369.5 409.5) scale(0.875)"><g fill="none" stroke="currentColor" stroke-linecap="round" stroke-linejoin="round" stroke-width="1.5"><path d="M7 13.5V9c0-3 5-3 5 0v3m5 1.5V9c0-3-5-3-5 0v3"/><path d="M8 17c7.5 1 13 0 13-4V9c0-5.5-4-6.5-6-6.5H9c-3 0-6.067 1-5.863 6.5c.074 1.987.036 4.385.363 7c1 8 10.5 5.5 12 5v-1.5S7.5 21 8 17"/></g></g><g transform="translate(409.5 409.5) scale(0.875)"><path fill="currentColor" d="M10.75 4a.75.75 0 0 0 0 1.5h1.59a.75.75 0 0 1 .666.403l1.663 3.187A2.5 2.5 0 0 0 14 9h-.457a3.84 3.84 0 0 0-3.334 1.935L9.315 12.5H4.75a3.75 3.75 0 1 0 3.537 5h2.012a3.25 3.25 0 0 0 2.822-1.638l.493-.862h-1.728l-.006.011a1 1 0 0 0-.13-.011H8.287a3.7 3.7 0 0 0-.537-1h6.435l.004-.007a2.5 2.5 0 0 0 2.17-1.663l.526 1.01a3.75 3.75 0 1 0 1.33-.695l-1.064-2.04c.389.25.852.395 1.349.395h1.75a.75.75 0 0 0 .75-.75v-3.5a.75.75 0 0 0-.75-.75H18.5a2.5 2.5 0 0 0-2.498 2.403l-1.666-3.194A2.25 2.25 0 0 0 12.34 4zm6.854 10.716l.981 1.88a.75.75 0 1 0 1.33-.693l-.982-1.88Q19.09 14 19.25 14a2.25 2.25 0 1 1-1.646.716M17.5 8.5a1 1 0 0 1 1-1h1v2h-1a1 1 0 0 1-1-1M4.75 14a2.25 2.25 0 1 1 0 4.5a2.25 2.25 0 0 1 0-4.5"/></g><g transform="translate(449.5 409.5) scale(1.05)"><path fill="currentColor" fill-rule="evenodd" d="M18 10a8 8 0 1 1-16 0a8 8 0 0 1 16 0M8.94 6.94a.75.75 0 1 1-1.061-1.061a3 3 0 1 1 2.871 5.026v.345a.75.75 0 0 1-1.5 0v-.5c0-.72.57-1.172 1.081-1.287A1.5 1.5 0 1 0 8.94 6.94M10 15a1 1 0 1 0 0-2a1 1 0 0 0 0 2" clip-rule="evenodd"/></g><g transform="translate(9.5 449.5) scale(0.875)"><path fill="none" stroke="currentColor" stroke-linecap="round" stroke-linejoin="round" stroke-width="1.5" d="M11.456 2.665a.6.6 0 0 1 1.088 0l2.864 6.137a.6.6 0 0 0 .29.29l6.137 2.864a.6.6 0 0 1 0 1.088l-6.137 2.864a.6.6 0 0 0-.29.29l-2.864 6.137a.6.6 0 0 1-1.088 0l-2.864-6.137a.6.6 0 0 0-.29-.29l-6.137-2.864a.6.6 0 0 1 0-1.088l6.137-2.864a.6.6 0 0 0 .29-.29z"/></g><g transform="translate(49.5 449.5) scale(0.4375)"><path fill="none" stroke="currentColor" stroke-linecap="round" stroke-linejoin="round" stroke-width="4" d="M12 36v8h32V12h-8v8h-8v8h-8v8zm6-23l9-9m-6 0h6v6M10 27H4v-6m9-3l-9 9"/></g><g transform="translate(89.5 449.5) scale(0.875)"><path fill="currentColor" d="M19.91 15.51h-4.53a1 1 0 0 0 0 2h2.4A8 8 0 0 1 4 12a1 1 0 0 0-2 0a10 10 0 0 0 16.88 7.23V21a1 1 0 0 0 2 0v-4.5a1 1 0 0 0-.97-.99M12 2a10 10 0 0 0-6.88 2.77V3a1 1 0 0 0-2 0v4.5a1 1 0 0 0 1 1h4.5a1 1 0 0 0 0-2h-2.4A8 8 0 0 1 20 12a1 1 0 0 0 2 0A10 10 0 0 0 12 2"/></g><g transform="translate(129.5 449.5) scale(0.875)"><g fill="none" fill-rule="evenodd"><path d="m12.594 23.258l-.012.002l-.071.035l-.02.004l-.014-.004l-.071-.036q-.016-.004-.024.006l-.004.01l-.017.428l.005.02l.01.013l.104.074l.015.004l.012-.004l.104-.074l.012-.016l.004-.017l-.017-.427q-.004-.016-.016-.018m.264-.113l-.014.002l-.184.093l-.01.01l-.003.011l.018.43l.005.012l.008.008l.201.092q.019.005.029-.008l.004-.014l-.034-.614q-.005-.019-.02-.022m-.715.002a.02.02 0 0 0-.027.006l-.006.014l-.034.614q.001.018.017.024l.015-.002l.201-.093l.01-.008l.003-.011l.018-.43l-.003-.012l-.01-.01z"/><path fill="currentColor" d="M15 4a1 1 0 1 0 0 2a1 1 0 0 0 0-2m-3 1a3 3 0 1 1 3.156 2.996l-2.32 5.304a.5.5 0 0 0 .457.7H15.6a3 3 0 0 1 2.82 1.975l1.385 3.809l.643.322a1 1 0 1 1-.894 1.788l-1-.5a1 1 0 0 1-.493-.552l-1.521-4.184A1 1 0 0 0 15.6 16h-2.306c-1.802 0-3.012-1.85-2.29-3.502l1.033-2.362L10 9.118l-3.553 1.776a1 1 0 1 1-.894-1.788l3.553-1.777a2 2 0 0 1 1.788 0l1.945.973l.386-.883A3 3 0 0 1 12 5m-6.182 7.913a4.5 4.5 0 1 0 7.692 4.632l1.78.91a6.5 6.5 0 1 1-11.108-6.694z"/></g></g><g transform="translate(169.5 449.5) scale(0.875)"><path fill="currentColor" d="m19.5 6.13l-7-4a.98.98 0 0 0-.99 0l-7 4c-.15.08-.27.21-.36.35l-3 5l1.71 1.03l.14-.24v8.72c0 .55.45 1 1 1h16c.55 0 1-.45 1-1v-8.72l.14.24l1.71-1.03l-3-5a.93.93 0 0 0-.36-.35ZM11.24 17.5L9 19.46v-3.92zm.76.66L14.1 20H9.9zm.76-.66L15 15.54v3.92zm-.76-.66L9.9 15h4.2zM19 9v11h-2v-6c0-.55-.45-1-1-1H8c-.55 0-1 .45-1 1v6H5V9h-.03l.76-1.26l6.28-3.59l6.28 3.59l.76 1.26h-.03Z"/><path fill="currentColor" d="M12 7a2 2 0 1 0 0 4a2 2 0 1 0 0-4"/></g><g transform="translate(209.5 449.5) scale(0.875)"><path fill="none" stroke="currentColor" stroke-linecap="round" stroke-linejoin="round" stroke-width="2" d="M15 11h4.5a1 1 0 0 1 0 5h-4a.5.5 0 0 1-.5-.5v-9a.5.5 0 0 1 .5-.5h3a1 1 0 0 1 0 5M2 16l4.039-9.69a.5.5 0 0 1 .923 0L11 16m-7.696-3h6.392"/></g><g transform="translate(249.5 449.5) scale(0.875)"><path fill="currentColor" d="M21 3H3a1 1 0 0 0-1 1v16a1 1 0 0 0 1 1h18a1 1 0 0 0 1-1V4a1 1 0 0 0-1-1m-9 13a3 3 0 0 1-3-3H4V5h16v8h-5a3 3 0 0 1-3 3m4-7h-3V6h-2v3H8l4 4.5z"/></g><g transform="translate(289.5 449.5) scale(0.875)"><path fill="currentColor" d="M17 3.34A10 10 0 1 1 2 12l.005-.324A10 10 0 0 1 17 3.34M13 6a3 3 0 0 0-3 3v2H9a1 1 0 0 0-.993.883L8 12a1 1 0 0 0 1 1h1v1a1 1 0 0 1-.77.974l-.113.02L9 15c-1.287 0-1.332 1.864-.133 1.993L9 17h6a1 1 0 0 0 1-1l-.007-.117A1 1 0 0 0 15 15h-3.171l.048-.148A3 3 0 0 0 12 14v-1h1a1 1 0 0 0 .993-.883L14 12a1 1 0 0 0-1-1h-1V9a1 1 0 0 1 .883-.993L13 8a1 1 0 0 1 .993.883L14 9a1 1 0 0 0 2 0a3 3 0 0 0-3-3"/></g><g transform="translate(329.5 449.5) scale(0.875)"><path fill="currentColor" d="M20.59 6.9a1 1 0 0 0-.07-.1A10 10 0 0 0 7.6 3h-.07a10 10 0 0 0-1 17.19l.33.2l.1.07A9.93 9.93 0 0 0 12 22h.21a10 10 0 0 0 8.38-15.1M19 8.06a7.6 7.6 0 0 1 .65 1.46a10 10 0 0 0-3-.49a.8.8 0 0 0-.31 0a9.8 9.8 0 0 0-3.58.73a7.9 7.9 0 0 1-1.84-1.6a8.16 8.16 0 0 1 8.08-.1M12 4a7.86 7.86 0 0 1 4 1.07A8 8 0 0 0 15 5a10 10 0 0 0-5.2 1.47a8 8 0 0 1-.64-1.94A7.9 7.9 0 0 1 12 4M6 6.71a8.3 8.3 0 0 1 1.33-1.19A9.9 9.9 0 0 0 12 11.61a7.9 7.9 0 0 1-.77 2.88A8 8 0 0 1 6 7zM4 12a8.1 8.1 0 0 1 .36-2.37a10 10 0 0 0 5.7 6.56a7.84 7.84 0 0 1-2.93 2.14A8 8 0 0 1 4 12m7.86 8a7.8 7.8 0 0 1-2.61-.49a9.94 9.94 0 0 0 3.23-3.22A10 10 0 0 0 14 11.41a7.7 7.7 0 0 1 1.78-.36A8 8 0 0 1 11.86 20m4.22-1.12A9.94 9.94 0 0 0 18 13a10.7 10.7 0 0 0-.18-1.88a8.3 8.3 0 0 1 2.17.7V12a8 8 0 0 1-3.91 6.87Z"/></g><g transform="translate(369.5 449.5) scale(0.875)"><path fill="currentColor" d="M2 20V8h5V4h10v4h5v12zm6-5v1H6v-1H4v3h16v-3h-2v1h-2v-1zm-4-5v3h2v-1h2v1h8v-1h2v1h2v-3zm5-2h6V6H9z"/></g><g transform="translate(409.5 449.5) scale(0.4375)"><g fill="none" stroke="currentColor" stroke-linecap="round" stroke-width="4"><path d="M12.566 27.182Q10 28.941 10 33c0 4.06 4.975 11 9.462 11h11.48C35.332 44 38 40.15 38 37.06V24.01a3 3 0 0 0-3-3h-.01A2.99 2.99 0 0 0 32 24"/><path d="M13.981 29.445v-18.44a3 3 0 0 1 3.006-2.997a3.014 3.014 0 0 1 3.006 3.015v13.569"/><path stroke-linejoin="round" d="M19.993 24.008V7.015a3.016 3.016 0 0 1 6.03 0v16.993"/><path stroke-linejoin="round" d="M26 23.716v-2.713a3 3 0 0 1 6 0v3"/></g></g><g transform="translate(449.5 449.5) scale(0.875)"><path fill="currentColor" d="m4 21l-2-2h20l-2 2zm-1-3q.15-.45.4-.85t.6-.75V9H3V7.5h1v-.75H3v-1.5h1V4.5H3V3h9v2.25h9v1.5h-9V9H8v6.1q.35.05.7.15t.65.3q.65-1.625 2.075-2.587t3.15-.963q2.25 0 3.838 1.538T20 17.3v.7zm8.35-2h6.3q-.425-.9-1.25-1.45T14.575 14q-1.05 0-1.925.525T11.35 16M8 5.25h2V4.5H8zM8 7.5h2v-.75H8zM5.5 5.25h1V4.5h-1zm0 2.25h1v-.75h-1zm0 7.85q.25-.125.488-.187t.512-.113V9h-1zm9 .65"/></g></svg>
