<!-- 自動生成ファイル。編集禁止。再生成は pnpm run build-bg-icons を実行する。 -->
<svg xmlns="http://www.w3.org/2000/svg" viewBox="0 0 480 480"><g transform="translate(9.5 9.5) scale(0.875)"><g fill="none" stroke="currentColor" stroke-linecap="round" stroke-linejoin="round" stroke-width="2"><path d="M10 10v.2A3 3 0 0 1 8.9 16H5a3 3 0 0 1-1-5.8V10a3 3 0 0 1 6 0m-3 6v6m6-3v3"/><path d="M12 19h8.3a1 1 0 0 0 .7-1.7L18 14h.3a1 1 0 0 0 .7-1.7L16 9h.2a1 1 0 0 0 .8-1.7L13 3l-1.4 1.5"/></g></g><g transform="translate(49.5 9.5) scale(0.875)"><g fill="none" stroke="currentColor" stroke-linecap="round" stroke-linejoin="round" stroke-width="2"><path d="m2 16l4.039-9.69a.5.5 0 0 1 .923 0L11 16m11-7v7M3.304 13h6.392"/><circle cx="18.5" cy="12.5" r="3.5"/></g></g><g transform="translate(89.5 9.5) scale(0.875)"><path fill="none" stroke="currentColor" stroke-linecap="round" stroke-linejoin="round" stroke-width="2" d="M4 14.899A7 7 0 1 1 15.71 8h1.79a4.5 4.5 0 0 1 2.5 8.242M8 15h.01M8 19h.01M12 17h.01M12 21h.01M16 15h.01M16 19h.01"/></g><g transform="translate(129.5 9.5) scale(0.875)"><path fill="none" stroke="currentColor" stroke-linecap="round" stroke-linejoin="round" stroke-width="2" d="M14 14v2m0 4v2m0-20v2m0 4v2M2 15h8M2 3h6a2 2 0 0 1 2 2v14a2 2 0 0 1-2 2H2M2 9h8m12 6h-4m4-12h-2a2 2 0 0 0-2 2v14a2 2 0 0 0 2 2h2m0-12h-4M5 3v18"/></g><g transform="translate(169.5 9.5) scale(0.875)"><g fill="none" stroke="currentColor" stroke-linecap="round" stroke-linejoin="round" stroke-width="2"><path d="M4 11V4a2 2 0 0 1 2-2h8a2.4 2.4 0 0 1 1.706.706l3.588 3.588A2.4 2.4 0 0 1 20 8v12a2 2 0 0 1-2 2H6a2 2 0 0 1-2-2v-3a2 2 0 0 1 2-2h7"/><path d="M14 2v5a1 1 0 0 0 1 1h5M10 18l3-3l-3-3"/></g></g><g transform="translate(209.5 9.5) scale(0.875)"><path fill="none" stroke="currentColor" stroke-linecap="round" stroke-linejoin="round" stroke-width="2" d="m11 19l-6-6m0 8l-2-2m5-3l-4 4m5.5-2.5L21 6V3h-3L6.5 14.5"/></g><g transform="translate(249.5 9.5) scale(0.875)"><path fill="none" stroke="currentColor" stroke-linecap="round" stroke-linejoin="round" stroke-width="2" d="M4 22V4a1 1 0 0 1 .4-.8A6 6 0 0 1 8 2c3 0 5 2 7.333 2q2 0 3.067-.8A1 1 0 0 1 20 4v10a1 1 0 0 1-.4.8A6 6 0 0 1 16 16c-3 0-5-2-8-2a6 6 0 0 0-4 1.528"/></g><g transform="translate(289.5 9.5) scale(0.875)"><g fill="none" stroke="currentColor" stroke-linecap="round" stroke-linejoin="round" stroke-width="2"><circle cx="12" cy="12" r="4"/><path d="M16 8v5a3 3 0 0 0 6 0v-1a10 10 0 1 0-4 8"/></g></g><g transform="translate(329.5 9.5) scale(0.875)"><g fill="none" stroke="currentColor" stroke-linecap="round" stroke-linejoin="round" stroke-width="2"><circle cx="18" cy="18" r="3"/><circle cx="6" cy="6" r="3"/><path d="M6 21V9a9 9 0 0 0 9 9"/></g></g><g transform="translate(369.5 9.5) scale(0.875)"><path fill="none" stroke="currentColor" stroke-linecap="round" stroke-linejoin="round" stroke-width="2" d="M12 19v3m0-20v3m6.89 8.24a7 7 0 0 0-8.13-8.13M19 12h3M2 12h3M2 2l20 20M7.05 7.05a7 7 0 0 0 9.9 9.9"/></g><g transform="translate(409.5 9.5) scale(0.875)"><g fill="none" stroke="currentColor" stroke-linecap="round" stroke-linejoin="round" stroke-width="2"><circle cx="12" cy="12" r="8"/><path d="M12 2v7.5M19 5l-5.23 5.23M22 12h-7.5m4.5 7l-5.23-5.23M12 14.5V22m-1.77-8.23L5 19m4.5-7H2m8.23-1.77L5 5"/><circle cx="12" cy="12" r="2.5"/></g></g><g transform="translate(449.5 9.5) scale(0.875)"><path fill="none" stroke="currentColor" stroke-linecap="round" stroke-linejoin="round" stroke-width="2" d="m18 8l4 4l-4 4M2 12h20M6 8l-4 4l4 4"/></g><g transform="translate(9.5 49.5) scale(0.875)"><g fill="none" stroke="currentColor" stroke-linecap="round" stroke-linejoin="round" stroke-width="2"><circle cx="5" cy="6" r="3"/><path d="M5 9v6"/><circle cx="5" cy="18" r="3"/><path d="M12 3v18"/><circle cx="19" cy="6" r="3"/><path d="M16 15.7A9 9 0 0 0 19 9"/></g></g><g transform="translate(49.5 49.5) scale(0.875)"><path fill="none" stroke="currentColor" stroke-linecap="round" stroke-linejoin="round" stroke-width="2" d="M4 10h12M4 14h9m6-8a7.7 7.7 0 0 0-5.2-2A7.9 7.9 0 0 0 6 12c0 4.4 3.5 8 7.8 8c2 0 3.8-.8 5.2-2"/></g><g transform="translate(89.5 49.5) scale(0.875)"><g fill="none" stroke="currentColor" stroke-linecap="round" stroke-linejoin="round" stroke-width="2"><path d="M8 2h8M9 2v2.789a4 4 0 0 1-.672 2.219l-.656.984A4 4 0 0 0 7 10.212V20a2 2 0 0 0 2 2h6a2 2 0 0 0 2-2v-9.789a4 4 0 0 0-.672-2.219l-.656-.984A4 4 0 0 1 15 4.788V2"/><path d="M7 15a6.47 6.47 0 0 1 5 0a6.47 6.47 0 0 0 5 0"/></g></g><g transform="translate(129.5 49.5) scale(0.875)"><g fill="none" stroke="currentColor" stroke-linecap="round" stroke-linejoin="round" stroke-width="2"><circle cx="12" cy="12" r="10"/><path d="M17 12h.01M12 12h.01M7 12h.01"/></g></g><g transform="translate(169.5 49.5) scale(0.875)"><g fill="none" stroke="currentColor" stroke-linecap="round" stroke-linejoin="round" stroke-width="2"><path d="M10.3 20H4a2 2 0 0 1-2-2V5a2 2 0 0 1 2-2h3.98a2 2 0 0 1 1.69.9l.66 1.2A2 2 0 0 0 12 6h8a2 2 0 0 1 2 2v3.3m-7.695 8.23l.923-.382m0-2.296l-.923-.383m2.547-1.241l-.383-.923m.383 6.467l-.383.924m2.679-6.468l.383-.923m-.001 7.391l-.382-.924m1.624-3.92l.924-.383m-.924 2.679l.924.383"/><circle cx="18" cy="18" r="3"/></g></g><g transform="translate(209.5 49.5) scale(0.875)"><path fill="none" stroke="currentColor" stroke-linecap="round" stroke-linejoin="round" stroke-width="2" d="M12 2v20m-4-4l4 4l4-4M8 6l4-4l4 4"/></g><g transform="translate(249.5 49.5) scale(0.875)"><g fill="none" stroke="currentColor" stroke-linecap="round" stroke-linejoin="round" stroke-width="2"><path d="M15 12h-5m5-4h-5m9 9V5a2 2 0 0 0-2-2H4"/><path d="M8 21h12a2 2 0 0 0 2-2v-1a1 1 0 0 0-1-1H11a1 1 0 0 0-1 1v1a2 2 0 1 1-4 0V5a2 2 0 1 0-4 0v2a1 1 0 0 0 1 1h3"/></g></g><g transform="translate(289.5 49.5) scale(0.875)"><g fill="none" stroke="currentColor" stroke-linecap="round" stroke-linejoin="round" stroke-width="2"><path d="M12 10v2.2l1.6 1m2.53-5.54l-.81-4.05a2 2 0 0 0-2-1.61h-2.68a2 2 0 0 0-2 1.61l-.78 4.05m.02 8.7l.8 4a2 2 0 0 0 2 1.61h2.72a2 2 0 0 0 2-1.61l.81-4.05"/><circle cx="12" cy="12" r="6"/></g></g><g transform="translate(329.5 49.5) scale(0.875)"><path fill="none" stroke="currentColor" stroke-linecap="round" stroke-linejoin="round" stroke-width="2" d="M22 17a2 2 0 0 1-2 2H6.828a2 2 0 0 0-1.414.586l-2.202 2.202A.71.71 0 0 1 2 21.286V5a2 2 0 0 1 2-2h16a2 2 0 0 1 2 2zm-10-2h.01M12 7v4"/></g><g transform="translate(369.5 49.5) scale(0.875)"><g fill="none" stroke="currentColor" stroke-linecap="round" stroke-linejoin="round" stroke-width="2"><path d="M3 11h3a2 2 0 0 1 2 2v3a2 2 0 0 1-2 2H5a2 2 0 0 1-2-2zm0 0a9 9 0 1 1 18 0m0 0v5a2 2 0 0 1-2 2h-1a2 2 0 0 1-2-2v-3a2 2 0 0 1 2-2z"/><path d="M21 16v2a4 4 0 0 1-4 4h-5"/></g></g><g transform="translate(409.5 49.5) scale(0.875)"><g fill="none" stroke="currentColor" stroke-linecap="round" stroke-linejoin="round" stroke-width="2"><rect width="18" height="18" x="3" y="3" rx="2" ry="2"/><circle cx="9" cy="9" r="2"/><path d="m21 15l-3.086-3.086a2 2 0 0 0-2.828 0L6 21"/></g></g><g transform="translate(449.5 49.5) scale(0.875)"><path fill="none" stroke="currentColor" stroke-linecap="round" stroke-linejoin="round" stroke-width="2" d="M20 4L9 15m12 4H3m6-4l-5-5"/></g><g transform="translate(9.5 89.5) scale(0.875)"><g fill="none" stroke="currentColor" stroke-linecap="round" stroke-linejoin="round" stroke-width="2"><path d="M10 10H6m8 8V6a2 2 0 0 0-2-2H4a2 2 0 0 0-2 2v11a1 1 0 0 0 1 1h2m14 0h2a1 1 0 0 0 1-1v-3.28a1 1 0 0 0-.684-.948l-1.923-.641a1 1 0 0 1-.578-.502l-1.539-3.076A1 1 0 0 0 16.382 8H14M8 8v4m1 6h6"/><circle cx="17" cy="18" r="2"/><circle cx="7" cy="18" r="2"/></g></g><g transform="translate(49.5 89.5) scale(0.875)"><g fill="none" stroke="currentColor" stroke-linecap="round" stroke-linejoin="round" stroke-width="2"><path d="M11 7a16 16 20 0 1 10.98 4.362M12 12a13 13 0 0 1-8.66 5m13.49-3.366a16 16 0 0 1-9.267 7.328"/><path d="M20.66 17A13 13 0 0 0 12 12a13 13 0 0 1 0-10M8.17 15.366a16 16 0 0 1-1.713-11.69"/><circle cx="12" cy="12" r="10"/></g></g><g transform="translate(89.5 89.5) scale(0.875)"><g fill="none" stroke="currentColor" stroke-linecap="round" stroke-linejoin="round" stroke-width="2"><path d="M12 7v6m0-4h2M3 12a9 9 0 1 0 9-9a9.74 9.74 0 0 0-6.74 2.74L3 8"/><path d="M3 3v5h5"/><circle cx="12" cy="15" r="2"/></g></g><g transform="translate(129.5 89.5) scale(0.875)"><g fill="none" stroke="currentColor" stroke-linecap="round" stroke-linejoin="round" stroke-width="2"><circle cx="12" cy="12" r="8"/><path d="m3 3l3 3m15-3l-3 3M3 21l3-3m15 3l-3-3"/></g></g><g transform="translate(169.5 89.5) scale(0.875)"><path fill="none" stroke="currentColor" stroke-linecap="round" stroke-linejoin="round" stroke-width="2" d="M10.1 2.182a10 10 0 0 1 3.8 0m0 19.636a10 10 0 0 1-3.8 0M17.609 3.72a10 10 0 0 1 2.69 2.7M2.182 13.9a10 10 0 0 1 0-3.8m18.098 7.51a10 10 0 0 1-2.7 2.69m4.238-10.2a10 10 0 0 1 0 3.8M3.721 6.391a10 10 0 0 1 2.7-2.69m-.258 17.416l-2.906.85a1 1 0 0 1-1.236-1.169l.965-2.98"/></g><g transform="translate(209.5 89.5) scale(0.875)"><g fill="none" stroke="currentColor" stroke-linecap="round" stroke-linejoin="round" stroke-width="2"><path d="M11.35 22H6a2 2 0 0 1-2-2V4a2 2 0 0 1 2-2h8a2.4 2.4 0 0 1 1.706.706l3.588 3.588A2.4 2.4 0 0 1 20 8v5.35"/><path d="M14 2v5a1 1 0 0 0 1 1h5m-6 11h6m-3-3v6"/></g></g><g transform="translate(249.5 89.5) scale(0.875)"><path fill="none" stroke="currentColor" stroke-linecap="round" stroke-linejoin="round" stroke-width="2" d="M3 5h8m-8 7h8m-8 7h8m4-11l3-3l3 3m-6 8l3 3l3-3"/></g><g transform="translate(289.5 89.5) scale(0.875)"><g fill="none" stroke="currentColor" stroke-linecap="round" stroke-linejoin="round" stroke-width="2"><circle cx="7.5" cy="7.5" r=".5" fill="currentColor"/><circle cx="18.5" cy="5.5" r=".5" fill="currentColor"/><circle cx="11.5" cy="11.5" r=".5" fill="currentColor"/><circle cx="7.5" cy="16.5" r=".5" fill="currentColor"/><circle cx="17.5" cy="14.5" r=".5" fill="currentColor"/><path d="M3 3v16a2 2 0 0 0 2 2h16"/></g></g><g transform="translate(329.5 89.5) scale(0.875)"><g fill="none" stroke="currentColor" stroke-linecap="round" stroke-linejoin="round" stroke-width="2"><path d="M12 22V12m8.27 6.27L22 20m-1-9.502V8a2 2 0 0 0-1-1.73l-7-4a2 2 0 0 0-2 0l-7 4A2 2 0 0 0 3 8v8a2 2 0 0 0 1 1.729l7 4a2 2 0 0 0 2 .001l.98-.559"/><path d="M3.29 7L12 12l8.71-5M7.5 4.27l8.997 5.148"/><circle cx="18.5" cy="16.5" r="2.5"/></g></g><g transform="translate(369.5 89.5) scale(0.875)"><g fill="none" stroke="currentColor" stroke-linecap="round" stroke-linejoin="round" stroke-width="2"><circle cx="12" cy="12" r="10"/><path d="m9 15l6-6"/></g></g><g transform="translate(409.5 89.5) scale(0.875)"><g fill="none" stroke="currentColor" stroke-linecap="round" stroke-linejoin="round" stroke-width="2"><path d="M5.364 3.848C4 6 3 9.652 3 12.652V19a2 2 0 0 0 2 2h14a2 2 0 0 0 2-2v-5c0-2.334-1.816-4.668-2.622-7.002"/><path d="M7 3h11.379a2 2 0 0 1 1.789 1.106l.723 1.447A1 1 0 0 1 19.997 7h-8.525a2 2 0 0 1-1.789-1.106L8.79 4.105a2 2 0 1 0-3.579 1.789l2.261 4.522A5 5 0 0 1 8 12.652V21"/></g></g><g transform="translate(449.5 89.5) scale(0.875)"><path fill="none" stroke="currentColor" stroke-linecap="round" stroke-linejoin="round" stroke-width="2" d="m11.9 12.1l4.514-4.514M20.1 2.3a1 1 0 0 0-1.4 0l-1.114 1.114A2 2 0 0 0 17 4.828v1.344a2 2 0 0 1-.586 1.414A2 2 0 0 1 17.828 7h1.344a2 2 0 0 0 1.414-.586L21.7 5.3a1 1 0 0 0 0-1.4zM6 16l2 2m.23-8.15A3 3 0 0 1 11 8a5 5 0 0 1 5 5a3 3 0 0 1-1.85 2.77l-.92.38A2 2 0 0 0 12 18a4 4 0 0 1-4 4a6 6 0 0 1-6-6a4 4 0 0 1 4-4a2 2 0 0 0 1.85-1.23z"/></g><g transform="translate(9.5 129.5) scale(0.875)"><path fill="none" stroke="currentColor" stroke-linecap="round" stroke-linejoin="round" stroke-width="2" d="M12 3q1 4 4 6.5t3 5.5a1 1 0 0 1-14 0a5 5 0 0 1 1-3a1 1 0 0 0 5 0c0-2-1.5-3-1.5-5q0-2 2.5-4"/></g><g transform="translate(49.5 129.5) scale(0.875)"><path fill="none" stroke="currentColor" stroke-linecap="round" stroke-linejoin="round" stroke-width="2" d="M4 14a1 1 0 0 1-.78-1.63l9.9-10.2a.5.5 0 0 1 .86.46l-1.92 6.02A1 1 0 0 0 13 10h7a1 1 0 0 1 .78 1.63l-9.9 10.2a.5.5 0 0 1-.86-.46l1.92-6.02A1 1 0 0 0 11 14z"/></g><g transform="translate(89.5 129.5) scale(0.875)"><g fill="none" stroke="currentColor" stroke-linecap="round" stroke-linejoin="round" stroke-width="2"><circle cx="8" cy="21" r="1"/><circle cx="19" cy="21" r="1"/><path d="M2.05 2.05h2l2.66 12.42a2 2 0 0 0 2 1.58h9.78a2 2 0 0 0 1.95-1.57l1.65-7.43H5.12"/></g></g><g transform="translate(129.5 129.5) scale(0.875)"><g fill="none" stroke="currentColor" stroke-linecap="round" stroke-linejoin="round" stroke-width="2"><path d="M16 14v2.2l1.6 1M16 2v4m5 1.5V6a2 2 0 0 0-2-2H5a2 2 0 0 0-2 2v14a2 2 0 0 0 2 2h3.5M3 10h5m0-8v4"/><circle cx="16" cy="16" r="6"/></g></g><g transform="translate(169.5 129.5) scale(0.875)"><g fill="none" stroke="currentColor" stroke-linecap="round" stroke-linejoin="round" stroke-width="2"><path d="M6 22a2 2 0 0 1-2-2V4a2 2 0 0 1 2-2h8a2.4 2.4 0 0 1 1.704.706l3.588 3.588A2.4 2.4 0 0 1 20 8v12a2 2 0 0 1-2 2z"/><path d="M14 2v5a1 1 0 0 0 1 1h5M8 18l4-4m-4-4v8h8"/></g></g><g transform="translate(209.5 129.5) scale(0.875)"><g fill="none" stroke="currentColor" stroke-linecap="round" stroke-linejoin="round" stroke-width="2"><circle cx="12" cy="12" r="10"/><rect width="6" height="6" x="9" y="9" rx="1"/></g></g><g transform="translate(249.5 129.5) scale(0.875)"><path fill="none" stroke="currentColor" stroke-linecap="round" stroke-linejoin="round" stroke-width="2" d="M15 5h6m-6 7h6M3 19h18M3 12l3.553-7.724a.5.5 0 0 1 .894 0L11 12m-7.08-2h6.16"/></g><g transform="translate(289.5 129.5) scale(0.875)"><path fill="none" stroke="currentColor" stroke-linecap="round" stroke-linejoin="round" stroke-width="2" d="M8 3H5a2 2 0 0 0-2 2v14c0 1.1.9 2 2 2h3m8-18h3a2 2 0 0 1 2 2v14a2 2 0 0 1-2 2h-3m-4-1v2m0-8v2m0-8v2m0-8v2"/></g><g transform="translate(329.5 129.5) scale(0.875)"><path fill="none" stroke="currentColor" stroke-linecap="round" stroke-linejoin="round" stroke-width="2" d="m14.5 7l-5 5M4 19.5v-15A2.5 2.5 0 0 1 6.5 2H19a1 1 0 0 1 1 1v18a1 1 0 0 1-1 1H6.5a1 1 0 0 1 0-5H20M9.5 7l5 5"/></g><g transform="translate(369.5 129.5) scale(0.875)"><path fill="none" stroke="currentColor" stroke-linecap="round" stroke-linejoin="round" stroke-width="2" d="m15.55 8.45l5.138 2.087a.5.5 0 0 1-.063.947l-6.124 1.58a2 2 0 0 0-1.438 1.435l-1.579 6.126a.5.5 0 0 1-.947.063L8.45 15.551M22 2L2 22m4.816-10.472l-2.779-6.84a.495.495 0 0 1 .651-.651l6.84 2.779"/></g><g transform="translate(409.5 129.5) scale(0.875)"><g fill="none" stroke="currentColor" stroke-linecap="round" stroke-linejoin="round" stroke-width="2"><path d="M6 22a2 2 0 0 1-2-2V4a2 2 0 0 1 2-2h8a2.4 2.4 0 0 1 1.704.706l3.588 3.588A2.4 2.4 0 0 1 20 8v12a2 2 0 0 1-2 2z"/><path d="M14 2v5a1 1 0 0 0 1 1h5m-4 14a4 4 0 0 0-8 0"/><circle cx="12" cy="15" r="3"/></g></g><g transform="translate(449.5 129.5) scale(0.875)"><path fill="none" stroke="currentColor" stroke-linecap="round" stroke-linejoin="round" stroke-width="2" d="M3.85 8.62a4 4 0 0 1 4.78-4.77a4 4 0 0 1 6.74 0a4 4 0 0 1 4.78 4.78a4 4 0 0 1 0 6.74a4 4 0 0 1-4.77 4.78a4 4 0 0 1-6.75 0a4 4 0 0 1-4.78-4.77a4 4 0 0 1 0-6.76M15 9l-6 6m0-6h.01M15 15h.01"/></g><g transform="translate(9.5 169.5) scale(0.875)"><path fill="none" stroke="currentColor" stroke-linecap="round" stroke-linejoin="round" stroke-width="2" d="M6 4v6a6 6 0 0 0 12 0V4M4 20h16"/></g><g transform="translate(49.5 169.5) scale(0.875)"><path fill="none" stroke="currentColor" stroke-linecap="round" stroke-linejoin="round" stroke-width="2" d="m7 7l10 10m0-10v10H7"/></g><g transform="translate(89.5 169.5) scale(0.875)"><g fill="none" stroke="currentColor" stroke-linecap="round" stroke-linejoin="round" stroke-width="2"><circle cx="12" cy="12" r="10"/><path d="M12 8v8m-4-4l4 4l4-4"/></g></g><g transform="translate(129.5 169.5) scale(0.875)"><g fill="none" stroke="currentColor" stroke-linecap="round" stroke-linejoin="round" stroke-width="2"><path d="m18 14l-1-3M3 9l6 2a2 2 0 0 1 2-2h2a2 2 0 0 1 1.99 1.81"/><path d="M8 17h3a1 1 0 0 0 1-1a6 6 0 0 1 6-6a1 1 0 0 0 1-1v-.75A5 5 0 0 0 17 5"/><circle cx="19" cy="17" r="3"/><circle cx="5" cy="17" r="3"/></g></g><g transform="translate(169.5 169.5) scale(0.875)"><g fill="none" stroke="currentColor" stroke-linecap="round" stroke-linejoin="round" stroke-width="2"><path d="M18.977 14C19.6 12.701 20 11.343 20 10a8 8 0 0 0-16 0c0 4.993 5.539 10.193 7.399 11.799a1 1 0 0 0 1.202 0a32 32 0 0 0 .824-.738"/><circle cx="12" cy="10" r="3"/><path d="M16 18h6"/></g></g><g transform="translate(209.5 169.5) scale(0.875)"><g fill="none" stroke="currentColor" stroke-linecap="round" stroke-linejoin="round" stroke-width="2"><path d="M3 3v16a2 2 0 0 0 2 2h16"/><rect width="9" height="4" x="7" y="13" rx="1"/><rect width="12" height="4" x="7" y="5" rx="1"/></g></g><g transform="translate(249.5 169.5) scale(0.875)"><path fill="none" stroke="currentColor" stroke-linecap="round" stroke-linejoin="round" stroke-width="2" d="m9 18l6-6l-6-6"/></g><g transform="translate(289.5 169.5) scale(0.875)"><path fill="none" stroke="currentColor" stroke-linecap="round" stroke-linejoin="round" stroke-width="2" d="m3 8l4-4l4 4M7 4v16M20 8h-5m0 2V6.5a2.5 2.5 0 0 1 5 0V10m-5 4h5l-5 6h5"/></g><g transform="translate(329.5 169.5) scale(0.875)"><g fill="none" stroke="currentColor" stroke-linecap="round" stroke-linejoin="round" stroke-width="2"><path d="M16 10a4 4 0 0 1-8 0M3.103 6.034h17.794"/><path d="M3.4 5.467a2 2 0 0 0-.4 1.2V20a2 2 0 0 0 2 2h14a2 2 0 0 0 2-2V6.667a2 2 0 0 0-.4-1.2l-2-2.667A2 2 0 0 0 17 2H7a2 2 0 0 0-1.6.8z"/></g></g><g transform="translate(369.5 169.5) scale(0.875)"><path fill="none" stroke="currentColor" stroke-linecap="round" stroke-linejoin="round" stroke-width="2" d="M12 18V6m5 4v3a1 1 0 0 0 1 1h3m0-4v8M4 12h8m-8 6V6"/></g><g transform="translate(409.5 169.5) scale(0.875)"><path fill="none" stroke="currentColor" stroke-linecap="round" stroke-linejoin="round" stroke-width="2" d="M3 5v14m18-7H7m8 6l6-6l-6-6"/></g><g transform="translate(449.5 169.5) scale(0.875)"><g fill="none" stroke="currentColor" stroke-linecap="round" stroke-linejoin="round" stroke-width="2"><rect width="18" height="18" x="3" y="3" rx="2"/><path d="M12 12H9.5a2.5 2.5 0 0 1 0-5H17m-5 0v10m4-10v10"/></g></g><g transform="translate(9.5 209.5) scale(0.875)"><g fill="none" stroke="currentColor" stroke-linecap="round" stroke-linejoin="round" stroke-width="2"><path d="M10 12h.01M18 9V6a2 2 0 0 0-2-2H8a2 2 0 0 0-2 2v14m-4 0h8m10-3v-2a2 2 0 1 0-4 0v2"/><rect width="8" height="5" x="14" y="17" rx="1"/></g></g><g transform="translate(49.5 209.5) scale(0.875)"><g fill="none" stroke="currentColor" stroke-linecap="round" stroke-linejoin="round" stroke-width="2"><path d="M12 3v12m-4-4l4 4l4-4"/><path d="M8 5H4a2 2 0 0 0-2 2v10a2 2 0 0 0 2 2h16a2 2 0 0 0 2-2V7a2 2 0 0 0-2-2h-4"/></g></g><g transform="translate(89.5 209.5) scale(0.875)"><g fill="none" stroke="currentColor" stroke-linecap="round" stroke-linejoin="round" stroke-width="2"><path d="M10 15h4m.817-4.005l-.971-1.45l1.034-1.232a2 2 0 0 0-2.025-3.238l-1.82.364L9.91 3.885a2 2 0 0 0-3.625.748L6.141 6.55l-1.725.426a2 2 0 0 0-.19 3.756l.657.27"/><path d="m18.822 10.995l2.26-5.38a1 1 0 0 0-.557-1.318L16.954 2.9a1 1 0 0 0-1.281.533l-.924 2.122M4 12.006A1 1 0 0 1 4.994 11H19a1 1 0 0 1 1 1v7a2 2 0 0 1-2 2H6a2 2 0 0 1-2-2z"/></g></g><g transform="translate(129.5 209.5) scale(0.875)"><g fill="none" stroke="currentColor" stroke-linecap="round" stroke-linejoin="round" stroke-width="2"><path d="M10 8h.01M12 12h.01M14 8h.01M16 12h.01M18 8h.01M6 8h.01M7 16h10m-9-4h.01"/><rect width="20" height="16" x="2" y="4" rx="2"/></g></g><g transform="translate(169.5 209.5) scale(0.875)"><path fill="none" stroke="currentColor" stroke-linecap="round" stroke-linejoin="round" stroke-width="2" d="M3.5 21L14 3m6.5 18L10 3m5.5 18L12 15l-3.5 6M2 21h20"/></g><g transform="translate(209.5 209.5) scale(0.875)"><g fill="none" stroke="currentColor" stroke-linecap="round" stroke-linejoin="round" stroke-width="2"><path d="m14.5 12.5l-5-5m0 5l5-5"/><rect width="20" height="14" x="2" y="3" rx="2"/><path d="M12 17v4m-4 0h8"/></g></g><g transform="translate(249.5 209.5) scale(0.875)"><g fill="none" stroke="currentColor" stroke-linecap="round" stroke-linejoin="round" stroke-width="2"><rect width="14" height="20" x="5" y="2" rx="2" ry="2"/><path d="M12 18h.01"/></g></g><g transform="translate(289.5 209.5) scale(0.875)"><path fill="none" stroke="currentColor" stroke-linecap="round" stroke-linejoin="round" stroke-width="2" d="M4 7V4h16v3M5 20h6m2-16L8 20m7-5l5 5m0-5l-5 5"/></g><g transform="translate(329.5 209.5) scale(0.875)"><path fill="none" stroke="currentColor" stroke-linecap="round" stroke-linejoin="round" stroke-width="2" d="M12 13v1m5-12a1 1 0 0 1 1 1v4a3 3 0 0 1-.6 1.8l-.6.8A4 4 0 0 0 16 12v8a2 2 0 0 1-2 2h-4a2 2 0 0 1-2-2v-8a4 4 0 0 0-.8-2.4l-.6-.8A3 3 0 0 1 6 7V3a1 1 0 0 1 1-1zM6 6h12"/></g><g transform="translate(369.5 209.5) scale(0.875)"><g fill="none" stroke="currentColor" stroke-linecap="round" stroke-linejoin="round" stroke-width="2"><circle cx="12" cy="12" r="10"/><path d="M7 10h10M7 14h10"/></g></g><g transform="translate(409.5 209.5) scale(0.875)"><g fill="none" stroke="currentColor" stroke-linecap="round" stroke-linejoin="round" stroke-width="2"><path d="M17 12v4a1 1 0 0 1-1 1h-4m5-14h2a2 2 0 0 1 2 2v2m-4 1V7m4 10v2a2 2 0 0 1-2 2h-2M3 7V5a2 2 0 0 1 2-2h2m0 14h.01M7 21H5a2 2 0 0 1-2-2v-2"/><rect width="5" height="5" x="7" y="7" rx="1"/></g></g><g transform="translate(449.5 209.5) scale(0.875)"><g fill="none" stroke="currentColor" stroke-linecap="round" stroke-linejoin="round" stroke-width="2"><path d="M7.21 15L2.66 7.14a2 2 0 0 1 .13-2.2L4.4 2.8A2 2 0 0 1 6 2h12a2 2 0 0 1 1.6.8l1.6 2.14a2 2 0 0 1 .14 2.2L16.79 15M11 12L5.12 2.2M13 12l5.88-9.8M8 7h8"/><circle cx="12" cy="17" r="5"/><path d="M12 18v-2h-.5"/></g></g><g transform="translate(9.5 249.5) scale(0.875)"><g fill="none" stroke="currentColor" stroke-linecap="round" stroke-linejoin="round" stroke-width="2"><path d="M12 13V7m3 3l-3 3l-3-3"/><rect width="20" height="14" x="2" y="3" rx="2"/><path d="M12 17v4m-4 0h8"/></g></g><g transform="translate(49.5 249.5) scale(0.875)"><path fill="none" stroke="currentColor" stroke-linecap="round" stroke-linejoin="round" stroke-width="2" d="M19 13v6h-6m-8-8V5h6M5 5l14 14"/></g><g transform="translate(89.5 249.5) scale(0.875)"><path fill="none" stroke="currentColor" stroke-linecap="round" stroke-linejoin="round" stroke-width="2" d="M2 20h.01M7 20v-4m5 4v-8"/></g><g transform="translate(129.5 249.5) scale(0.875)"><path fill="none" stroke="currentColor" stroke-linecap="round" stroke-linejoin="round" stroke-width="2" d="M10 3H8m7.007 2.008l3.987 3.986M20 15v4m1.174-12.187a2.82 2.82 0 0 0-3.986-3.987L3.842 16.175a2 2 0 0 0-.5.83l-1.321 4.352a.5.5 0 0 0 .623.622l4.353-1.32a2 2 0 0 0 .83-.497zM22 17h-4M4 5v4m2-2H2m7-5v2"/></g><g transform="translate(169.5 249.5) scale(0.875)"><g fill="none" stroke="currentColor" stroke-linecap="round" stroke-linejoin="round" stroke-width="2"><path d="M18 8V6a2 2 0 0 0-2-2H4a2 2 0 0 0-2 2v7a2 2 0 0 0 2 2h8m-2 4v-3.96v3.15M7 19h5"/><rect width="6" height="10" x="16" y="12" rx="2"/></g></g><g transform="translate(209.5 249.5) scale(0.875)"><path fill="none" stroke="currentColor" stroke-linecap="round" stroke-linejoin="round" stroke-width="2" d="M10 2v8m2.8 11.6A2 2 0 1 0 14 18H2m15.5-8a2.5 2.5 0 1 1 2 4H2m4-8l4 4l4-4"/></g><g transform="translate(249.5 249.5) scale(0.875)"><path fill="none" stroke="currentColor" stroke-linecap="round" stroke-linejoin="round" stroke-width="2" d="M17 12H3m8 6l6-6l-6-6m10-1v14"/></g><g transform="translate(289.5 249.5) scale(0.875)"><g fill="none" stroke="currentColor" stroke-linecap="round" stroke-linejoin="round" stroke-width="2"><path d="M4 10a4 4 0 0 1 4-4h8a4 4 0 0 1 4 4v10a2 2 0 0 1-2 2H6a2 2 0 0 1-2-2zm4 0h8m-8 8h8"/><path d="M8 22v-6a2 2 0 0 1 2-2h4a2 2 0 0 1 2 2v6M9 6V4a2 2 0 0 1 2-2h2a2 2 0 0 1 2 2v2"/></g></g><g transform="translate(329.5 249.5) scale(0.875)"><g fill="none" stroke="currentColor" stroke-linecap="round" stroke-linejoin="round" stroke-width="2"><path d="M22 18H6a2 2 0 0 1-2-2V7a2 2 0 0 0-2-2"/><path d="M17 14V4a2 2 0 0 0-2-2h-1a2 2 0 0 0-2 2v10"/><rect width="13" height="8" x="8" y="6" rx="1"/><circle cx="18" cy="20" r="2"/><circle cx="9" cy="20" r="2"/></g></g><g transform="translate(369.5 249.5) scale(0.875)"><g fill="none" stroke="currentColor" stroke-linecap="round" stroke-linejoin="round" stroke-width="2"><path d="M21 17v2a2 2 0 0 1-2 2H5a2 2 0 0 1-2-2v-2M21 7V5a2 2 0 0 0-2-2H5a2 2 0 0 0-2 2v2"/><circle cx="12" cy="12" r="1"/><path d="M18.944 12.33a1 1 0 0 0 0-.66a7.5 7.5 0 0 0-13.888 0a1 1 0 0 0 0 .66a7.5 7.5 0 0 0 13.888 0"/></g></g><g transform="translate(409.5 249.5) scale(0.875)"><g fill="none" stroke="currentColor" stroke-linecap="round" stroke-linejoin="round" stroke-width="2"><path d="M6 22a2 2 0 0 1-2-2V4a2 2 0 0 1 2-2h8a2.4 2.4 0 0 1 1.704.706l3.588 3.588A2.4 2.4 0 0 1 20 8v12a2 2 0 0 1-2 2z"/><path d="M14 2v5a1 1 0 0 0 1 1h5m-4.967 5.44a.647.647 0 0 1 0 1.12l-4.065 2.352a.645.645 0 0 1-.968-.56v-4.704a.645.645 0 0 1 .967-.56z"/></g></g><g transform="translate(449.5 249.5) scale(0.875)"><path fill="none" stroke="currentColor" stroke-linecap="round" stroke-linejoin="round" stroke-width="2" d="M5 9h14M5 15h14m0-10L5 19"/></g><g transform="translate(9.5 289.5) scale(0.875)"><path fill="none" stroke="currentColor" stroke-linecap="round" stroke-linejoin="round" stroke-width="2" d="M10 16h.01m-7.798-4.423a2 2 0 0 0-.212.896V18a2 2 0 0 0 2 2h16a2 2 0 0 0 2-2v-5.527a2 2 0 0 0-.212-.896L18.55 5.11A2 2 0 0 0 16.76 4H7.24a2 2 0 0 0-1.79 1.11zm19.734.436H2.054M6 16h.01"/></g><g transform="translate(49.5 289.5) scale(0.875)"><g fill="none" stroke="currentColor" stroke-linecap="round" stroke-linejoin="round" stroke-width="2"><path d="m15 10l5 5l-5 5"/><path d="M4 4v7a4 4 0 0 0 4 4h12"/></g></g><g transform="translate(89.5 289.5) scale(0.875)"><path fill="none" stroke="currentColor" stroke-linecap="round" stroke-linejoin="round" stroke-width="2" d="M7 7h10v10M7 17L17 7"/></g><g transform="translate(129.5 289.5) scale(0.875)"><g fill="none" stroke="currentColor" stroke-linecap="round" stroke-linejoin="round" stroke-width="2"><path d="M16.4 13.7A6.5 6.5 0 1 0 6.28 6.6c-1.1 3.13-.78 3.9-3.18 6.08A3 3 0 0 0 5 18c4 0 8.4-1.8 11.4-4.3"/><path d="m18.5 6l2.19 4.5a6.48 6.48 0 0 1-2.29 7.2C15.4 20.2 11 22 7 22a3 3 0 0 1-2.68-1.66L2.4 16.5"/><circle cx="12.5" cy="8.5" r="2.5"/></g></g><g transform="translate(169.5 289.5) scale(0.875)"><path fill="none" stroke="currentColor" stroke-linecap="round" stroke-linejoin="round" stroke-width="2" d="M21 5H3m12 7H3m14 7H3"/></g><g transform="translate(209.5 289.5) scale(0.875)"><path fill="none" stroke="currentColor" stroke-linecap="round" stroke-linejoin="round" stroke-width="2" d="m4 19l8-8m0 8l-8-8m16 1h-4c0-1.5.442-2 1.5-2.5S20 8.334 20 7.002c0-.472-.17-.93-.484-1.29a2.105 2.105 0 0 0-2.617-.436c-.42.239-.738.614-.899 1.06"/></g><g transform="translate(249.5 289.5) scale(0.875)"><g fill="none" stroke="currentColor" stroke-linecap="round" stroke-linejoin="round" stroke-width="2"><path d="M18 21V10a1 1 0 0 0-1-1H7a1 1 0 0 0-1 1v11"/><path d="M22 19a2 2 0 0 1-2 2H4a2 2 0 0 1-2-2V8a2 2 0 0 1 1.132-1.803l7.95-3.974a2 2 0 0 1 1.837 0l7.948 3.974A2 2 0 0 1 22 8zM6 13h12M6 17h12"/></g></g><g transform="translate(289.5 289.5) scale(0.875)"><g fill="none" stroke="currentColor" stroke-linecap="round" stroke-linejoin="round" stroke-width="2"><path d="M16 14v2.2l1.6 1M16 4h2a2 2 0 0 1 2 2v.832M8 4H6a2 2 0 0 0-2 2v14a2 2 0 0 0 2 2h2"/><circle cx="16" cy="16" r="6"/><rect width="8" height="4" x="8" y="2" rx="1"/></g></g><g transform="translate(329.5 289.5) scale(0.875)"><path fill="none" stroke="currentColor" stroke-linecap="round" stroke-linejoin="round" stroke-width="2" d="M11 4.702a.705.705 0 0 0-1.203-.498L6.413 7.587A1.4 1.4 0 0 1 5.416 8H3a1 1 0 0 0-1 1v6a1 1 0 0 0 1 1h2.416a1.4 1.4 0 0 1 .997.413l3.383 3.384A.705.705 0 0 0 11 19.298z"/></g><g transform="translate(369.5 289.5) scale(0.875)"><g fill="none" stroke="currentColor" stroke-linecap="round" stroke-linejoin="round" stroke-width="2"><path d="m19 16l-3 3M2 21a8 8 0 0 1 12.664-6.5M22 19h-6l3 3"/><circle cx="10" cy="8" r="5"/></g></g><g transform="translate(409.5 289.5) scale(0.875)"><g fill="none" stroke="currentColor" stroke-linecap="round" stroke-linejoin="round" stroke-width="2"><path d="m12 8l6-3l-6-3v10"/><path d="m8 11.99l-5.5 3.14a1 1 0 0 0 0 1.74l8.5 4.86a2 2 0 0 0 2 0l8.5-4.86a1 1 0 0 0 0-1.74L16 12m-9.51.85l11.02 6.3m0-6.3L6.5 19.15"/></g></g><g transform="translate(449.5 289.5) scale(0.875)"><path fill="none" stroke="currentColor" stroke-linecap="round" stroke-linejoin="round" stroke-width="2" d="M10.94 5.274A7 7 0 0 1 15.71 10h1.79a4.5 4.5 0 0 1 4.222 6.057m-2.926 2.753A4.5 4.5 0 0 1 17.5 19H9A7 7 0 0 1 5.79 5.78M2 2l20 20"/></g><g transform="translate(9.5 329.5) scale(0.875)"><path fill="none" stroke="currentColor" stroke-linecap="round" stroke-linejoin="round" stroke-width="2" d="m4 4l2.5 2.5m7 0a4.95 4.95 0 0 0-7 7M15 5L5 15m9 2v.01M10 16v.01M13 13v.01M16 10v.01M11 20v.01M17 14v.01M20 11v.01"/></g><g transform="translate(49.5 329.5) scale(0.875)"><path fill="none" stroke="currentColor" stroke-linecap="round" stroke-linejoin="round" stroke-width="2" d="m18 2l4 4m-5 1l3-3m-1 5L8.7 19.3c-1 1-2.5 1-3.4 0l-.6-.6c-1-1-1-2.5 0-3.4L15 5m-6 6l4 4m-8 4l-3 3M14 4l6 6"/></g><g transform="translate(89.5 329.5) scale(0.875)"><path fill="none" stroke="currentColor" stroke-linecap="round" stroke-linejoin="round" stroke-width="2" d="M2 9a3 3 0 0 1 0 6v2a2 2 0 0 0 2 2h16a2 2 0 0 0 2-2v-2a3 3 0 0 1 0-6V7a2 2 0 0 0-2-2H4a2 2 0 0 0-2 2Zm7.5 5.5l5-5"/></g><g transform="translate(129.5 329.5) scale(0.875)"><g fill="none" stroke="currentColor" stroke-linecap="round" stroke-linejoin="round" stroke-width="2"><path d="M19 9V6a2 2 0 0 0-2-2H7a2 2 0 0 0-2 2v3"/><path d="M3 16a2 2 0 0 0 2 2h14a2 2 0 0 0 2-2v-5a2 2 0 0 0-4 0v1.5a.5.5 0 0 1-.5.5h-9a.5.5 0 0 1-.5-.5V11a2 2 0 0 0-4 0zm2 2v2m14-2v2"/></g></g><g transform="translate(169.5 329.5) scale(0.875)"><path fill="none" stroke="currentColor" stroke-linecap="round" stroke-linejoin="round" stroke-width="2" d="M12 2c1 3 2.5 3.5 3.5 4.5A5 5 0 0 1 17 10a5 5 0 1 1-10 0c0-.3 0-.6.1-.9a2 2 0 1 0 3.3-2C8 4.5 11 2 12 2M5 22l14-4M5 18l14 4"/></g><g transform="translate(209.5 329.5) scale(0.875)"><g fill="none" stroke="currentColor" stroke-linecap="round" stroke-linejoin="round" stroke-width="2"><path d="m16 6l-4-4l-4 4m4-4v8"/><rect width="20" height="8" x="2" y="14" rx="2"/><path d="M6 18h.01M10 18h.01"/></g></g><g transform="translate(249.5 329.5) scale(0.875)"><g fill="none" stroke="currentColor" stroke-linecap="round" stroke-linejoin="round" stroke-width="2"><path d="M14 19V7a2 2 0 0 0-2-2H9m6 14H9m10 0h2a1 1 0 0 0 1-1v-3.65a1 1 0 0 0-.22-.62L18.3 9.38a1 1 0 0 0-.78-.38H14M2 13v5a1 1 0 0 0 1 1h2M4 3L2.15 5.15a.495.495 0 0 0 .35.86h2.15a.47.47 0 0 1 .35.86L3 9.02"/><circle cx="17" cy="19" r="2"/><circle cx="7" cy="19" r="2"/></g></g><g transform="translate(289.5 329.5) scale(0.875)"><g fill="none" stroke="currentColor" stroke-linecap="round" stroke-linejoin="round" stroke-width="2"><path d="M10 22v-8M2.336 8.89L10 14l11.715-7.029"/><path d="M22 14a2 2 0 0 1-.971 1.715l-10 6a2 2 0 0 1-2.138-.05l-6-4A2 2 0 0 1 2 16v-6a2 2 0 0 1 .971-1.715l10-6a2 2 0 0 1 2.138.05l6 4A2 2 0 0 1 22 8z"/></g></g><g transform="translate(329.5 329.5) scale(0.875)"><path fill="none" stroke="currentColor" stroke-linecap="round" stroke-linejoin="round" stroke-width="2" d="M11 4.702a.705.705 0 0 0-1.203-.498L6.413 7.587A1.4 1.4 0 0 1 5.416 8H3a1 1 0 0 0-1 1v6a1 1 0 0 0 1 1h2.416a1.4 1.4 0 0 1 .997.413l3.383 3.384A.705.705 0 0 0 11 19.298zM16 9a5 5 0 0 1 0 6"/></g><g transform="translate(369.5 329.5) scale(0.875)"><path fill="none" stroke="currentColor" stroke-linecap="round" stroke-linejoin="round" stroke-width="2" d="m12 19l-7-7l7-7m7 7H5"/></g><g transform="translate(409.5 329.5) scale(0.875)"><path fill="none" stroke="currentColor" stroke-linecap="round" stroke-linejoin="round" stroke-width="2" d="m9 6l-6 6l6 6m-6-6h14m4 7V5"/></g><g transform="translate(449.5 329.5) scale(0.875)"><g fill="none" stroke="currentColor" stroke-linecap="round" stroke-linejoin="round" stroke-width="2"><path d="m10 9l-3 3l3 3m4 0l3-3l-3-3"/><path d="M2.992 16.342a2 2 0 0 1 .094 1.167l-1.065 3.29a1 1 0 0 0 1.236 1.168l3.413-.998a2 2 0 0 1 1.099.092a10 10 0 1 0-4.777-4.719"/></g></g><g transform="translate(9.5 369.5) scale(0.875)"><g fill="none" stroke="currentColor" stroke-linecap="round" stroke-linejoin="round" stroke-width="2"><path d="M16 3v2.107M17 9c1 3 2.5 3.5 3.5 4.5A5 5 0 0 1 22 17a5 5 0 0 1-10 0c0-.3 0-.6.1-.9a2 2 0 1 0 3.3-2C13 11.5 16 9 17 9"/><path d="M21 8.274V5a2 2 0 0 0-2-2H5a2 2 0 0 0-2 2v14a2 2 0 0 0 2 2h3.938M3 15h5.253M3 9h8.228M8 15v6M8 3v6"/></g></g><g transform="translate(49.5 369.5) scale(0.875)"><path fill="none" stroke="currentColor" stroke-linecap="round" stroke-linejoin="round" stroke-width="2" d="M22 12A10 10 0 1 1 12 2m10 0L12 12m4-10h6v6"/></g><g transform="translate(89.5 369.5) scale(0.875)"><path fill="none" stroke="currentColor" stroke-linecap="round" stroke-linejoin="round" stroke-width="2" d="M3.85 8.62a4 4 0 0 1 4.78-4.77a4 4 0 0 1 6.74 0a4 4 0 0 1 4.78 4.78a4 4 0 0 1 0 6.74a4 4 0 0 1-4.77 4.78a4 4 0 0 1-6.75 0a4 4 0 0 1-4.78-4.77a4 4 0 0 1 0-6.76M12 8v4m0 4h.01"/></g><g transform="translate(129.5 369.5) scale(0.875)"><path fill="none" stroke="currentColor" stroke-linecap="round" stroke-linejoin="round" stroke-width="2" d="M4 19.5v-15A2.5 2.5 0 0 1 6.5 2H19a1 1 0 0 1 1 1v18a1 1 0 0 1-1 1H6.5a1 1 0 0 1 0-5H20M9 10h6"/></g><g transform="translate(169.5 369.5) scale(0.875)"><g fill="none" stroke="currentColor" stroke-linecap="round" stroke-linejoin="round" stroke-width="2"><path d="M10 9.5L8 12l2 2.5m4 6.5h1M14 9.5l2 2.5l-2 2.5"/><path d="M5 21a2 2 0 0 1-2-2V5a2 2 0 0 1 2-2h14a2 2 0 0 1 2 2v14a2 2 0 0 1-2 2M9 21h1"/></g></g><g transform="translate(209.5 369.5) scale(0.875)"><g fill="none" stroke="currentColor" stroke-linecap="round" stroke-linejoin="round" stroke-width="2"><path d="M10 12.01h.01M18 8v4a8 8 0 0 1-1.07 4"/><circle cx="10" cy="12" r="4"/><rect width="20" height="16" x="2" y="4" rx="2"/></g></g><g transform="translate(249.5 369.5) scale(0.875)"><g fill="none" stroke="currentColor" stroke-linecap="round" stroke-linejoin="round" stroke-width="2"><path d="M18 11c-1.5 0-2.5.5-3 2"/><path d="M4 6a2 2 0 0 0-2 2v4a5 5 0 0 0 5 5a8 8 0 0 1 5 2a8 8 0 0 1 5-2a5 5 0 0 0 5-5V8a2 2 0 0 0-2-2h-3a8 8 0 0 0-5 2a8 8 0 0 0-5-2z"/><path d="M6 11c1.5 0 2.5.5 3 2"/></g></g><g transform="translate(289.5 369.5) scale(0.875)"><g fill="none" stroke="currentColor" stroke-linecap="round" stroke-linejoin="round" stroke-width="2"><path d="M17 11h1a3 3 0 0 1 0 6h-1m-8-5v6m4-6v6m1-10.5c-1 0-1.44.5-3 .5s-2-.5-3-.5s-1.72.5-2.5.5a2.5 2.5 0 0 1 0-5c.78 0 1.57.5 2.5.5S9.44 2 11 2s2 1.5 3 1.5s1.72-.5 2.5-.5a2.5 2.5 0 0 1 0 5c-.78 0-1.5-.5-2.5-.5"/><path d="M5 8v12a2 2 0 0 0 2 2h8a2 2 0 0 0 2-2V8"/></g></g><g transform="translate(329.5 369.5) scale(0.875)"><g fill="none" stroke="currentColor" stroke-linecap="round" stroke-linejoin="round" stroke-width="2"><path d="M22 17a10 10 0 0 0-20 0"/><path d="M6 17a6 6 0 0 1 12 0"/><path d="M10 17a2 2 0 0 1 4 0"/></g></g><g transform="translate(369.5 369.5) scale(0.875)"><path fill="none" stroke="currentColor" stroke-linecap="round" stroke-linejoin="round" stroke-width="2" d="M10 21V3h8M6 16h9m-5-6.5h7"/></g><g transform="translate(409.5 369.5) scale(0.875)"><g fill="none" stroke="currentColor" stroke-linecap="round" stroke-linejoin="round" stroke-width="2"><rect width="8" height="4" x="8" y="2" rx="1" ry="1"/><path d="M8 4H6a2 2 0 0 0-2 2v14a2 2 0 0 0 2 2h12a2 2 0 0 0 2-2v-2M16 4h2a2 2 0 0 1 2 2v4m1 4H11"/><path d="m15 10l-4 4l4 4"/></g></g><g transform="translate(449.5 369.5) scale(0.875)"><path fill="none" stroke="currentColor" stroke-linecap="round" stroke-linejoin="round" stroke-width="2" d="M13 4v16m4-16v16m2-16H9.5a4.5 4.5 0 0 0 0 9H13"/></g><g transform="translate(9.5 409.5) scale(0.875)"><circle cx="12" cy="12" r="10" fill="none" stroke="currentColor" stroke-linecap="round" stroke-linejoin="round" stroke-width="2"/></g><g transform="translate(49.5 409.5) scale(0.875)"><g fill="none" stroke="currentColor" stroke-linecap="round" stroke-linejoin="round" stroke-width="2"><path d="M2.992 16.342a2 2 0 0 1 .094 1.167l-1.065 3.29a1 1 0 0 0 1.236 1.168l3.413-.998a2 2 0 0 1 1.099.092a10 10 0 1 0-4.777-4.719"/><path d="m10 15l-3-3l3-3"/><path d="M7 12h8a2 2 0 0 1 2 2v1"/></g></g><g transform="translate(89.5 409.5) scale(0.875)"><path fill="none" stroke="currentColor" stroke-linecap="round" stroke-linejoin="round" stroke-width="2" d="M10 2v6.292a7 7 0 1 0 4 0V2M5 15h14M8.5 2h7"/></g><g transform="translate(129.5 409.5) scale(0.875)"><path fill="none" stroke="currentColor" stroke-linecap="round" stroke-linejoin="round" stroke-width="2" d="M11.767 19.089c4.924.868 6.14-6.025 1.216-6.894m-1.216 6.894L5.86 18.047m5.908 1.042l-.347 1.97m1.563-8.864c4.924.869 6.14-6.025 1.215-6.893m-1.215 6.893l-3.94-.694m5.155-6.2L8.29 4.26m5.908 1.042l.348-1.97M7.48 20.364l3.126-17.727"/></g><g transform="translate(169.5 409.5) scale(0.875)"><g fill="none" stroke="currentColor" stroke-linecap="round" stroke-linejoin="round" stroke-width="2"><circle cx="12" cy="12" r="10"/><path d="M12 6v6l-2-4"/></g></g><g transform="translate(209.5 409.5) scale(0.875)"><g fill="none" stroke="currentColor" stroke-linecap="round" stroke-linejoin="round" stroke-width="2"><path d="M12 10.189V14m0-12v3m7 8V7a2 2 0 0 0-2-2H7a2 2 0 0 0-2 2v6"/><path d="M19.38 20A11.6 11.6 0 0 0 21 14l-8.188-3.639a2 2 0 0 0-1.624 0L3 14a11.6 11.6 0 0 0 2.81 7.76"/><path d="M2 21c.6.5 1.2 1 2.5 1c2.5 0 2.5-2 5-2c1.3 0 1.9.5 2.5 1s1.2 1 2.5 1c2.5 0 2.5-2 5-2c1.3 0 1.9.5 2.5 1"/></g></g><g transform="translate(249.5 409.5) scale(0.875)"><g fill="none" stroke="currentColor" stroke-linecap="round" stroke-linejoin="round" stroke-width="2"><rect width="14" height="6" x="5" y="14" rx="2"/><rect width="10" height="6" x="7" y="4" rx="2"/><path d="M2 20h20M2 10h20"/></g></g><g transform="translate(289.5 409.5) scale(0.875)"><g fill="none" stroke="currentColor" stroke-linecap="round" stroke-linejoin="round" stroke-width="2"><path d="M3.85 8.62a4 4 0 0 1 4.78-4.77a4 4 0 0 1 6.74 0a4 4 0 0 1 4.78 4.78a4 4 0 0 1 0 6.74a4 4 0 0 1-4.77 4.78a4 4 0 0 1-6.75 0a4 4 0 0 1-4.78-4.77a4 4 0 0 1 0-6.76"/><path d="M16 8h-6a2 2 0 1 0 0 4h4a2 2 0 1 1 0 4H8m4 2V6"/></g></g><g transform="translate(329.5 409.5) scale(0.875)"><path fill="none" stroke="currentColor" stroke-linecap="round" stroke-linejoin="round" stroke-width="2" d="M3 7V5a2 2 0 0 1 2-2h2m10 0h2a2 2 0 0 1 2 2v2m0 10v2a2 2 0 0 1-2 2h-2M7 21H5a2 2 0 0 1-2-2v-2M8 7v10m4-10v10m5-10v10"/></g><g transform="translate(369.5 409.5) scale(0.875)"><path fill="none" stroke="currentColor" stroke-linecap="round" stroke-linejoin="round" stroke-width="2" d="M4 19.5v-15A2.5 2.5 0 0 1 6.5 2H19a1 1 0 0 1 1 1v18a1 1 0 0 1-1 1H6.5a1 1 0 0 1 0-5H20M8 11h8M8 7h6"/></g><g transform="translate(409.5 409.5) scale(0.875)"><g fill="none" stroke="currentColor" stroke-linecap="round" stroke-linejoin="round" stroke-width="2"><path d="M4.226 20.925A2 2 0 0 0 6 22h12a2 2 0 0 0 2-2V8a2.4 2.4 0 0 0-.706-1.706l-3.588-3.588A2.4 2.4 0 0 0 14 2H6a2 2 0 0 0-2 2v3.127"/><path d="M14 2v5a1 1 0 0 0 1 1h5M5 11l-3 3m3 3l-3-3h10"/></g></g><g transform="translate(449.5 409.5) scale(0.875)"><g fill="none" stroke="currentColor" stroke-linecap="round" stroke-linejoin="round" stroke-width="2"><path d="m3 8l4-4l4 4M7 4v16"/><rect width="4" height="6" x="15" y="4" ry="2"/><path d="M17 20v-6h-2m0 6h4"/></g></g><g transform="translate(9.5 449.5) scale(0.875)"><path fill="none" stroke="currentColor" stroke-linecap="round" stroke-linejoin="round" stroke-width="2" d="M4 5h16M4 12h16M4 19h16"/></g><g transform="translate(49.5 449.5) scale(0.875)"><g fill="none" stroke="currentColor" stroke-linecap="round" stroke-linejoin="round" stroke-width="2"><path d="M3 7V5c0-1.1.9-2 2-2h2m10 0h2c1.1 0 2 .9 2 2v2m0 10v2c0 1.1-.9 2-2 2h-2M7 21H5c-1.1 0-2-.9-2-2v-2"/><rect width="7" height="5" x="7" y="7" rx="1"/><rect width="7" height="5" x="10" y="12" rx="1"/></g></g><g transform="translate(89.5 449.5) scale(0.875)"><path fill="none" stroke="currentColor" stroke-linecap="round" stroke-linejoin="round" stroke-width="2" d="M4 20h16M6 16l6-12l6 12M8 12h8"/></g><g transform="translate(129.5 449.5) scale(0.875)"><g fill="none" stroke="currentColor" stroke-linecap="round" stroke-linejoin="round" stroke-width="2"><path d="M14 21v-3a2 2 0 0 0-4 0v3m8-16.067V21M4 6l7.106-3.79a2 2 0 0 1 1.788 0L20 6"/><path d="m6 11l-3.52 2.147a1 1 0 0 0-.48.854V19a2 2 0 0 0 2 2h16a2 2 0 0 0 2-2v-5a1 1 0 0 0-.48-.853L18 11M6 4.933V21"/><circle cx="12" cy="9" r="2"/></g></g><g transform="translate(169.5 449.5) scale(0.875)"><path fill="none" stroke="currentColor" stroke-linecap="round" stroke-linejoin="round" stroke-width="2" d="M14 2v6a2 2 0 0 0 .245.96l5.51 10.08A2 2 0 0 1 18 22H6a2 2 0 0 1-1.755-2.96l5.51-10.08A2 2 0 0 0 10 8V2M6.453 15h11.094M8.5 2h7"/></g><g transform="translate(209.5 449.5) scale(0.875)"><g fill="none" stroke="currentColor" stroke-linecap="round" stroke-linejoin="round" stroke-width="2"><path d="M7 2h10M5 6h14"/><rect width="18" height="12" x="3" y="10" rx="2"/></g></g><g transform="translate(249.5 449.5) scale(0.875)"><g fill="none" stroke="currentColor" stroke-linecap="round" stroke-linejoin="round" stroke-width="2"><path d="m20.9 18.55l-8-15.98a1 1 0 0 0-1.8 0l-8 15.98"/><ellipse cx="12" cy="19" rx="9" ry="3"/></g></g><g transform="translate(289.5 449.5) scale(0.875)"><path fill="none" stroke="currentColor" stroke-linecap="round" stroke-linejoin="round" stroke-width="2" d="M8.8 20v-4.1l1.9.2a2.3 2.3 0 0 0 2.164-2.1V8.3A5.37 5.37 0 0 0 2 8.25c0 2.8.656 3.054 1 4.55a5.8 5.8 0 0 1 .029 2.758L2 20m17.8-2.2a7.5 7.5 0 0 0 .003-10.603M17 15a3.5 3.5 0 0 0-.025-4.975"/></g><g transform="translate(329.5 449.5) scale(0.875)"><path fill="none" stroke="currentColor" stroke-linecap="round" stroke-linejoin="round" stroke-width="2" d="m3 16l4 4l4-4m-4 4V4m4 0h4m-4 4h7m-7 4h10"/></g><g transform="translate(369.5 449.5) scale(0.875)"><g fill="none" stroke="currentColor" stroke-linecap="round" stroke-linejoin="round" stroke-width="2"><path d="M12 22V12m4 5h6m-3-3v6m2-9.465V8a2 2 0 0 0-1-1.73l-7-4a2 2 0 0 0-2 0l-7 4A2 2 0 0 0 3 8v8a2 2 0 0 0 1 1.729l7 4a2 2 0 0 0 2 .001l1.675-.955"/><path d="M3.29 7L12 12l8.71-5M7.5 4.27l8.997 5.148"/></g></g><g transform="translate(409.5 449.5) scale(0.875)"><g fill="none" stroke="currentColor" stroke-linecap="round" stroke-linejoin="round" stroke-width="2"><path d="M12.656 7H13a3 3 0 0 1 2.984 3.307M13 13H9m10.071 6.071A1 1 0 0 1 4.93 4.93M2 2l20 20"/><path d="M8.357 2.687a10 10 0 0 1 12.956 12.956M9 17V9"/></g></g><g transform="translate(449.5 449.5) scale(0.875)"><g fill="none" stroke="currentColor" stroke-linecap="round" stroke-linejoin="round" stroke-width="2"><path d="M4 6L2 7m8-1h4m8 1l-2-1"/><rect width="16" height="16" x="4" y="3" rx="2"/><path d="M4 11h16M8 15h.01M16 15h.01M6 19v2m12 0v-2"/></g></g></svg>
